<?xml version="1.0" encoding="UTF-8"?><svg id="Camada_1" xmlns="http://www.w3.org/2000/svg" viewBox="0 0 2231.3 2175.65"><defs><style>.cls-1{fill:#231f20;}</style></defs><path class="cls-1" d="M1115.65,1646.68c180.47,0,347.81-83.79,471.17-235.89,123.48-152.24,191.49-360.86,191.49-587.45s-68-435.22-191.49-587.45C1463.46,83.77,1296.12,0,1115.65,0s-347.83,83.77-471.2,235.89c-123.46,152.24-191.46,360.86-191.46,587.45s68,435.21,191.46,587.45c123.37,152.1,290.71,235.89,471.2,235.89m0-1571.28c328.29,0,577.25,309.27,586.79,723.35l-590.38-438.3-583.08,431.09c12.23-410.46,260.27-716.13,586.67-716.13M540.35,980.56l571.64-422.63,577.84,429.01c-7.01,43.25-16.78,84.89-29.09,124.65l-552.33-409.27-540.84,399.4c-11.5-38.76-20.72-79.17-27.24-121.16m568.02-80.78l488.89,362.3c-104.37,189.7-277.65,309.19-481.61,309.19s-382.52-123.06-486.35-317.76l479.07-353.73Z"/><g><polygon class="cls-1" points="483.41 1989.88 608.74 1989.88 608.74 2169.3 658.05 2169.3 658.05 1989.88 783.35 1989.88 783.35 1948.1 483.41 1948.1 483.41 1989.88"/><rect class="cls-1" x="377.62" y="1948.1" width="49.32" height="221.2"/><path class="cls-1" d="M2117.95,1949.14h-180.43v220.85h49.32v-179.09h119.49c46.56,0,75.66,17.13,75.66,69.18v109.92h49.32v-116.08c0-58.88-33.91-104.77-113.35-104.77"/><path class="cls-1" d="M1760.78,1921.72h72.58c8.23,0,15.41-7.18,15.41-15.76s-7.18-16.08-15.41-16.08h-72.58c-8.9,0-16.11,7.18-16.11,16.08s7.21,15.76,16.11,15.76"/><path class="cls-1" d="M1052.5,2082.59c68.27-1.61,90.7-19.81,90.7-66.34,0-42.13-30.13-67.11-81.13-67.11h-222.22v220.85h49.29v-179.09h173.25c19.51,0,29.8,8.84,29.8,26.37,0,15.41-4.88,30.34-36.67,29.35h-124.6v12.76l152.02,109.92h71.56l-126.4-86.71h24.39Z"/><path class="cls-1" d="M1414.01,1944.43c-15.01-.62-30.34-.94-45.56-.94-25.94,0-42.78,.94-42.94,.94h-.83c-35.86,1.15-66.44,13.11-88.37,34.58-21.04,20.58-32.62,49.13-32.62,80.41v.32c0,67.09,48.75,113.29,121.33,114.98,15.04,.64,30.37,.94,45.59,.94,25.92,0,42.78-.91,42.94-.94h.8c35.86-1.15,66.44-13.11,88.39-34.58,21.04-20.56,32.62-49.13,32.62-80.41v-.32c0-65.75-48.78-111.95-121.36-114.98m68.78,114.55c-.16,42.59-27.87,70.22-72.31,72.07h-.99l-.94,.05c-2.71,.21-13.13,.94-35.67,.94-15.06,0-29.51-.32-42.94-.96l-.78-.03c-44.95-1.15-72.88-28.79-72.88-72.1s27.71-70.6,72.31-72.47h.99l.91-.03c.16-.03,18.71-.94,44.14-.94,14.31,0,20.42,.29,32.59,.86l1.9,.08c46.13,2.14,73.65,29.11,73.65,72.15v.38Z"/><polygon class="cls-1" points="1599.51 2169.99 1868.64 2169.99 1868.64 2128.21 1648.8 2128.21 1648.8 2078.57 1841.59 2078.57 1841.59 2038.56 1648.8 2038.56 1648.8 1990.9 1868.64 1990.9 1868.64 1949.14 1599.51 1949.14 1599.51 2169.99"/><path class="cls-1" d="M1634.79,1921.72h72.23c8.58,0,15.76-7.18,15.76-15.76s-7.18-16.08-15.76-16.08h-72.23c-8.9,0-16.11,7.18-16.11,16.08s7.21,15.76,16.11,15.76"/><path class="cls-1" d="M119.38,1949.84h-.75c-35.16,1.1-65.16,12.44-86.68,32.81-20.61,19.54-31.95,46.64-31.95,76.31v.32c0,63.66,47.82,107.5,118.95,109.11,20.02,.83,80.41,.91,105.44,.91,32.38,0,63.28-.13,72.45-.32v-42.24c-13.78,.16-118.63,.32-130.98,.32-14.61,0-29.3-.29-42.48-.88-43.61-1.05-71.83-27.31-71.83-66.9s27.85-66.28,70.92-67.94h.96l.91-.05c.16,0,18.23-.86,43.23-.86,6.97,0,114.66,.13,129.27,.38v-41.52c-9.7-.21-24.85-.35-45.05-.35-55.43,0-131.65,.88-132.4,.91"/></g></svg>