<?xml version="1.0" encoding="utf-8"?>
<!-- Generator: Adobe Illustrator 27.7.0, SVG Export Plug-In . SVG Version: 6.00 Build 0)  -->
<svg version="1.1" xmlns="http://www.w3.org/2000/svg" xmlns:xlink="http://www.w3.org/1999/xlink" x="0px" y="0px"
	 viewBox="0 0 360 180" style="enable-background:new 0 0 360 180;" xml:space="preserve">
<style type="text/css">
	.st0{fill:none;}
	.st1{fill:#002664;}
	.st2{fill:#FFFFFF;}
</style>
<g id="positional_box">
	<rect class="st0" width="360" height="180"/>
</g>
<g id="Ford_Oval">
	<g>
		<g>
			<path class="st1" d="M180,24.5C83.04,24.5,5.32,53.56,5.32,90c0,36.22,78.36,65.5,174.68,65.5c96.32,0,174.68-29.38,174.68-65.5
				C354.68,53.88,276.32,24.5,180,24.5z"/>
		</g>
		<path class="st2" d="M282.62,71.21c0.23-0.4-0.01-0.69-0.52-0.69c-2.63,0-6.09,0.01-8.83,0.01c-0.65,0-0.99,0.08-1.3,0.69
			c-1.01,1.94-13.35,20.43-15.65,24.02c-0.39,0.55-0.86,0.47-0.91-0.15c-0.23-2.13-2.07-4.58-4.98-5.76
			c-2.21-0.9-4.37-1.06-6.62-0.76c-4.06,0.54-7.67,2.69-10.85,5.1c-4.79,3.64-8.92,8.36-14.26,11.85c-2.91,1.9-6.9,3.55-9.57,1.08
			c-2.42-2.24-2.14-7.21,1.55-11.06c0.39-0.4,0.86-0.07,0.78,0.3c-0.35,1.74,0.08,3.47,1.4,4.68c1.61,1.44,3.92,1.61,5.89,0.64
			c2.33-1.16,3.7-3.38,4.1-5.91c0.62-3.93-2.4-7.39-6.18-7.67c-3.07-0.22-6.02,0.85-8.89,3.22c-1.44,1.19-2.26,2.08-3.5,3.85
			c-0.3,0.43-0.77,0.48-0.75-0.16c0.14-5.03-1.94-7.85-6.09-7.95c-3.22-0.08-6.67,1.67-9.36,3.81c-2.94,2.36-5.52,5.5-8.28,8.44
			c-0.34,0.36-0.64,0.35-0.74-0.36c-0.08-3.33-0.92-6.56-2.46-8.85c-0.55-0.8-1.69-1.19-2.66-0.65c-0.45,0.24-2,0.96-3.12,1.86
			c-0.56,0.46-0.78,1.13-0.53,1.98c1.49,4.97,1.16,10.63-0.86,15.41c-1.85,4.37-5.45,8.32-9.69,9.66c-2.79,0.88-5.69,0.45-7.48-2.02
			c-2.46-3.41-1.47-9.35,2.2-14.27c3.24-4.34,7.93-7.09,12.61-8.87c0.55-0.21,0.66-0.57,0.51-1.03c-0.25-0.77-0.66-1.82-0.83-2.29
			c-0.43-1.14-1.63-1.33-3.1-1.17c-3.4,0.4-6.46,1.56-9.49,3.18c-7.93,4.25-11.9,12.46-13.65,16.86c-0.84,2.11-1.56,3.43-2.48,4.6
			c-1.25,1.57-2.82,3-5.69,5.52c-0.26,0.23-0.45,0.71-0.23,1.16c0.29,0.61,1.79,2.71,2.21,2.9c0.47,0.23,1.01-0.09,1.23-0.25
			c2.01-1.36,4.41-3.52,5.59-4.98c0.41-0.5,0.84-0.29,1.05,0.47c1.1,3.91,3.97,7.11,7.94,8.44c7.27,2.45,14.81-1.1,20.5-7.27
			c3.62-3.93,4.92-6.45,6.31-8.17c2.35-2.91,6.98-9.42,12.5-13.61c2.02-1.54,4.42-2.72,5.63-1.94c0.97,0.63,1.28,2.08-0.27,4.9
			c-5.63,10.28-13.91,22.35-15.43,25.28c-0.28,0.51-0.04,0.91,0.5,0.91c2.94-0.01,5.86-0.01,8.54-0.01
			c0.45-0.02,0.64-0.22,0.87-0.54c4.32-6.76,8.38-13.2,12.74-19.85c0.24-0.39,0.47-0.09,0.48,0.08c0.09,1.54,0.47,3.66,1.38,5.04
			c1.65,2.56,3.98,3.66,6.57,3.68c2.06,0.02,3.1-0.29,5.32-1.12c1.81-0.67,3.26-1.55,4.37-2.35c0.65-0.45,0.76,0.3,0.75,0.42
			c-1,5.37,0.23,11.73,5.57,14.36c6.38,3.15,13.4-1.28,17.43-5.27c0.39-0.39,0.82-0.34,0.86,0.48c0.09,1.52,0.77,3.33,2.04,4.6
			c3.38,3.39,10.21,2.05,17.05-3.25c4.4-3.39,9-8.19,13.15-13.27c0.15-0.2,0.27-0.51-0.03-0.83c-0.63-0.66-1.55-1.42-2.18-2
			c-0.29-0.24-0.71-0.17-0.95,0.01c-4.26,4.05-8.09,8.67-13.64,12.49c-1.87,1.3-4.85,2.36-6.19,0.55c-0.52-0.7-0.46-1.68,0.05-2.95
			C255.71,112.46,281.29,73.51,282.62,71.21z M248.8,103.87c0.05,0.3,0.44,0.59,0.82,0.72c0.13,0.05,0.21,0.15,0.06,0.46
			c-1.09,2.33-2.09,3.68-3.45,5.7c-1.25,1.87-2.67,3.33-4.38,4.74c-2.58,2.14-6.16,4.46-9.13,2.9c-1.32-0.68-1.88-2.52-1.86-4.02
			c0.07-4.19,1.93-8.5,5.37-12.73c4.2-5.17,8.84-7.85,11.88-6.38c3.15,1.5,2.15,5.15,0.74,8.02
			C248.75,103.5,248.75,103.69,248.8,103.87z"/>
		<path class="st2" d="M97.05,126.05c-9.54,0.07-17.94-5.83-18.91-16.03c-0.54-5.66,1.06-10.7,4.26-14.85
			c2.84-3.7,7.64-6.77,11.71-7.52c1.32-0.24,3.1-0.09,3.84,0.79c1.15,1.34,0.82,2.82-0.33,3.4c-3.1,1.58-6.84,4.3-8.68,8
			c-1.5,3.02-1.8,6.67,0.49,10.14c3.83,5.78,14.51,5.94,24.44-3.28c2.46-2.26,4.66-4.43,6.9-6.99c4.37-5,5.83-6.82,11.64-14.89
			c0.07-0.09,0.09-0.22,0.06-0.27c-0.05-0.1-0.13-0.13-0.3-0.14c-3.88,0.11-7.26,1.26-10.55,3.72c-0.95,0.69-2.31,0.59-2.91-0.32
			c-0.66-1.03-0.19-2.37,0.91-3.12c5.29-3.68,11.07-4.35,16.97-5.34c0,0,0.41,0.02,0.75-0.43c2.42-3.11,4.25-5.91,6.83-9.06
			c2.6-3.19,5.96-6.12,8.53-8.32c3.58-3.08,5.88-4.12,8.22-5.39c0.61-0.32-0.08-0.71-0.27-0.71c-13.04-2.45-26.6-5.62-39.56-0.83
			c-8.97,3.35-12.9,10.46-11.01,15.22c1.34,3.37,5.78,3.92,9.93,1.89c3.45-1.69,6.64-4.41,8.9-7.92c1.27-1.95,3.93-0.54,2.49,2.84
			c-3.79,8.91-11.03,15.98-19.85,16.27c-7.51,0.24-12.35-5.28-12.33-12.09c0.03-13.44,14.99-22.29,30.71-23.61
			c18.94-1.56,36.87,3.48,55.67,5.76c14.4,1.74,28.21,1.78,42.69-1.55c1.71-0.37,2.91,0.72,2.8,2.45c-0.14,2.5-2.08,4.91-6.85,7.51
			c-5.42,2.97-11.1,3.88-17.02,3.92c-14.33,0.12-27.67-5.47-41.49-8.47c0.02,0.6,0.18,1.33-0.33,1.71
			c-7.65,5.64-14.56,11.37-19.2,19.42c-0.16,0.19-0.07,0.36,0.2,0.34c4.02-0.21,7.64-0.32,11.39-0.62c0.66-0.05,0.68-0.22,0.62-0.7
			c-0.33-2.77,0.48-5.94,2.92-8.11c2.5-2.24,5.63-2.49,7.7-0.88c2.36,1.84,2.15,5.14,0.86,7.62c-1.31,2.51-3.48,3.86-5.56,4.51
			c0,0-0.43,0.1-0.37,0.49c0.08,0.63,2.92,2.21,3.16,2.62c0.23,0.4,0.11,1.02-0.32,1.49c-0.3,0.34-0.77,0.67-1.37,0.66
			c-0.49-0.01-0.78-0.18-1.4-0.51c-1.27-0.69-2.86-1.82-3.92-3.16c-0.36-0.45-0.54-0.46-1.45-0.41c-4.06,0.23-10.4,0.85-14.69,1.38
			c-1.04,0.13-1.19,0.32-1.41,0.68c-6.84,11.28-14.15,23.45-22.17,31.6C111.79,123.69,104.64,125.99,97.05,126.05z M162.25,75.91
			c0.11,0.58,0.33,0.69,0.6,0.64c1.3-0.26,2.73-1.33,3.57-2.58c0.77-1.13,1.13-2.75,0.37-3.4c-0.68-0.59-1.79-0.42-2.61,0.31
			C162.54,72.32,162.04,74.38,162.25,75.91L162.25,75.91"/>
		<path class="st2" d="M180,149.8c-92.44,0-167.38-26.76-167.38-59.78C12.61,57,87.55,30.24,180,30.24
			c92.44,0,167.37,26.76,167.37,59.78C347.37,123.04,272.43,149.8,180,149.8z M180,35.21c-89.2,0-161.5,24.65-161.5,54.81
			c0,30.16,72.3,54.81,161.5,54.81c89.2,0,161.49-24.65,161.49-54.81C341.49,59.86,269.19,35.21,180,35.21z"/>
	</g>
</g>
<g id="grid">
</g>
</svg>
