<?xml version="1.0" encoding="utf-8"?>
<!-- Generator: Adobe Illustrator 24.2.1, SVG Export Plug-In . SVG Version: 6.00 Build 0)  -->
<svg version="1.1" id="Camada_1" xmlns="http://www.w3.org/2000/svg" xmlns:xlink="http://www.w3.org/1999/xlink" x="0px" y="0px"
	 viewBox="0 0 200 125" style="enable-background:new 0 0 200 125;" xml:space="preserve">
<style type="text/css">
	.st0{fill:#003A70;}
</style>
<g>
	<g>
		<g>
			<g>
				<g>
					<path class="st0" d="M101.17,79.59c38.69,0,70.05-16.06,70.05-35.87c0-19.81-31.36-35.87-70.05-35.87
						c-38.69,0-70.05,16.06-70.05,35.87C31.12,63.53,62.48,79.59,101.17,79.59z M114.35,61.99c-1.16,2.71-3.17,8.5-7.8,10.8
						c-1.4,0.69-3.13,1.03-4.68,1.07c-0.34,0.01-0.59,0-0.7,0c-12.94,0-24.97-1.79-35.04-4.86c-0.08-0.03-0.31-0.12-0.39-0.14
						c-0.93-0.31-1.41-0.74-1.41-1.27c0-0.47,0.24-0.82,0.57-1.14c0.14-0.15,0.36-0.32,0.64-0.57c2.32-1.94,9.33-7.02,22.53-12.06
						c4.63-1.77,10.41-3.97,16.48-5.26C108.13,47.82,121.32,45.81,114.35,61.99z M149.75,25.83c0.25-0.44,0.58-0.79,1.18-0.84
						c0.33-0.02,0.78,0.06,1.47,0.48c8.22,5.06,13.1,11.38,13.1,18.23c0,12.38-15.91,23-38.65,27.66c-1.46,0.28-2.43,0.28-2.77-0.09
						c-0.22-0.23-0.28-0.62,0-1.11c0.15-0.26,0.31-0.48,0.61-0.84c12.39-14.6,21.82-36.13,24.5-42.35
						C149.39,26.54,149.6,26.11,149.75,25.83z M88.2,25.38c1.16-2.71,3.18-8.5,7.8-10.79c1.4-0.7,3.13-1.03,4.68-1.07
						c0.35-0.01,0.59,0,0.69,0c12.93,0,24.97,1.79,35.05,4.87c0.08,0.02,0.31,0.11,0.38,0.14c0.93,0.31,1.41,0.74,1.41,1.27
						c0,0.46-0.24,0.81-0.58,1.14c-0.14,0.14-0.35,0.32-0.64,0.56c-2.32,1.95-9.33,7.02-22.52,12.06
						c-4.63,1.77-10.42,3.97-16.48,5.25C94.41,39.56,81.22,41.56,88.2,25.38z M75.49,16.07c1.46-0.28,2.42-0.28,2.76,0.09
						c0.21,0.23,0.28,0.62,0,1.1c-0.16,0.26-0.31,0.49-0.61,0.84c-12.39,14.6-21.82,36.14-24.5,42.35c-0.2,0.43-0.41,0.85-0.57,1.14
						c-0.24,0.44-0.58,0.8-1.17,0.84c-0.33,0.02-0.78-0.06-1.47-0.47c-8.22-5.07-13.11-11.39-13.11-18.24
						C36.83,31.34,52.74,20.71,75.49,16.07z"/>
				</g>
			</g>
		</g>
	</g>
	<g>
		<polygon class="st0" points="20.36,93.93 20.36,104.87 7.96,104.87 7.96,93.93 1.14,93.93 1.14,122.63 7.96,122.63 7.96,111.1 
			20.36,111.1 20.36,122.63 27.19,122.63 27.19,93.93 26.84,93.93 		"/>
		<polygon class="st0" points="52.23,93.93 45.09,105.3 37.95,93.93 29.89,93.93 41.68,112.7 41.68,122.63 48.51,122.63 
			48.51,112.7 60.3,93.93 59.67,93.93 		"/>
		<path class="st0" d="M82.27,93.93v21.04c0,0.8-0.6,1.44-1.45,1.44H69.87V93.93h-6.82v28.7h20.18c1.8,0,3.24-0.53,4.29-1.58
			c1.05-1.05,1.58-2.49,1.58-4.29V93.93h-0.35H82.27z"/>
		<path class="st0" d="M115.61,93.93H95.42v28.7h6.83v-22.48h10.96c0.88,0,1.45,0.69,1.45,1.44v21.04h6.82V99.81
			c0-1.8-0.53-3.24-1.58-4.28C118.85,94.47,117.41,93.93,115.61,93.93z"/>
		<path class="st0" d="M148,93.93h-20.19v28.7H148c1.79,0,3.23-0.53,4.28-1.58c1.05-1.05,1.58-2.49,1.58-4.29V99.81
			c0-1.8-0.53-3.24-1.58-4.29C151.23,94.47,149.79,93.93,148,93.93z M147.04,101.64v13.29c0,0.78-0.57,1.49-1.46,1.49h-10.94v-16.27
			h10.9C146.43,100.15,147.04,100.78,147.04,101.64z"/>
		<path class="st0" d="M165.76,93.93c-1.79,0-3.24,0.53-4.29,1.59c-1.05,1.05-1.58,2.49-1.58,4.28v22.82h6.81v-8.87h12.41v8.87h6.82
			v-28.7H165.76z M179.12,100.15v7.4h-12.41v-5.94c0-0.71,0.55-1.46,1.46-1.46H179.12z"/>
		<rect x="192.59" y="93.93" class="st0" width="6.83" height="28.7"/>
	</g>
</g>
</svg>
