<?xml version="1.0" encoding="utf-8"?>
<!-- Generator: Adobe Illustrator 16.0.0, SVG Export Plug-In . SVG Version: 6.00 Build 0)  -->
<!DOCTYPE svg PUBLIC "-//W3C//DTD SVG 1.1//EN" "http://www.w3.org/Graphics/SVG/1.1/DTD/svg11.dtd">
<svg version="1.1" id="Layer_1" xmlns="http://www.w3.org/2000/svg" xmlns:xlink="http://www.w3.org/1999/xlink" x="0px" y="0px"
	 width="200px" height="85.714px" viewBox="0 0 200 85.714" enable-background="new 0 0 200 85.714" xml:space="preserve">
<g>
	<path fill="#00559B" d="M51.368,44.39c0,17.943-8.263,24.789-24.788,24.789c-16.761,0-24.08-9.209-24.08-23.37v-8.972h18.178v7.321
		c0,4.957,0,9.678,5.43,9.678c5.194,0,4.958-6.373,4.958-9.207V2.842h20.302V44.39L51.368,44.39z"/>
	<path fill="#00559B" d="M69.545,38.726c0.708-4.957,3.541-7.791,8.263-7.791c4.25,0,7.318,3.542,7.318,7.791H69.545L69.545,38.726z
		 M100.943,48.167c0-18.414-7.553-28.801-24.551-28.801c-13.692,0-22.663,11.097-22.663,24.792c0,15.812,10.387,24.787,24.08,24.787
		c9.915,0,18.886-4.724,22.19-14.873H84.656c-1.416,2.123-4.25,3.306-6.846,3.306c-5.193,0-8.026-3.777-8.499-9.207h31.633V48.167
		L100.943,48.167z"/>
	<path fill="#00559B" d="M117.939,38.726c0.709-4.957,3.541-7.791,8.266-7.791c4.248,0,7.316,3.542,7.316,7.791H117.939
		L117.939,38.726z M149.34,48.167c0-18.414-7.555-28.801-24.553-28.801c-13.691,0-22.664,11.097-22.664,24.792
		c0,15.812,10.389,24.787,24.082,24.787c9.678,0,18.885-4.724,22.188-14.873h-15.346c-1.414,2.123-4.248,3.306-6.846,3.306
		c-5.191,0-8.025-3.777-8.496-9.207h31.635V48.167z"/>
	<path fill="#00559B" d="M166.809,44.158c0-5.667,1.182-11.57,7.082-11.57c5.902,0,7.316,5.903,7.316,11.57
		c0,5.428-1.414,11.566-7.316,11.566C167.99,55.72,166.809,49.585,166.809,44.158L166.809,44.158z M150.992,82.873h16.291V62.568
		h0.234c2.359,4.016,6.848,6.375,11.805,6.375c14.398,0,18.178-13.457,18.178-24.553c0-11.804-5.666-25.024-17.941-25.024
		c-8.025,0-10.625,3.305-12.746,6.375l0,0v-5.194h-15.816v62.326H150.992z"/>
</g>
</svg>
