<?xml version="1.0" encoding="utf-8"?>
<!-- Generator: Adobe Illustrator 24.2.1, SVG Export Plug-In . SVG Version: 6.00 Build 0)  -->
<svg version="1.1" id="Camada_1" xmlns="http://www.w3.org/2000/svg" xmlns:xlink="http://www.w3.org/1999/xlink" x="0px" y="0px"
	 viewBox="0 0 237.1 200" style="enable-background:new 0 0 237.1 200;" xml:space="preserve">
<style type="text/css">
	.st0{clip-path:url(#SVGID_2_);fill:#C40E29;}
</style>
<g>
	<defs>
		<rect id="SVGID_1_" y="0.9" width="237.1" height="198.3"/>
	</defs>
	<clipPath id="SVGID_2_">
		<use xlink:href="#SVGID_1_"  style="overflow:visible;"/>
	</clipPath>
	<path class="st0" d="M138.1,108c-0.1,0-0.9,0-1.2,0c-24.3,0-24.3,0-24.3,0c0,5.7,0,5.7,0,5.7c24.7,0,24.7,0,24.7,0
		c0.2,0,1.6-0.1,2-0.1c5.1-0.4,7.4-4.6,7.4-8.4c0-3.7-2.4-7.7-7-8.2c-0.9-0.1-1.6-0.1-2-0.1c-16.1,0-16.1,0-16.1,0
		c-0.7,0-1.5,0-1.9-0.1c-1.2-0.4-1.7-1.4-1.7-2.4c0-0.9,0.5-2,1.9-2.4c0.4-0.1,0.7-0.1,1.6-0.1c23.3,0,23.3,0,23.3,0
		c0-5.6,0-5.6,0-5.6c-23.7,0-23.7,0-23.7,0c-1,0-1.7,0.1-2.4,0.1c-4,0.6-6.9,3.9-6.9,8c0,3.4,2.1,7.4,6.7,8c0.9,0.1,2.1,0.1,2.6,0.1
		c15.7,0,15.7,0,15.7,0c0.2,0,1,0,1.1,0.1c1.7,0.2,2.4,1.5,2.4,2.7C140.4,106.5,139.8,107.7,138.1,108"/>
	<path class="st0" d="M92.1,108c-0.1,0-0.9,0-1.2,0c-24.3,0-24.3,0-24.3,0c0,5.7,0,5.7,0,5.7c24.7,0,24.7,0,24.7,0
		c0.2,0,1.6-0.1,2-0.1c5-0.4,7.4-4.6,7.4-8.4c0-3.7-2.4-7.7-7-8.2c-0.9-0.1-1.6-0.1-2-0.1c-16.1,0-16.1,0-16.1,0
		c-0.7,0-1.5,0-1.9-0.1c-1.2-0.4-1.7-1.4-1.7-2.4c0-0.9,0.5-2,1.7-2.4c0.5-0.1,0.9-0.1,1.7-0.1c23.3,0,23.3,0,23.3,0
		c0-5.6,0-5.6,0-5.6c-23.7,0-23.7,0-23.7,0c-1,0-1.7,0.1-2.4,0.1c-4.1,0.6-6.9,3.9-6.9,8c0,3.4,2.1,7.4,6.7,8
		c0.9,0.1,2.1,0.1,2.6,0.1c15.7,0,15.7,0,15.7,0c0.2,0,1,0,1.1,0.1c1.7,0.2,2.4,1.5,2.4,2.7C94.4,106.5,93.8,107.7,92.1,108"/>
	<rect x="47.7" y="86.2" class="st0" width="6.1" height="27.7"/>
	<polygon class="st0" points="34.3,113.8 34.3,86.2 28.2,86.2 28.2,106.7 7.7,86.2 -0.1,86.2 -0.1,113.8 6,113.8 6,93.1 26.6,113.8 
			"/>
	<polygon class="st0" points="231.1,86.2 231.1,106.7 210.8,86.2 202.8,86.2 202.8,113.8 209,113.8 209,93.1 229.5,113.8 
		237.3,113.8 237.3,86.2 	"/>
	<path class="st0" d="M181.3,103.6h-13.8l6.9-11.1L181.3,103.6z M171.1,86.2l-17.3,27.7h7.5l3.1-5h20.1l3.1,5h7.4l-17.2-27.7H171.1z
		"/>
	<path class="st0" d="M33.9,70.4c12.3-36,46.4-60.2,84.7-60.2c38.4,0,72.4,24.2,84.8,60.2c0,0.4,0,0.4,0,0.4c27.1,0,27.1,0,27.1,0
		c0-3.2,0-3.2,0-3.2c-11.2-1.4-11.2-1.4-11.2-1.4c-7-0.7-8.5-3.9-10.3-7.7c-0.4-0.9-0.4-0.9-0.4-0.9C192.2,23.1,157,0.7,118.6,0.7
		C80.3,0.7,45,23.1,28.8,57.6c-0.5,0.9-0.5,0.9-0.5,0.9c-1.9,3.9-3.4,7-10.2,7.7C6.9,67.6,6.9,67.6,6.9,67.6c0,3.2,0,3.2,0,3.2
		c26.9,0,26.9,0,26.9,0L33.9,70.4z"/>
	<path class="st0" d="M203.3,129.2c0,0.4,0,0.4,0,0.4c-12.3,36-46.4,60.2-84.8,60.2c-38.3,0-72.3-24.2-84.7-60.2
		c-0.1-0.4-0.1-0.4-0.1-0.4c-26.9,0-26.9,0-26.9,0c0,3.2,0,3.2,0,3.2c11.2,1.4,11.2,1.4,11.2,1.4c6.9,0.7,8.4,3.9,10.2,7.7
		c0.5,0.9,0.5,0.9,0.5,0.9c16.2,34.5,51.4,56.9,89.8,56.9c38.4,0,73.7-22.3,89.9-56.9c0.4-0.9,0.4-0.9,0.4-0.9
		c1.9-3.9,3.4-7,10.3-7.7c11.2-1.4,11.2-1.4,11.2-1.4c0-3.2,0-3.2,0-3.2H203.3z"/>
</g>
</svg>
