<?xml version="1.0" standalone="no"?>
<!DOCTYPE svg PUBLIC "-//W3C//DTD SVG 20010904//EN"
 "http://www.w3.org/TR/2001/REC-SVG-20010904/DTD/svg10.dtd">
<svg version="1.0" xmlns="http://www.w3.org/2000/svg"
 width="1500.000000pt" height="1404.000000pt" viewBox="0 0 1500.000000 1404.000000"
 preserveAspectRatio="xMidYMid meet">

<g transform="translate(0.000000,1404.000000) scale(0.100000,-0.100000)"
fill="#000000" stroke="none">
<path d="M7110 12784 c-1289 -19 -2614 -124 -3909 -310 -310 -44 -900 -140
-906 -146 -7 -9 -27 -833 -32 -1363 -9 -925 17 -1551 93 -2250 157 -1455 521
-2688 1109 -3761 654 -1190 1598 -2215 2755 -2990 356 -239 637 -400 1037
-596 l241 -119 154 72 c724 336 1445 814 2093 1387 178 157 583 565 739 744
1456 1669 2142 3641 2247 6458 19 497 -3 2395 -27 2419 -2 3 -109 22 -237 43
-1366 224 -2686 355 -4022 397 -340 11 -1044 19 -1335 15z m975 -244 c1076
-24 1992 -91 3030 -221 534 -67 1350 -190 1367 -207 11 -12 28 -620 35 -1237
5 -572 -4 -1062 -28 -1460 -113 -1881 -521 -3354 -1282 -4630 -730 -1225
-1835 -2283 -3132 -3000 -167 -93 -554 -285 -573 -285 -6 0 -84 35 -174 78
-663 318 -1317 752 -1903 1262 -178 156 -644 624 -796 800 -874 1014 -1442
2121 -1779 3470 -285 1141 -394 2365 -360 4045 7 336 15 689 19 785 l6 175
130 22 c1712 297 3686 443 5440 403z"/>
<path d="M6855 12343 c-1168 -29 -2285 -122 -3430 -284 -482 -68 -707 -105
-715 -120 -25 -39 -34 -1886 -12 -2309 42 -801 118 -1430 248 -2060 313 -1523
917 -2763 1883 -3865 139 -160 544 -563 705 -703 558 -487 1117 -864 1759
-1187 l207 -105 183 91 c840 420 1549 935 2208 1605 289 295 447 477 688 798
998 1323 1538 2898 1696 4951 31 410 37 566 42 1225 5 571 -9 1555 -22 1568
-4 4 -471 78 -710 112 -1396 197 -2786 294 -4150 288 -264 -1 -525 -3 -580 -5z
m979 -730 l107 -6 -3 -55 -3 -54 -363 1 -362 2 -25 -25 c-25 -25 -25 -26 -25
-211 0 -184 0 -186 25 -210 l24 -25 331 0 330 0 0 90 0 90 -185 0 -185 0 0 60
0 60 243 -2 242 -3 0 -205 0 -205 -400 0 -400 0 -50 25 c-80 40 -89 68 -93
280 -4 207 2 268 31 311 32 47 65 68 127 78 66 10 484 14 634 4z m-1084 -286
c0 -273 -1 -284 -22 -327 -18 -34 -35 -51 -71 -69 -42 -21 -69 -25 -220 -32
-95 -5 -248 -10 -342 -11 -183 -3 -203 1 -252 54 -35 37 -43 109 -43 379 l0
249 23 0 c12 0 39 3 60 6 l37 7 0 -272 c0 -342 -16 -316 184 -307 77 3 219 9
315 12 150 6 177 10 193 26 17 17 18 39 18 287 0 302 -7 278 78 280 l42 1 0
-283z m2050 263 c168 -6 322 -13 343 -16 l37 -6 0 -55 0 -56 -162 6 c-90 4
-265 10 -390 14 l-228 6 0 -81 0 -80 63 -6 c34 -3 152 -8 262 -11 110 -3 237
-8 283 -12 l82 -6 0 -53 c0 -29 -3 -55 -7 -57 -5 -3 -98 -1 -208 3 -110 5
-262 11 -337 15 l-138 5 0 -90 0 -90 48 0 c63 0 500 -18 630 -26 l102 -6 0
-53 c0 -30 -4 -56 -8 -59 -5 -3 -98 0 -208 5 -109 5 -307 13 -439 17 l-240 7
-3 340 c-1 187 0 345 3 352 3 10 30 12 107 8 57 -3 240 -10 408 -15z m-3290
-90 c0 -72 43 -61 -380 -90 -173 -12 -332 -24 -352 -27 l-38 -6 0 -83 0 -84
38 5 c37 5 340 28 540 41 l102 7 0 -59 0 -59 -327 -24 c-181 -13 -334 -26
-340 -28 -9 -4 -13 -31 -13 -91 l0 -85 93 7 c371 28 617 46 645 46 l32 0 0
-58 0 -58 -262 -18 c-145 -10 -335 -24 -423 -32 -88 -7 -170 -14 -182 -14
l-23 0 0 349 0 348 58 7 c59 6 496 40 707 55 66 4 121 9 123 10 1 0 2 -26 2
-59z m4493 20 c251 -20 302 -29 356 -62 63 -39 71 -74 71 -328 0 -206 -2 -228
-20 -257 -24 -39 -66 -62 -128 -69 -26 -3 -184 6 -352 19 -317 26 -359 34
-409 80 -46 43 -51 71 -51 304 0 254 5 273 80 311 56 28 130 29 453 2z m934
-85 c131 -14 329 -37 440 -50 112 -14 205 -25 208 -25 3 0 5 -27 5 -61 l0 -61
-37 6 c-21 3 -94 13 -163 21 -69 8 -142 17 -162 20 l-38 5 0 -290 0 -290 -37
0 c-21 0 -48 3 -60 6 l-23 6 0 288 0 288 -22 5 c-13 3 -105 13 -205 23 l-183
18 0 58 c0 51 2 58 19 58 11 0 127 -11 258 -25z m-6686 -16 c60 -30 79 -78 79
-204 0 -146 -38 -211 -140 -244 -26 -8 -619 -81 -662 -81 -5 0 -8 -49 -8 -109
l0 -108 -37 -7 c-80 -13 -73 -47 -73 343 l0 348 38 6 c20 3 156 20 302 36 146
17 279 32 295 34 91 12 167 6 206 -14z m3989 -1259 c368 -18 441 -26 517 -56
164 -65 656 -318 1043 -537 l145 -82 228 -225 c126 -123 224 -226 218 -228
-30 -10 -118 22 -184 67 -218 147 -678 405 -749 420 -24 5 -117 14 -208 20
-286 20 -282 19 -372 63 -165 80 -419 188 -472 202 -45 12 -107 13 -368 5
-172 -5 -386 -13 -474 -18 -115 -6 -180 -5 -225 3 l-64 12 80 12 c196 31 861
99 1140 117 50 3 115 8 145 12 l55 6 -70 24 c-67 24 -83 25 -400 30 -324 5
-905 -8 -1200 -27 l-150 -10 -165 -81 c-178 -87 -409 -211 -810 -434 -140 -78
-266 -148 -279 -155 l-24 -12 21 28 c30 43 56 64 187 151 123 83 216 154 407
315 96 81 120 108 184 206 57 87 82 116 108 127 30 13 361 40 581 48 219 8
966 6 1155 -3z m-1404 -595 c7 -17 -264 -491 -299 -523 -14 -13 -137 -56 -330
-116 -340 -106 -344 -107 -700 -121 -144 -6 -158 -5 -155 10 2 10 41 33 100
58 l98 42 142 175 143 175 115 57 c118 58 329 150 480 208 89 35 162 46 313
49 69 1 89 -2 93 -14z m1318 -315 c34 -15 67 -34 73 -42 14 -16 63 -232 63
-276 0 -37 -29 -90 -142 -263 -71 -110 -91 -148 -90 -173 1 -29 116 -601 127
-634 3 -7 -15 3 -40 24 -43 35 -47 42 -99 203 -90 276 -138 450 -132 474 3 12
31 54 62 92 100 125 194 262 194 284 0 25 -52 132 -72 148 -7 6 -37 18 -66 27
l-53 15 -117 -43 c-64 -24 -199 -76 -300 -116 l-183 -73 -123 22 c-67 11 -125
21 -129 21 -16 0 -4 36 33 100 22 38 44 71 49 74 32 20 837 177 865 169 11 -3
47 -18 80 -33z m1537 -66 c291 -142 624 -336 919 -535 192 -130 198 -136 220
-246 49 -240 76 -608 66 -913 -11 -363 -7 -346 -139 -603 -122 -238 -259 -473
-380 -654 -106 -157 -191 -267 -195 -254 -2 6 1 73 7 149 6 76 11 145 11 153
0 9 39 46 86 85 71 56 95 84 137 154 69 116 234 444 282 560 38 91 39 99 39
205 -2 233 -95 869 -140 958 -21 40 -69 67 -269 151 -263 111 -266 113 -440
256 -257 211 -450 359 -489 375 -54 23 -84 19 -300 -35 l-199 -49 -101 10
c-55 6 -102 11 -103 13 -4 4 356 162 542 238 223 91 221 91 446 -18z m-4141
-69 c-19 -20 -92 -79 -162 -133 -143 -109 -140 -105 -158 -252 -7 -52 -16
-104 -20 -116 -6 -15 -45 -34 -151 -74 -120 -46 -152 -62 -196 -102 -29 -26
-48 -48 -43 -48 6 0 75 16 153 36 l142 36 50 -21 c28 -12 58 -21 68 -21 10 0
103 21 208 46 198 48 199 48 337 148 28 21 52 33 52 28 0 -16 -74 -106 -116
-140 -40 -33 -326 -151 -699 -287 -333 -121 -341 -124 -365 -150 l-23 -25 24
0 c13 0 90 -7 171 -14 171 -16 162 -12 308 -163 162 -167 194 -203 189 -207
-2 -2 -85 -19 -184 -36 -273 -47 -622 -119 -660 -134 -39 -17 -45 -33 -91
-247 -25 -117 -29 -126 -48 -121 -41 10 -242 238 -289 327 -18 34 -18 36 0 64
10 16 66 83 124 148 119 133 128 148 157 250 l20 73 -26 -14 c-35 -18 -55 -41
-81 -93 -15 -31 -49 -62 -137 -127 -65 -47 -123 -86 -129 -86 -7 0 -23 17 -37
38 -20 30 -24 46 -21 84 5 44 10 52 106 145 110 105 317 270 595 471 173 126
175 127 278 263 78 102 120 148 167 180 76 54 498 309 511 309 6 0 -5 -16 -24
-35z m15 -458 c-1 -71 -10 -79 -134 -103 l-33 -7 4 77 c2 54 8 80 18 87 8 5
44 8 80 7 l65 -3 0 -58z m3526 -483 c105 -53 807 -897 898 -1079 59 -117 76
-681 35 -1125 -29 -316 -102 -729 -161 -915 -20 -64 -32 -77 -188 -198 -285
-222 -855 -691 -1145 -941 -258 -223 -272 -240 -415 -504 -43 -78 -81 -145
-85 -147 -11 -7 -177 387 -225 533 -22 69 -17 99 47 276 86 238 383 935 409
960 20 21 7 -42 -41 -203 -77 -257 -146 -516 -174 -654 -36 -171 -34 -245 9
-412 46 -179 47 -181 78 -119 58 113 146 204 522 538 315 280 867 751 999 851
48 37 63 82 80 247 48 447 46 1198 -3 1359 -33 104 -177 296 -404 535 -63 67
-117 130 -121 140 -3 11 -22 98 -41 194 -20 96 -61 286 -91 422 -29 135 -54
252 -54 258 0 12 27 6 71 -16z m-2295 -360 c58 -203 94 -358 94 -411 0 -23
-13 -77 -29 -120 -67 -185 -345 -802 -488 -1088 l-76 -150 -302 -300 c-289
-287 -303 -302 -314 -350 -17 -76 -41 -300 -41 -387 0 -68 4 -83 36 -145 124
-235 578 -844 982 -1318 214 -251 313 -349 432 -427 75 -50 111 -81 127 -109
12 -21 19 -39 16 -39 -3 0 -91 44 -197 97 l-191 97 -144 141 c-423 413 -1150
1308 -1267 1559 -29 61 -30 108 -9 314 21 204 43 349 60 402 10 30 48 85 112
160 418 496 941 1207 1125 1532 l53 93 -2 100 c-1 55 -11 165 -23 245 -15 101
-19 164 -14 208 3 34 8 61 10 59 2 -2 24 -75 50 -163z m-1056 -370 c200 -49
318 -82 334 -95 34 -26 86 -120 86 -154 0 -29 -85 -191 -263 -500 -124 -216
-147 -249 -185 -269 -16 -8 -158 -58 -317 -111 -165 -56 -297 -105 -306 -116
-15 -16 -14 -31 13 -191 17 -103 35 -179 43 -188 13 -12 32 -10 157 18 79 18
154 35 167 39 34 9 22 -7 -48 -65 -52 -43 -70 -51 -195 -86 -108 -30 -144 -36
-161 -28 -20 9 -29 39 -75 229 -30 124 -71 266 -96 330 -46 116 -53 171 -36
282 l7 44 99 -87 c54 -47 108 -89 120 -92 24 -6 267 67 399 119 74 29 87 38
140 102 75 90 239 336 297 447 44 86 45 86 32 135 -7 26 -19 58 -27 69 -14 22
-107 59 -410 165 -189 67 -174 60 -150 69 36 15 63 11 375 -66z m-1075 -266
c-2 -13 -14 -88 -25 -167 -11 -80 -22 -146 -24 -148 -5 -6 -166 190 -166 202
0 22 73 87 124 111 67 31 98 32 91 2z m1040 -285 c-43 -64 -104 -152 -136
-194 l-58 -76 -143 -50 c-168 -59 -208 -70 -191 -53 28 29 598 497 602 494 2
-2 -31 -56 -74 -121z m1810 -495 c13 -73 22 -135 20 -138 -7 -11 -108 -474
-159 -730 -106 -528 -186 -1047 -186 -1203 0 -72 6 -100 49 -227 56 -166 177
-474 314 -800 67 -160 98 -246 106 -297 18 -118 15 -125 -24 -61 -195 324
-575 1076 -722 1427 -53 129 -64 166 -64 211 0 96 108 483 261 940 138 413
366 1028 377 1017 2 -3 15 -65 28 -139z"/>
<path d="M9611 11414 c-20 -15 -21 -22 -21 -214 0 -185 1 -201 20 -218 17 -15
64 -21 344 -42 267 -19 328 -21 340 -11 14 11 16 45 16 217 0 203 0 204 -24
219 -17 11 -91 21 -277 35 -140 10 -281 21 -315 24 -45 4 -67 1 -83 -10z"/>
<path d="M3850 11293 c-168 -19 -311 -36 -317 -38 -10 -3 -13 -37 -13 -125 0
-89 3 -120 13 -120 49 0 631 72 646 80 27 14 31 31 31 125 0 82 -5 95 -40 107
-8 3 -152 -10 -320 -29z"/>
</g>
</svg>
