<?xml version="1.0" encoding="utf-8"?>
<!-- Generator: Adobe Illustrator 27.7.0, SVG Export Plug-In . SVG Version: 6.00 Build 0)  -->
<svg version="1.1" xmlns="http://www.w3.org/2000/svg" xmlns:xlink="http://www.w3.org/1999/xlink" x="0px" y="0px"
	 viewBox="0 0 360 180" style="enable-background:new 0 0 360 180;" xml:space="preserve">
<style type="text/css">
	.st0{fill:none;}
	.st1{display:none;}
	.st2{display:inline;}
	.st3{fill:#002664;}
	.st4{fill:#FFFFFF;}
</style>
<g id="positional_box">
	<rect class="st0" width="360" height="180"/>
</g>
<g id="Ford_Oval" class="st1">
	<g class="st2">
		<g>
			<path class="st3" d="M180,24.5C83.04,24.5,5.32,53.56,5.32,90c0,36.22,78.36,65.5,174.68,65.5c96.32,0,174.68-29.38,174.68-65.5
				C354.68,53.88,276.32,24.5,180,24.5z"/>
		</g>
		<path class="st4" d="M282.62,71.21c0.23-0.4-0.01-0.69-0.52-0.69c-2.63,0-6.09,0.01-8.83,0.01c-0.65,0-0.99,0.08-1.3,0.69
			c-1.01,1.94-13.35,20.43-15.65,24.02c-0.39,0.55-0.86,0.47-0.91-0.15c-0.23-2.13-2.07-4.58-4.98-5.76
			c-2.21-0.9-4.37-1.06-6.62-0.76c-4.06,0.54-7.67,2.69-10.85,5.1c-4.79,3.64-8.92,8.36-14.26,11.85c-2.91,1.9-6.9,3.55-9.57,1.08
			c-2.42-2.24-2.14-7.21,1.55-11.06c0.39-0.4,0.86-0.07,0.78,0.3c-0.35,1.74,0.08,3.47,1.4,4.68c1.61,1.44,3.92,1.61,5.89,0.64
			c2.33-1.16,3.7-3.38,4.1-5.91c0.62-3.93-2.4-7.39-6.18-7.67c-3.07-0.22-6.02,0.85-8.89,3.22c-1.44,1.19-2.26,2.08-3.5,3.85
			c-0.3,0.43-0.77,0.48-0.75-0.16c0.14-5.03-1.94-7.85-6.09-7.95c-3.22-0.08-6.67,1.67-9.36,3.81c-2.94,2.36-5.52,5.5-8.28,8.44
			c-0.34,0.36-0.64,0.35-0.74-0.36c-0.08-3.33-0.92-6.56-2.46-8.85c-0.55-0.8-1.69-1.19-2.66-0.65c-0.45,0.24-2,0.96-3.12,1.86
			c-0.56,0.46-0.78,1.13-0.53,1.98c1.49,4.97,1.16,10.63-0.86,15.41c-1.85,4.37-5.45,8.32-9.69,9.66c-2.79,0.88-5.69,0.45-7.48-2.02
			c-2.46-3.41-1.47-9.35,2.2-14.27c3.24-4.34,7.93-7.09,12.61-8.87c0.55-0.21,0.66-0.57,0.51-1.03c-0.25-0.77-0.66-1.82-0.83-2.29
			c-0.43-1.14-1.63-1.33-3.1-1.17c-3.4,0.4-6.46,1.56-9.49,3.18c-7.93,4.25-11.9,12.46-13.65,16.86c-0.84,2.11-1.56,3.43-2.48,4.6
			c-1.25,1.57-2.82,3-5.69,5.52c-0.26,0.23-0.45,0.71-0.23,1.16c0.29,0.61,1.79,2.71,2.21,2.9c0.47,0.23,1.01-0.09,1.23-0.25
			c2.01-1.36,4.41-3.52,5.59-4.98c0.41-0.5,0.84-0.29,1.05,0.47c1.1,3.91,3.97,7.11,7.94,8.44c7.27,2.45,14.81-1.1,20.5-7.27
			c3.62-3.93,4.92-6.45,6.31-8.17c2.35-2.91,6.98-9.42,12.5-13.61c2.02-1.54,4.42-2.72,5.63-1.94c0.97,0.63,1.28,2.08-0.27,4.9
			c-5.63,10.28-13.91,22.35-15.43,25.28c-0.28,0.51-0.04,0.91,0.5,0.91c2.94-0.01,5.86-0.01,8.54-0.01
			c0.45-0.02,0.64-0.22,0.87-0.54c4.32-6.76,8.38-13.2,12.74-19.85c0.24-0.39,0.47-0.09,0.48,0.08c0.09,1.54,0.47,3.66,1.38,5.04
			c1.65,2.56,3.98,3.66,6.57,3.68c2.06,0.02,3.1-0.29,5.32-1.12c1.81-0.67,3.26-1.55,4.37-2.35c0.65-0.45,0.76,0.3,0.75,0.42
			c-1,5.37,0.23,11.73,5.57,14.36c6.38,3.15,13.4-1.28,17.43-5.27c0.39-0.39,0.82-0.34,0.86,0.48c0.09,1.52,0.77,3.33,2.04,4.6
			c3.38,3.39,10.21,2.05,17.05-3.25c4.4-3.39,9-8.19,13.15-13.27c0.15-0.2,0.27-0.51-0.03-0.83c-0.63-0.66-1.55-1.42-2.18-2
			c-0.29-0.24-0.71-0.17-0.95,0.01c-4.26,4.05-8.09,8.67-13.64,12.49c-1.87,1.3-4.85,2.36-6.19,0.55c-0.52-0.7-0.46-1.68,0.05-2.95
			C255.71,112.46,281.29,73.51,282.62,71.21z M248.8,103.87c0.05,0.3,0.44,0.59,0.82,0.72c0.13,0.05,0.21,0.15,0.06,0.46
			c-1.09,2.33-2.09,3.68-3.45,5.7c-1.25,1.87-2.67,3.33-4.38,4.74c-2.58,2.14-6.16,4.46-9.13,2.9c-1.32-0.68-1.88-2.52-1.86-4.02
			c0.07-4.19,1.93-8.5,5.37-12.73c4.2-5.17,8.84-7.85,11.88-6.38c3.15,1.5,2.15,5.15,0.74,8.02
			C248.75,103.5,248.75,103.69,248.8,103.87z"/>
		<path class="st4" d="M97.05,126.05c-9.54,0.07-17.94-5.83-18.91-16.03c-0.54-5.66,1.06-10.7,4.26-14.85
			c2.84-3.7,7.64-6.77,11.71-7.52c1.32-0.24,3.1-0.09,3.84,0.79c1.15,1.34,0.82,2.82-0.33,3.4c-3.1,1.58-6.84,4.3-8.68,8
			c-1.5,3.02-1.8,6.67,0.49,10.14c3.83,5.78,14.51,5.94,24.44-3.28c2.46-2.26,4.66-4.43,6.9-6.99c4.37-5,5.83-6.82,11.64-14.89
			c0.07-0.09,0.09-0.22,0.06-0.27c-0.05-0.1-0.13-0.13-0.3-0.14c-3.88,0.11-7.26,1.26-10.55,3.72c-0.95,0.69-2.31,0.59-2.91-0.32
			c-0.66-1.03-0.19-2.37,0.91-3.12c5.29-3.68,11.07-4.35,16.97-5.34c0,0,0.41,0.02,0.75-0.43c2.42-3.11,4.25-5.91,6.83-9.06
			c2.6-3.19,5.96-6.12,8.53-8.32c3.58-3.08,5.88-4.12,8.22-5.39c0.61-0.32-0.08-0.71-0.27-0.71c-13.04-2.45-26.6-5.62-39.56-0.83
			c-8.97,3.35-12.9,10.46-11.01,15.22c1.34,3.37,5.78,3.92,9.93,1.89c3.45-1.69,6.64-4.41,8.9-7.92c1.27-1.95,3.93-0.54,2.49,2.84
			c-3.79,8.91-11.03,15.98-19.85,16.27c-7.51,0.24-12.35-5.28-12.33-12.09c0.03-13.44,14.99-22.29,30.71-23.61
			c18.94-1.56,36.87,3.48,55.67,5.76c14.4,1.74,28.21,1.78,42.69-1.55c1.71-0.37,2.91,0.72,2.8,2.45c-0.14,2.5-2.08,4.91-6.85,7.51
			c-5.42,2.97-11.1,3.88-17.02,3.92c-14.33,0.12-27.67-5.47-41.49-8.47c0.02,0.6,0.18,1.33-0.33,1.71
			c-7.65,5.64-14.56,11.37-19.2,19.42c-0.16,0.19-0.07,0.36,0.2,0.34c4.02-0.21,7.64-0.32,11.39-0.62c0.66-0.05,0.68-0.22,0.62-0.7
			c-0.33-2.77,0.48-5.94,2.92-8.11c2.5-2.24,5.63-2.49,7.7-0.88c2.36,1.84,2.15,5.14,0.86,7.62c-1.31,2.51-3.48,3.86-5.56,4.51
			c0,0-0.43,0.1-0.37,0.49c0.08,0.63,2.92,2.21,3.16,2.62c0.23,0.4,0.11,1.02-0.32,1.49c-0.3,0.34-0.77,0.67-1.37,0.66
			c-0.49-0.01-0.78-0.18-1.4-0.51c-1.27-0.69-2.86-1.82-3.92-3.16c-0.36-0.45-0.54-0.46-1.45-0.41c-4.06,0.23-10.4,0.85-14.69,1.38
			c-1.04,0.13-1.19,0.32-1.41,0.68c-6.84,11.28-14.15,23.45-22.17,31.6C111.79,123.69,104.64,125.99,97.05,126.05z M162.25,75.91
			c0.11,0.58,0.33,0.69,0.6,0.64c1.3-0.26,2.73-1.33,3.57-2.58c0.77-1.13,1.13-2.75,0.37-3.4c-0.68-0.59-1.79-0.42-2.61,0.31
			C162.54,72.32,162.04,74.38,162.25,75.91L162.25,75.91"/>
		<path class="st4" d="M180,149.8c-92.44,0-167.38-26.76-167.38-59.78C12.61,57,87.55,30.24,180,30.24
			c92.44,0,167.37,26.76,167.37,59.78C347.37,123.04,272.43,149.8,180,149.8z M180,35.21c-89.2,0-161.5,24.65-161.5,54.81
			c0,30.16,72.3,54.81,161.5,54.81c89.2,0,161.49-24.65,161.49-54.81C341.49,59.86,269.19,35.21,180,35.21z"/>
	</g>
</g>
<g id="grid">
	<g>
		<g>
			<path d="M238.62,98.62h-15.48l-3.32,8.09h-24.36l17.83-33.43h36.09l17.23,33.43h-24.36L238.62,98.62z M236.4,91.1l-5.12-11.34
				h-0.24l-5.76,11.34H236.4z"/>
			<path d="M333.32,87.46h-1.05l-10.4,19.26h-14.85l-10.37-19.16l-0.99,0.01l-0.08,19.15H273.3V73.29h35.05l6.24,10.51h0.3
				l6.83-10.51h33.87v33.43h-22.28L333.32,87.46z"/>
			<path d="M156.1,95.45h-4.96v11.27h-23.17V73.29h33.42c17.53,0,24.68,2.88,25.53,10.32c0.42,3.7-1.6,10.38-9.73,11.04l12.12,12.07
				H164.8L156.1,95.45z M151,88.45h4.64c4.99,0,6.44-1.6,6.47-3.2c0.07-3.1-0.52-5.51-6.22-5.51H151V88.45z"/>
		</g>
		<g>
			<path d="M55.52,36.21c15.47,0.02,33.19,0.82,39.38,1.43c7.86,0.77,9.77,1.14,9.77,8.8c0,6.03,0.28,33.03-1.17,52.17
				c-0.81,10.62-1.51,19.78-15.62,28.2l0,0c-13.84,8.25-25.86,13.81-27.69,14.62c-1.83,0.81-4.24,2.17-4.73,2.27
				c-0.49,0.1-1.29,0.11-1.84,0c-0.54-0.11-3.48-1.56-4.62-2.11c-1.13-0.56-18.03-8.97-27.78-14.78l0,0
				C7.11,118.39,6.41,109.23,5.6,98.61C4.15,79.47,4.43,52.47,4.43,46.43c0-7.65,1.91-8.02,9.77-8.8
				c6.19-0.61,23.92-1.41,39.39-1.43H55.52z M53.58,38.63L53.58,38.63c-15.53,0.02-33.26,0.91-39.15,1.41
				c-6.43,0.55-7.58,0.96-7.59,6.39L6.8,51.36c-0.05,3.87-0.12,9.33-0.12,15.48c0,10.02,0.59,21.85,1.33,31.59
				c0.79,10.35,1.41,18.53,14.45,26.31c10.02,5.97,27.44,14.6,27.61,14.68l0.59,0.29c0.82,0.4,2.99,1.44,3.53,1.63
				c0.2,0.03,0.54,0.03,0.74,0c0.52-0.18,1.96-0.93,3.15-1.46l1.48-0.69c0.12-0.05,12.21-5.58,27.09-14.45
				c13.04-7.78,13.66-15.96,14.45-26.31c0.74-9.73,1.33-21.57,1.33-31.59c0-6.14-0.07-11.6-0.11-15.47l-0.05-4.93
				c-0.02-4.78-0.93-5.84-7.59-6.39c-5.89-0.49-23.62-1.4-39.15-1.41H53.58z"/>
			<path d="M32.63,49.81c11.46,0,17.37,9.78,20.76,16.9l-1.07,5.83c-5.94-12.34-13.02-20.2-21.6-20.2
				c-9.27,0-14.49,11.83-15.83,13.82C17.29,60.08,24.25,49.81,32.63,49.81z"/>
			<path d="M93.43,66.16c-1.34-1.99-6.56-13.82-15.83-13.82c-8.57,0-15.66,7.85-21.6,20.2l-1.07-5.83c3.39-7.12,9.3-16.9,20.76-16.9
				C84.08,49.81,91.04,60.08,93.43,66.16z"/>
			<path d="M84.9,64.46c-7.5-0.14-14,5.65-18.38,19.7l2.46,1.55l-1.02,5.87l-5.6,1.99l-1.1,7.59l2.71-3.45l3.82-0.78l-1.7,4.57
				l-5.26,2.93l-1.87,12.25l0.71,4.6l-5.41,2.09l0,0.01l-4.96-2.1l0.71-4.6l-1.87-12.25l-5.26-2.93l-1.7-4.57l3.82,0.78l2.71,3.45
				l-1.1-7.59l-5.6-1.99L40,85.72l2.46-1.55c-4.38-14.05-10.88-19.85-18.38-19.7c-5.99,0.12-10.45,7.1-9.95,14.5l5.2,0.61
				c1.86,10.42,3.6,23.66,7.52,23.66c1.19,0,1.24-1.87,1.24-3.39c0-3.69-2.22-8.11-2.22-15.14c0-3.25,1.06-6.04,3.45-6.04
				c1.63,0,2.36,0.44,3.13,1.85c-0.65,4.81-0.67,8.94,3.08,11.48c0.83,0.56,2.62,2.25,2.62,2.25s3.09,12.15,3.28,12.96
				c0.17,0.74,0.61,1.75,0.95,2.37c0.49,0.85,3.92,6.84,3.92,6.84s1.17,7.34,1.42,8.61c0.62,3.14,3.81,3.41,6.42,3.42v0h0.19
				c0.06,0,0.11,0,0.17,0c0.06,0,0.11,0,0.17,0h0.19v0c2.61-0.02,5.8-0.29,6.42-3.42c0.25-1.26,1.42-8.61,1.42-8.61
				s3.43-5.99,3.92-6.84c0.33-0.61,0.77-1.63,0.95-2.37c0.19-0.81,3.28-12.96,3.28-12.96s1.79-1.69,2.62-2.25
				c3.75-2.54,3.73-6.67,3.08-11.48c0.77-1.42,1.5-1.85,3.13-1.85c2.39,0,3.45,2.79,3.45,6.04c0,7.03-2.22,11.45-2.22,15.14
				c0,1.52,0.05,3.39,1.24,3.39c3.92,0,5.66-13.24,7.52-23.66l5.2-0.61C95.35,71.57,90.89,64.58,84.9,64.46z M35.71,90.38
				c-2.83-1.23-2.9-3.78-1.95-8.31l3.07,4.02l0.58,4.97C37.41,91.07,36.67,90.8,35.71,90.38z M73.18,90.38
				c-0.96,0.42-1.69,0.69-1.69,0.69l0.58-4.97l3.07-4.02C76.08,86.6,76.01,89.15,73.18,90.38z"/>
			<path d="M97.64,80.57l-0.86,1.63c0,0-3.42,0.36-3.54,0.36c-1.65,13.16-6.99,27.22-12.83,27.22c-1.92,0-1.97-2.98-1.97-6.53
				c0-1.51,0.21-2.86,0.45-4.04c-0.63,1.16-1.7,5.4-1.7,9.02c0,4.23,2.38,6.56,6.45,6.56c4.13,0,7.58-2.02,9.83-5.77
				c-1.46,4.03-4.3,7.53-10.39,11.18c-13.72,8.18-25.16,13.3-25.26,13.35l-0.86,0.38c-0.73,0.33-1.92,0.86-2.67,1.18
				c-0.7-0.32-1.74-0.84-2.21-1.07l-0.55-0.27c-0.14-0.07-16.28-8.06-25.51-13.57c-5.7-3.42-8.55-6.7-10.09-10.41
				c2.24,3.24,5.38,5,9.2,5c4.07,0,6.45-2.33,6.45-6.56c0-3.62-1.07-7.86-1.7-9.02c0.24,1.18,0.45,2.53,0.45,4.04
				c0,3.55-0.05,6.53-1.98,6.53c-5.84,0-11.2-14.12-12.85-27.28c-0.24-0.02-3.32-0.34-3.32-0.34l-1.06-1.98
				c0,0-0.19,6.32,0.02,10.46c0.21,4.15,0.65,7.71,1.98,12.76c0.25,0.96,0.55,1.87,0.88,2.72c1.16,5.56,3.87,10.16,11.61,14.75
				c9.29,5.54,25.41,13.52,25.57,13.6l0.55,0.27c0.51,0.25,1.68,0.83,2.39,1.15l0.15,0.07l0.16-0.07c0.74-0.31,2.06-0.9,2.85-1.25
				l0.86-0.38c0.13-0.06,11.59-5.19,25.35-13.39c8.57-5.08,10.96-10.18,11.93-16.58c0.08-0.29,0.16-0.59,0.23-0.89
				c1.14-5.1,1.61-7.77,1.82-11.92C97.65,87.91,97.65,82.11,97.64,80.57z M13.06,78.91L13.06,78.91c-0.06-3.55-0.08-7.06-0.08-10.36
				c0-5.71,0.06-10.79,0.11-14.39c0-0.01,0.01-3.54,0.05-4.61c0.02-1.04,0.24-2.05,0.66-2.54c0.44-0.56,1.39-0.7,3.65-0.83
				c1.51-0.09,19.69-1.33,33.3-1.33h0.01c0.99,0,1.95,0.01,2.89,0.02c0,0,0.01,0,0.02,0c0.18,0,0.3,0,0.37,0.01
				c0.04,0,0.07,0,0.08,0c0.01,0,0.02,0,0.02,0h0.01c0,0,0,0,0.01,0c0,0,0.01,0,0.02,0c0.01,0,0.01,0,0.03-0.01h1.22l0-0.39l0,0.39
				c0.11,0,0.22,0,0.33,0c11.34,0,34.38,1.16,35.86,1.31c1.91,0.17,3.18,0.44,3.61,0.9c0.43,0.43,0.56,0.93,0.63,2.02
				c0.07,1.02,0.14,5.04,0.14,5.05c0.04,3.6,0.11,8.67,0.11,14.38c0,3.35-0.02,6.91-0.08,10.53l0.78,0.5
				c0.07-3.79,0.09-7.53,0.09-11.03c0-5.71-0.06-10.79-0.11-14.39c0-0.01-0.07-4.02-0.14-5.09c-0.07-1.11-0.23-1.9-0.86-2.53
				c-0.8-0.76-2.15-0.92-4.09-1.13c-1.56-0.15-24.54-1.31-35.93-1.31c-0.11,0-0.23,0-0.34,0h-1.79c-0.94-0.01-1.91-0.02-2.9-0.02
				c-13.66,0-31.85,1.24-33.36,1.33c-2.22,0.14-3.41,0.19-4.21,1.11c-0.62,0.76-0.8,1.9-0.84,3.01c-0.03,1.09-0.05,4.62-0.05,4.62
				c-0.04,3.6-0.11,8.68-0.11,14.39c0,3.45,0.02,7.14,0.09,10.86L13.06,78.91z"/>
		</g>
	</g>
</g>
</svg>
