<?xml version="1.0" encoding="utf-8"?>
<!-- Generator: Adobe Illustrator 24.1.2, SVG Export Plug-In . SVG Version: 6.00 Build 0)  -->
<svg version="1.1" id="Layer_1" xmlns="http://www.w3.org/2000/svg" xmlns:xlink="http://www.w3.org/1999/xlink" x="0px" y="0px"
	 viewBox="0 0 200 200" style="enable-background:new 0 0 200 200;" xml:space="preserve">
<style type="text/css">
	.st0{fill:#12100B;}
</style>
<g>
	<polygon points="197.23,172.82 197.23,177.27 187.98,177.27 187.98,196.81 181.74,196.81 181.74,177.27 172.49,177.27 
		172.49,172.82 	"/>
	<polygon points="175.15,192.36 175.15,196.81 155.32,196.81 155.32,172.82 161.56,172.82 161.56,192.36 	"/>
	<polygon points="55.04,192.36 55.04,196.81 34.21,196.81 34.21,172.82 54.65,172.82 54.65,177.27 40.45,177.27 40.45,182.54 
		53.42,182.54 53.42,186.84 40.45,186.84 40.45,192.36 	"/>
	<path d="M23.03,187.9c2.67-1.45,4.32-4.3,4.32-7.29c0-2.49-0.73-4.43-2.25-5.7c-1.77-1.47-4.2-2.08-8.31-2.08H2.49l-0.26,1.45
		c0,0,0.26,0.43,0.55,0.95c0.44,0.76,0.41,0.99,0.41,1.5v20.09h6.24v-7.68h7.76l4.16,7.68h6.87L23.03,187.9z M19.88,184.01
		c-0.48,0.47-1.05,0.7-1.93,0.7H9.43v-7.31h6.72c2,0,3.07,0.23,3.79,0.81c0.7,0.57,1.05,1.43,1.05,2.7
		C20.99,182.21,20.64,183.27,19.88,184.01z"/>
	<path d="M81.17,172.82v15.91c-1.46-1.83-2.98-3.6-5.56-6.44c-2.1-2.31-6.48-7.04-8.73-9.47h-6.02l-0.25,1.45
		c0,0,0.26,0.43,0.55,0.95c0.33,0.57,0.4,0.84,0.41,1.15l0,20.44l5.61-0.02V180.9c1.12,1.49,3.11,3.79,4.44,5.23
		c2.65,2.86,6.64,7.32,9.76,10.68h5.39v-23.99L81.17,172.82z"/>
	<path d="M142.26,172.82v14.67c0,1.63-0.33,2.61-1.12,3.35c-1.01,0.94-2.68,1.39-5.09,1.39c-2.45,0-4.16-0.45-5.16-1.39
		c-0.79-0.75-1.12-1.72-1.12-3.35v-14.67h-6.94l-0.25,1.45c0,0,0.26,0.43,0.55,0.95c0.32,0.55,0.39,0.82,0.41,1.12l0.01,11.38
		c0,6.27,4.25,9.46,12.44,9.46h0.18c8.2,0,12.22-3.1,12.22-9.46v-14.9L142.26,172.82L142.26,172.82z"/>
	<path d="M109.63,172.82h-7.79c-2.36,4.88-6.48,13.89-10.33,23.99h6.26c0.5-1.37,1.03-2.76,1.56-4.15h12.8
		c0.54,1.4,1.07,2.79,1.56,4.15h6.26C116.11,186.72,112,177.71,109.63,172.82z M101.12,188.14c1.64-4.09,3.29-7.95,4.61-10.95
		c1.32,3,2.98,6.86,4.61,10.95H101.12z"/>
</g>
<g>
	<polygon class="st0" points="108.45,30.57 102.82,41.11 122.55,78 88.73,141.23 54.91,78 94.36,4.22 83.09,4.22 43.63,78 
		83.09,151.77 94.36,151.77 133.82,78 	"/>
	<polygon class="st0" points="116.91,4.22 105.64,4.22 66.18,78 91.55,125.43 97.18,114.89 77.45,78 111.27,14.76 145.09,78 
		105.64,151.77 116.91,151.77 156.37,78 	"/>
</g>
</svg>
