<?xml version="1.0" encoding="utf-8"?>
<!-- Generator: Adobe Illustrator 24.2.1, SVG Export Plug-In . SVG Version: 6.00 Build 0)  -->
<svg version="1.1" id="Camada_1" xmlns="http://www.w3.org/2000/svg" xmlns:xlink="http://www.w3.org/1999/xlink" x="0px" y="0px"
	 viewBox="0 0 120.1 110.2" style="enable-background:new 0 0 120.1 110.2;" xml:space="preserve">
<style type="text/css">
	.st0{fill:#B11829;}
</style>
<g>
	<g>
		<path class="st0" d="M76.5,15.8H53.7v78.5h10.4V58.9h11.5c1,6.5,1.1,33.4,1.1,35.5h10.5C87.5,74.4,87.3,37.3,76.5,15.8 M63.9,49.7
			v-25h5.4h0.1c2,4.4,3.4,10.8,4.2,15.5c0.9,5.1,1.3,9.5,1.3,9.5H63.9z"/>
		<rect x="34" y="15.8" class="st0" width="11.4" height="78.6"/>
		<polygon class="st0" points="5.1,15.8 5.1,94.4 16.5,94.4 16.5,58.8 24.9,58.8 24.9,49.7 16.5,49.7 16.5,24.9 27.2,24.9 
			27.2,15.8 		"/>
		<polygon class="st0" points="87.3,15.8 87.3,24.9 95.4,24.9 95.5,94.3 106.7,94.3 106.7,24.9 115,24.9 115,15.8 		"/>
	</g>
</g>
</svg>
