<?xml version="1.0" encoding="UTF-8"?>
<svg xmlns="http://www.w3.org/2000/svg" xmlns:xlink="http://www.w3.org/1999/xlink" width="800px" height="800px" viewBox="0 0 800 800" version="1.1">
<g id="surface1">
<rect x="0" y="0" width="800" height="800" style="fill:rgb(100%,100%,100%);fill-opacity:1;stroke:none;"/>
<path style=" stroke:none;fill-rule:evenodd;fill:rgb(80%,13.333333%,16.078431%);fill-opacity:1;" d="M 626.738281 535.425781 L 626.738281 630.617188 L 591.699219 630.617188 L 591.699219 535.425781 Z M 514.15625 556.339844 C 533.152344 556.339844 548.722656 567.96875 548.722656 582.238281 C 548.722656 596.5625 533.152344 608.191406 514.15625 608.191406 C 495.160156 608.191406 479.589844 596.5625 479.589844 582.238281 C 479.589844 567.96875 495.160156 556.339844 514.15625 556.339844 Z M 523.394531 535.425781 L 494.691406 503.035156 L 537.507812 503.035156 L 576.953125 556.339844 C 580.796875 561.789062 583.703125 571.082031 584.117188 580.421875 C 585.523438 609.226562 552.617188 632.949219 514.15625 632.949219 C 475.695312 632.949219 444.191406 609.335938 444.191406 580.421875 C 444.1875 551.460938 472.421875 528.832031 523.394531 535.425781 Z M 358.761719 588.730469 C 358.761719 601.652344 370.75 608.191406 380.609375 608.191406 C 390.472656 608.191406 403.605469 600.925781 403.605469 588.730469 L 403.605469 535.425781 L 436.769531 535.425781 L 436.769531 588.730469 C 436.769531 625.683594 404.070312 633.101562 380.609375 633.101562 C 357.203125 633.101562 323.828125 625.683594 323.828125 588.730469 L 323.828125 535.425781 L 358.761719 535.425781 Z M 253.601562 503.035156 L 334.101562 630.613281 L 293.925781 630.613281 L 279.757812 608.191406 L 201.910156 608.191406 L 187.21875 630.613281 L 146.214844 630.613281 L 221.164062 515.285156 L 209.804688 503.035156 Z M 265.4375 585.25 L 216.699219 585.25 L 241.40625 547.308594 Z M 265.4375 585.25 "/>
<path style=" stroke:none;fill-rule:evenodd;fill:rgb(100%,100%,100%);fill-opacity:1;" d="M 622.472656 405.144531 C 632.335938 405.925781 641.574219 404.933594 651.226562 402.707031 C 656.691406 401.164062 662.035156 399.222656 667.214844 396.890625 C 672.207031 394.359375 677 391.445312 681.542969 388.171875 C 685.9375 384.734375 690.070312 380.96875 693.898438 376.90625 C 697.558594 372.695312 700.90625 368.222656 703.910156 363.519531 C 707.542969 357.339844 710.292969 351.113281 712.636719 344.316406 C 714.191406 338.65625 715.382812 333.160156 716.113281 327.394531 C 716.425781 322.882812 716.527344 318.515625 716.425781 314.054688 C 715.90625 306.632812 714.605469 299.835938 712.636719 292.675781 C 711.230469 288.671875 709.667969 284.722656 707.957031 280.839844 C 704.070312 273.15625 699.503906 266.566406 693.898438 260.027344 C 690.050781 255.996094 685.921875 252.25 681.542969 248.8125 C 675.863281 244.699219 669.777344 241.1875 663.375 238.324219 C 658.074219 236.234375 652.628906 234.535156 647.082031 233.238281 C 639.21875 231.847656 631.234375 231.257812 623.253906 231.476562 C 609.859375 232.5625 596.417969 236.664062 585.105469 244.035156 C 584.328125 244.605469 583.449219 245.328125 582.667969 245.898438 C 591.59375 259.34375 597.511719 275.015625 601.089844 290.640625 C 602.128906 295.671875 602.960938 300.714844 603.476562 305.796875 C 605.1875 321.933594 603.582031 338.285156 599.117188 353.855469 C 595.328125 366.675781 589.460938 379.652344 581.730469 390.605469 C 593.460938 399.023438 608.152344 404.105469 622.472656 405.144531 Z M 558.273438 289.609375 C 556.800781 285.589844 555.066406 281.671875 553.085938 277.878906 C 548.410156 286.703125 545.042969 296.097656 543.53125 306.011719 C 542.703125 311.664062 542.339844 317.378906 542.703125 323.140625 C 543.480469 335.441406 547.433594 347.789062 553.292969 358.640625 C 557.027344 351.117188 559.832031 343.6875 561.542969 335.441406 C 564.398438 321.324219 563.515625 306.371094 559.253906 292.566406 Z M 490.070312 404.320312 C 501.023438 402.503906 510.886719 398.8125 520.59375 393.515625 L 524.324219 391.289062 C 522.246094 388.484375 520.429688 385.265625 518.714844 382.253906 C 512.875 371.921875 508.441406 360.855469 505.53125 349.347656 C 503.878906 342.644531 502.71875 335.828125 502.050781 328.953125 C 501.222656 318.578125 501.640625 308.136719 503.300781 297.859375 C 506.46875 279.230469 513.375 261.738281 524.003906 246.167969 C 519.492188 243.210938 514.820312 240.457031 509.839844 238.382812 C 501.378906 234.851562 492.453125 232.464844 483.269531 231.789062 C 464.164062 230.335938 445.484375 234.746094 429.394531 245.128906 C 440.808594 262.308594 447.871094 282.445312 450.726562 302.84375 C 451.347656 309.019531 451.761719 314.886719 451.714844 321.109375 C 451.402344 333.3125 449.328125 345.199219 445.691406 356.875 C 441.796875 369.277344 436.039062 380.652344 428.980469 391.546875 C 446.835938 403.277344 468.945312 407.640625 490.070312 404.320312 Z M 405.828125 288.832031 C 404.320312 284.671875 402.464844 280.644531 400.277344 276.792969 C 396.960938 283.175781 394.101562 289.765625 392.234375 296.671875 C 390.417969 303.777344 389.28125 311.105469 389.28125 318.472656 C 389.328125 323.144531 389.746094 327.867188 390.628906 332.433594 C 392.578125 341.902344 395.917969 351.035156 400.542969 359.527344 C 403.445312 353.863281 405.9375 347.949219 407.648438 341.824219 C 409.207031 335.644531 410.351562 329.675781 410.714844 323.347656 C 411.078125 314.726562 410.453125 306.117188 408.480469 297.757812 C 407.808594 294.796875 406.820312 291.6875 405.828125 288.832031 Z M 352.171875 287.382812 C 355.542969 274.144531 360.941406 261.898438 368.101562 250.269531 L 370.855469 246.171875 L 371.269531 245.550781 C 361.351562 239.425781 350.714844 235.167969 339.246094 232.9375 C 330.941406 231.328125 321.910156 231.167969 313.5 231.84375 C 301.773438 233.507812 290.609375 237.144531 280.546875 243.371094 C 279.351562 244.152344 278.050781 245.03125 276.964844 245.910156 C 285.949219 259.359375 291.804688 275.03125 295.390625 290.652344 C 297.207031 298.980469 298.234375 307.460938 298.453125 315.984375 C 298.550781 323.714844 297.992188 331.441406 296.792969 339.078125 C 295.925781 344.0625 294.796875 349 293.414062 353.867188 C 289.628906 366.691406 283.761719 379.664062 276.03125 390.617188 C 303.378906 410.1875 343.347656 410.390625 371.015625 391.238281 C 360.425781 375.410156 353.210938 358.019531 350.046875 339.230469 C 347.953125 326.261719 347.832031 313.050781 349.6875 300.042969 C 350.351562 295.785156 351.179688 291.585938 352.171875 287.382812 Z M 252.046875 288.207031 C 250.699219 284.675781 249.140625 281.226562 247.375 277.878906 C 242.757812 286.703125 239.378906 296.097656 237.875 306.011719 C 237.042969 311.664062 236.675781 317.378906 237.042969 323.140625 C 237.824219 335.441406 241.769531 347.789062 247.578125 358.640625 C 250.386719 352.984375 252.769531 347.433594 254.429688 341.304688 C 259.3125 324.332031 258.378906 304.769531 252.046875 288.207031 Z M 198.167969 341.824219 C 196.277344 331.542969 195.597656 321.074219 196.148438 310.632812 C 197.640625 287.550781 205.296875 265.289062 218.3125 246.167969 C 213.84375 243.210938 209.121094 240.457031 204.191406 238.382812 C 195.679688 234.851562 186.753906 232.464844 177.617188 231.789062 C 170.820312 231.269531 164.070312 231.636719 157.320312 232.464844 C 153.070312 233.242188 148.863281 234.230469 144.710938 235.421875 C 138.011719 237.664062 131.558594 240.585938 125.457031 244.144531 C 120.761719 247.136719 116.300781 250.484375 112.117188 254.15625 C 108.042969 257.976562 104.277344 262.109375 100.851562 266.515625 C 96.742188 272.1875 93.242188 278.273438 90.417969 284.683594 C 88.304688 289.980469 86.585938 295.425781 85.28125 300.976562 L 84.554688 305.285156 C 83.796875 311.136719 83.503906 317.035156 83.675781 322.933594 C 83.9375 327.34375 84.554688 331.652344 85.285156 336.011719 C 87.308594 344.523438 90.011719 352.101562 94.058594 359.886719 C 96.160156 363.519531 98.429688 367.050781 100.859375 370.46875 C 105.21875 376.082031 109.890625 380.90625 115.238281 385.578125 C 119.648438 389.035156 124.296875 392.175781 129.148438 394.972656 C 135.53125 398.195312 141.964844 400.785156 148.871094 402.707031 C 153.023438 403.691406 157.382812 404.523438 161.636719 405.039062 C 166.410156 405.351562 171.03125 405.558594 175.753906 405.296875 C 188.394531 404.386719 200.71875 400.925781 211.984375 395.125 L 214.941406 393.511719 L 218.625 391.285156 C 215.148438 386.507812 212.238281 380.90625 209.542969 375.609375 C 204.300781 364.886719 200.480469 353.53125 198.167969 341.824219 Z M 705.988281 420.921875 C 700.980469 424.507812 695.800781 427.851562 690.46875 430.941406 C 684.917969 433.75 679.234375 436.292969 673.445312 438.570312 C 667.472656 440.59375 661.449219 442.359375 655.273438 443.761719 L 648.996094 444.902344 C 637.992188 446.25 626.9375 446.824219 615.929688 445.628906 C 602.714844 444.152344 589.800781 440.6875 577.625 435.351562 C 569.003906 431.441406 560.796875 426.675781 553.125 421.128906 C 544.5625 427.097656 535.738281 432.238281 526.085938 436.285156 C 512.835938 441.742188 498.800781 445.050781 484.507812 446.089844 C 474.535156 446.664062 464.523438 446.144531 454.664062 444.53125 C 434.886719 440.957031 416.261719 433.273438 399.859375 421.542969 C 392.851562 426.476562 385.53125 430.886719 377.695312 434.464844 C 361.503906 441.835938 344.375 445.886719 326.574219 446.300781 C 314.84375 446.453125 303.214844 445.210938 291.792969 442.253906 C 275.707031 438.046875 261.015625 430.886719 247.421875 421.125 C 240.253906 426.105469 233.039062 430.46875 225.203125 434.152344 C 208.957031 441.675781 191.210938 445.9375 173.300781 446.300781 C 165.828125 446.40625 158.507812 445.78125 151.136719 444.898438 C 144.875 443.777344 138.671875 442.339844 132.554688 440.589844 C 126.636719 438.578125 120.816406 436.292969 115.113281 433.742188 C 109.613281 430.9375 104.261719 427.851562 99.078125 424.5 C 92.394531 419.75 86.066406 414.53125 80.128906 408.878906 C 75.878906 404.417969 71.847656 399.757812 68.039062 394.914062 C 64.476562 389.902344 61.152344 384.722656 58.074219 379.398438 C 55.257812 373.835938 52.675781 368.152344 50.34375 362.367188 C 48.324219 356.402344 46.589844 350.339844 45.15625 344.207031 C 44.050781 337.863281 43.253906 331.472656 42.769531 325.054688 L 42.5625 318.511719 L 42.769531 311.921875 L 43.234375 305.433594 L 44.066406 299.046875 L 45.15625 292.769531 L 46.660156 286.539062 L 48.320312 280.519531 L 50.34375 274.605469 L 52.679688 268.742188 L 55.273438 263.085938 L 58.074219 257.582031 L 61.1875 252.183594 L 64.457031 247.039062 L 68.039062 242.007812 L 71.828125 237.238281 C 75.875 232.519531 80.128906 228.105469 84.542969 223.84375 C 89.226562 219.835938 94.074219 216.027344 99.078125 212.425781 C 104.285156 209.113281 109.636719 206.03125 115.113281 203.183594 C 120.820312 200.617188 126.636719 198.3125 132.554688 196.277344 C 138.683594 194.5625 144.855469 193.054688 151.136719 192.027344 C 160.328125 190.882812 169.5625 190.257812 178.804688 190.78125 C 190.53125 191.660156 201.949219 193.945312 212.957031 197.789062 C 223.664062 201.703125 233.859375 206.898438 243.320312 213.257812 L 245.445312 214.761719 L 247.160156 216.007812 C 265.484375 202.355469 287.4375 193.800781 310.175781 191.25 C 323.769531 189.957031 337.523438 190.519531 350.914062 193.429688 C 362.878906 196.074219 374.421875 200.351562 385.21875 206.148438 C 390.414062 209.007812 395.34375 212.222656 400.171875 215.59375 C 408.320312 209.46875 417.457031 204.382812 426.851562 200.441406 C 444.859375 192.808594 464.949219 189.640625 484.515625 190.785156 C 490.800781 191.25 497.183594 192.136719 503.304688 193.429688 C 517.960938 196.632812 531.945312 202.378906 544.617188 210.40625 C 547.371094 212.164062 550.226562 214.089844 552.820312 216.007812 C 565.449219 206.707031 579.632812 199.730469 594.707031 195.40625 C 606.125 192.136719 617.699219 190.683594 629.585938 190.523438 L 636.332031 190.683594 L 643.027344 191.207031 L 649.5625 192.035156 C 655.929688 193.136719 662.234375 194.554688 668.460938 196.285156 C 674.449219 198.257812 680.320312 200.5625 686.054688 203.191406 C 691.585938 205.96875 696.957031 209.054688 702.144531 212.433594 C 707.125 216.011719 711.902344 219.746094 716.519531 223.851562 C 720.941406 228.039062 725.121094 232.476562 729.035156 237.140625 C 732.800781 241.960938 736.300781 246.984375 739.511719 252.191406 L 742.527344 257.589844 L 745.332031 263.09375 L 747.769531 268.75 L 750 274.5625 L 751.921875 280.527344 L 753.578125 286.546875 C 754.980469 292.835938 756.074219 299.007812 756.847656 305.441406 C 757.3125 311.984375 757.46875 318.519531 757.3125 325.0625 C 756.839844 331.484375 756.023438 337.878906 754.875 344.214844 L 753.421875 350.445312 L 751.710938 356.46875 L 749.6875 362.378906 C 747.421875 368.183594 744.859375 373.867188 742.003906 379.40625 C 737.914062 386.519531 733.300781 393.320312 728.199219 399.75 C 724.199219 404.4375 719.957031 408.90625 715.484375 413.140625 L 710.808594 417.140625 Z M 705.988281 420.921875 "/>
<path style=" stroke:none;fill-rule:evenodd;fill:rgb(81.568627%,81.960784%,82.745098%);fill-opacity:1;" d="M 249.398438 390.25 C 230.503906 371.355469 219.765625 347.171875 219.765625 318.515625 C 219.765625 291.214844 229.984375 266.925781 247.269531 248.242188 C 264.242188 266.769531 274.726562 291.476562 274.726562 318.515625 C 274.726562 337.304688 271.09375 353.140625 262.265625 368.339844 C 275.402344 326.613281 271.609375 297.234375 255.523438 273.929688 C 258.429688 278.03125 266.316406 301.023438 264.867188 318.511719 C 264.867188 337.875 258.945312 355.886719 248.875 370.832031 Z M 753.53125 318.519531 C 753.53125 386.777344 697.839844 442.359375 629.636719 442.359375 C 601.089844 442.359375 574.722656 432.652344 553.183594 416.152344 C 531.597656 432.453125 505.070312 442.359375 476.265625 442.359375 C 447.820312 442.359375 421.558594 432.652344 399.917969 416.617188 C 378.273438 432.8125 352.171875 442.359375 323.933594 442.359375 C 295.386719 442.359375 269.023438 432.652344 247.480469 416.152344 C 225.941406 432.453125 199.363281 442.359375 170.613281 442.359375 C 102.355469 442.359375 46.667969 386.773438 46.667969 318.519531 C 46.667969 250.269531 102.355469 194.574219 170.613281 194.574219 C 199.363281 194.574219 225.941406 204.496094 247.214844 221.101562 C 268.550781 204.496094 295.175781 194.574219 323.933594 194.574219 C 352.6875 194.574219 378.898438 204.4375 400.226562 220.632812 C 421.960938 203.710938 448.722656 194.539062 476.265625 194.574219 C 505.070312 194.574219 531.597656 204.496094 552.878906 221.101562 C 574.253906 204.496094 600.882812 194.574219 629.636719 194.574219 C 700.433594 194.574219 753.53125 250.113281 753.53125 318.519531 Z M 629.636719 207.554688 C 608.664062 207.554688 589.363281 213.523438 572.699219 223.957031 C 599.945312 202.203125 643.699219 197.484375 693.945312 215.027344 C 675.835938 204.027344 652.476562 196.917969 629.636719 196.917969 C 600.621094 196.917969 573.738281 207.449219 552.769531 224.578125 L 553.082031 238.539062 C 533.097656 219.390625 506.003906 207.558594 476.261719 207.558594 C 456.144531 207.523438 436.433594 213.210938 419.425781 223.960938 C 446.578125 202.207031 490.386719 197.488281 540.570312 215.03125 C 522.457031 204.03125 499.152344 196.921875 476.261719 196.921875 C 447.347656 196.921875 421.195312 206.679688 400.222656 223.855469 L 400.222656 238.542969 C 380.296875 219.394531 353.671875 207.5625 323.929688 207.5625 C 303.796875 207.527344 284.066406 213.214844 267.042969 223.964844 C 294.238281 202.210938 337.996094 197.492188 388.234375 215.035156 C 370.117188 204.035156 346.816406 196.925781 323.929688 196.925781 C 294.964844 196.925781 268.082031 207.457031 247.058594 224.585938 L 247.375 238.546875 C 227.445312 219.398438 200.347656 207.566406 170.613281 207.566406 C 150.464844 207.535156 130.722656 213.222656 113.675781 223.96875 C 140.925781 202.214844 184.675781 197.496094 234.917969 215.039062 C 216.804688 204.039062 193.445312 196.929688 170.613281 196.929688 C 103.65625 196.929688 49.003906 251.632812 49.003906 318.535156 C 49.003906 341.789062 57.097656 367.214844 70.851562 387.71875 C 43.085938 332.964844 57.097656 291.335938 74.800781 265.4375 C 68 280.644531 59.125 300.988281 59.59375 318.535156 C 61.308594 378.898438 109.523438 429.503906 170.617188 429.503906 C 201.597656 429.503906 227.757812 418.503906 248.3125 397.738281 C 268.660156 418.96875 292.484375 429.503906 323.9375 429.503906 C 352.777344 429.511719 380.414062 417.9375 400.644531 397.378906 C 420.429688 417.203125 446.21875 429.503906 476.269531 429.503906 C 507.3125 429.503906 533.421875 418.503906 553.96875 397.738281 C 574.367188 418.96875 598.140625 429.503906 629.640625 429.503906 C 690.734375 429.503906 740.558594 379.625 740.558594 318.535156 C 740.554688 257.847656 690.316406 207.554688 629.636719 207.554688 Z M 385.589844 389.785156 C 368.488281 404.652344 346.59375 412.835938 323.933594 412.832031 C 301.667969 412.464844 291.699219 408.574219 282.203125 403.90625 C 309.398438 425.082031 369.816406 416.878906 385.226562 403.589844 C 368.410156 415.683594 347.28125 422.644531 323.929688 422.644531 C 295.273438 422.644531 271.140625 412.160156 252.148438 393.421875 C 271.664062 373.542969 281.523438 348.578125 281.523438 318.523438 C 281.523438 289.300781 270.058594 262.578125 251.421875 242.699219 C 265.695312 228.371094 293.929688 214.359375 323.933594 214.359375 C 351.234375 214.359375 376.925781 226.765625 395.613281 244.097656 L 381.855469 244.097656 C 364.261719 265.167969 354.757812 289.097656 354.757812 318.523438 C 354.757812 341.777344 362.855469 367.207031 376.558594 387.710938 C 348.792969 332.957031 362.855469 291.328125 380.507812 265.429688 C 373.703125 280.636719 364.933594 301.035156 365.347656 318.523438 C 365.976562 345.671875 378.273438 370.84375 394.933594 390.359375 Z M 400.175781 388.023438 C 382.632812 369.335938 372.199219 345.820312 372.199219 318.519531 C 372.199219 291.21875 382.839844 266.253906 400.222656 247.621094 C 417.925781 266.203125 428.046875 290.855469 428.046875 318.519531 C 428.046875 337.308594 424.414062 353.144531 415.589844 368.34375 C 428.71875 326.617188 424.925781 297.238281 408.839844 273.933594 C 411.75 278.035156 419.640625 301.027344 418.238281 318.515625 C 418.238281 338.449219 411.957031 357.082031 401.316406 372.34375 Z M 405.574219 393.515625 C 423.953125 373.898438 434.894531 347.6875 434.894531 318.515625 C 434.894531 289.292969 424.207031 264.074219 405.574219 244.089844 C 424.257812 225.71875 448.136719 214.351562 476.265625 214.351562 C 503.414062 214.351562 528.84375 224.574219 547.375 241.757812 L 535.4375 241.808594 C 517.695312 263.433594 508.007812 290.546875 508.027344 318.519531 C 508.027344 341.773438 516.125 367.203125 529.878906 387.707031 C 502.113281 332.953125 516.128906 291.324219 533.828125 265.425781 C 527.023438 280.632812 518.195312 300.925781 518.617188 318.519531 C 519.238281 347.585938 529 371.515625 547.785156 391.601562 L 537.042969 390.460938 C 520.640625 404.324219 499.363281 412.835938 476.261719 412.835938 C 453.996094 412.46875 444.910156 408.058594 434.585938 403.910156 C 461.726562 425.085938 522.144531 416.882812 537.558594 403.59375 C 520.742188 415.6875 499.617188 422.648438 476.261719 422.648438 C 446.316406 422.640625 424.832031 410.753906 405.574219 393.515625 Z M 423.429688 392.585938 C 438.269531 403.277344 456.746094 409.507812 476.261719 409.507812 C 495.832031 409.507812 514.980469 402.914062 529.980469 392.378906 C 515.1875 371.878906 505.6875 345.667969 505.6875 318.519531 C 505.6875 291.273438 514.566406 266 529.664062 245.234375 C 514.261719 233.671875 495.515625 227.441406 476.257812 227.488281 C 456.742188 227.488281 438.675781 233.457031 423.835938 244.09375 C 438.105469 264.234375 447.761719 291.6875 447.761719 318.519531 C 447.769531 345.667969 438.21875 372.085938 423.429688 392.585938 Z M 400.542969 367.519531 C 409.957031 352.914062 414.949219 335.898438 414.921875 318.519531 C 414.921875 300.148438 409.828125 282.96875 400.226562 269.109375 C 390.988281 283.695312 385.28125 300.511719 385.28125 318.519531 C 385.28125 336.167969 391.714844 353.449219 400.542969 367.519531 Z M 376.664062 392.222656 C 361.511719 371.152344 352.371094 345.820312 352.371094 318.519531 C 352.363281 291.847656 361.015625 265.894531 377.023438 244.5625 C 362.179688 234.230469 343.234375 227.488281 323.984375 227.488281 C 300.882812 226.1875 275.660156 239.425781 271.976562 245.648438 C 285.679688 265.425781 294.5 292.308594 294.5 318.519531 C 294.5 345.613281 285.679688 370.738281 270.519531 391.546875 C 285.3125 402.96875 303.894531 409.507812 323.929688 409.507812 C 343.496094 409.507812 361.769531 403.277344 376.664062 392.222656 Z M 242.082031 391.601562 L 231.335938 390.460938 C 214.933594 404.324219 193.707031 412.835938 170.613281 412.835938 C 148.34375 412.46875 141.746094 407.175781 128.824219 403.910156 C 156.03125 425.085938 216.4375 416.882812 231.90625 403.59375 C 215.039062 415.6875 193.914062 422.648438 170.613281 422.648438 C 113.3125 422.648438 66.441406 375.882812 66.441406 318.527344 C 66.441406 261.175781 113.257812 214.363281 170.613281 214.363281 C 197.753906 214.363281 223.1875 224.585938 241.71875 241.769531 L 229.730469 241.824219 C 212.65625 262.734375 202.324219 289.519531 202.324219 318.535156 C 202.324219 341.789062 210.472656 367.214844 224.175781 387.71875 C 196.410156 332.964844 210.476562 291.335938 228.121094 265.4375 C 221.324219 280.644531 212.550781 300.941406 212.96875 318.535156 C 213.585938 347.585938 223.292969 371.511719 242.082031 391.601562 Z M 247.632812 366.738281 C 256.761719 352.3125 261.605469 335.589844 261.589844 318.515625 C 261.589844 300.769531 256.457031 284.109375 247.476562 269.882812 C 238.601562 283.796875 232.894531 300.769531 232.894531 318.515625 C 232.894531 335.90625 239.066406 353.035156 247.632812 366.738281 Z M 224.328125 392.378906 C 209.539062 371.878906 199.984375 345.667969 199.984375 318.519531 C 199.984375 291.273438 208.863281 266 223.964844 245.234375 C 208.582031 233.671875 189.851562 227.441406 170.613281 227.488281 C 120.472656 227.488281 79.574219 268.386719 79.574219 318.519531 C 79.574219 368.664062 120.472656 409.507812 170.613281 409.507812 C 190.128906 409.507812 209.335938 402.914062 224.328125 392.378906 Z M 555.105469 390.25 C 536.214844 371.355469 525.46875 347.171875 525.46875 318.515625 C 525.46875 291.214844 535.695312 266.925781 552.921875 248.242188 C 569.949219 266.769531 580.378906 291.476562 580.378906 318.515625 C 580.378906 337.304688 576.75 353.140625 567.921875 368.339844 C 581.109375 326.613281 577.265625 297.234375 561.226562 273.929688 C 564.082031 278.03125 572.027344 301.023438 570.570312 318.511719 C 570.570312 337.875 564.65625 355.886719 554.582031 370.832031 Z M 557.851562 393.417969 C 577.320312 373.539062 587.234375 348.574219 587.234375 318.519531 C 587.234375 289.296875 575.757812 262.574219 557.074219 242.695312 C 571.398438 228.367188 599.585938 214.355469 629.632812 214.355469 C 686.9375 214.355469 733.695312 261.167969 733.695312 318.519531 C 733.695312 337.308594 730.117188 353.144531 721.292969 368.34375 C 734.425781 326.617188 730.582031 297.238281 714.550781 273.933594 C 717.40625 278.035156 725.34375 301.027344 723.886719 318.515625 C 723.886719 370.46875 681.539062 412.828125 629.632812 412.828125 C 607.367188 412.460938 597.402344 408.570312 587.851562 403.902344 C 615.054688 425.078125 675.460938 416.875 690.878906 403.585938 C 674.0625 415.679688 652.9375 422.640625 629.632812 422.640625 C 600.988281 422.640625 576.847656 412.15625 557.851562 393.417969 Z M 576.175781 391.546875 C 591.019531 402.96875 609.601562 409.507812 629.636719 409.507812 C 679.71875 409.507812 720.625 368.660156 720.625 318.519531 C 720.625 268.386719 679.722656 227.488281 629.636719 227.488281 C 606.539062 226.1875 581.316406 239.425781 577.632812 245.648438 C 591.335938 265.425781 600.160156 292.308594 600.160156 318.519531 C 600.15625 345.609375 591.335938 370.734375 576.175781 391.546875 Z M 553.34375 366.738281 C 562.160156 352.675781 567.300781 336.167969 567.300781 318.515625 C 567.300781 300.769531 562.113281 284.109375 553.183594 269.882812 C 544.257812 283.796875 538.597656 300.769531 538.597656 318.515625 C 538.597656 335.90625 544.726562 353.035156 553.34375 366.738281 Z M 553.34375 366.738281 "/>
</g>
</svg>
