<?xml version="1.0" encoding="UTF-8"?>
<svg xmlns="http://www.w3.org/2000/svg" xmlns:xlink="http://www.w3.org/1999/xlink" width="800px" height="800px" viewBox="0 0 800 800" version="1.1">
<g id="surface1">
<path style=" stroke:none;fill-rule:nonzero;fill:rgb(0%,0%,0%);fill-opacity:1;" d="M 796.832031 326.132812 L 530.667969 326.132812 L 530.667969 274.867188 C 530.675781 273.472656 530.128906 272.132812 529.144531 271.144531 C 528.164062 270.15625 526.828125 269.601562 525.433594 269.601562 L 274.601562 269.601562 C 273.207031 269.601562 271.871094 270.15625 270.886719 271.144531 C 269.90625 272.132812 269.359375 273.472656 269.367188 274.867188 L 269.367188 326.132812 L 78.601562 326.132812 C 75.699219 326.132812 72.167969 328.464844 70.699219 331.398438 L 0.667969 468.601562 C -0.832031 471.535156 0.300781 473.832031 3.234375 473.832031 L 269.332031 473.832031 L 269.332031 525.167969 C 269.332031 528.035156 271.667969 530.398438 274.566406 530.398438 L 525.398438 530.398438 C 528.300781 530.398438 530.632812 528.066406 530.632812 525.167969 L 530.632812 473.832031 L 721.398438 473.832031 C 724.300781 473.832031 727.832031 471.5 729.332031 468.601562 L 799.332031 331.398438 C 800.832031 328.5 799.699219 326.132812 796.800781 326.132812 M 713.667969 359.332031 L 672.199219 440.566406 L 497.800781 440.566406 L 497.800781 497.5 L 302.332031 497.5 L 302.332031 440.566406 L 86.5 440.566406 L 128 359.332031 L 302.398438 359.332031 L 302.398438 302.433594 L 497.867188 302.433594 L 497.867188 359.332031 Z M 713.667969 359.332031 "/>
</g>
</svg>
