<?xml version="1.0" encoding="UTF-8"?>
<svg xmlns="http://www.w3.org/2000/svg" xmlns:xlink="http://www.w3.org/1999/xlink" width="800px" height="800px" viewBox="0 0 800 800" version="1.1">
<g id="surface1">
<path style=" stroke:none;fill-rule:nonzero;fill:rgb(96.470588%,82.745098%,23.529412%);fill-opacity:1;" d="M 613.339844 21.339844 L 613.339844 103.429688 L 186.820312 103.429688 L 186.820312 778.582031 C 186.820312 790.328125 196.464844 799.972656 208.238281 799.972656 L 591.921875 799.972656 C 603.726562 799.945312 613.296875 790.386719 613.339844 778.582031 Z M 613.339844 21.339844 "/>
<path style=" stroke:none;fill-rule:nonzero;fill:rgb(18.431373%,61.176471%,36.078431%);fill-opacity:1;" d="M 591.921875 0 L 208.238281 0 C 196.464844 0 186.820312 10.285156 186.820312 22.855469 L 186.820312 34.226562 L 613.339844 34.226562 L 613.339844 22.773438 C 613.289062 10.257812 603.695312 0 591.921875 0 Z M 591.921875 0 "/>
<path style=" stroke:none;fill-rule:nonzero;fill:rgb(100%,100%,100%);fill-opacity:1;" d="M 186.820312 35.105469 L 186.820312 67.527344 Z M 186.820312 35.105469 L 613.339844 35.105469 L 613.339844 67.527344 L 186.820312 67.527344 Z M 186.820312 32.050781 L 186.820312 35.105469 Z M 186.820312 32.050781 "/>
<path style=" stroke:none;fill-rule:nonzero;fill:rgb(81.176471%,25.098039%,21.568627%);fill-opacity:1;" d="M 186.820312 67.976562 L 613.339844 67.976562 L 613.339844 103.429688 L 186.820312 103.429688 Z M 186.820312 67.976562 "/>
<path style=" stroke:none;fill-rule:nonzero;fill:rgb(82.745098%,35.686275%,19.215686%);fill-opacity:1;" d="M 186.820312 67.527344 L 186.820312 67.976562 Z M 186.820312 67.527344 L 613.339844 67.527344 L 613.339844 67.976562 L 186.820312 67.976562 Z M 186.820312 67.527344 "/>
<path style=" stroke:none;fill-rule:nonzero;fill:rgb(0%,0%,0%);fill-opacity:1;" d="M 206.03125 766.835938 L 206.03125 758.730469 L 210.523438 758.730469 C 212.78125 758.730469 217.273438 758.25 217.273438 752.855469 L 217.273438 704.25 C 217.273438 701.328125 217.0625 694.339844 211.425781 694.339844 L 206.246094 694.339844 L 212.117188 684.003906 L 558.332031 684.003906 L 558.332031 694.339844 L 239.808594 694.339844 C 236.886719 694.339844 233.058594 695.003906 233.058594 700.878906 L 233.058594 716.183594 C 233.722656 717.964844 236.433594 718.65625 237.789062 718.65625 C 239.144531 718.65625 243.875 718.417969 243.875 711 L 250.597656 711 L 250.597656 735.980469 L 243.847656 735.980469 C 243.847656 733.722656 241.351562 729.949219 238 729.683594 C 235.289062 729.472656 233.058594 730.375 233.058594 733.988281 L 233.058594 752.882812 C 233.058594 754.902344 235.53125 758.757812 241.375 758.757812 L 245.414062 758.757812 L 245.414062 766.863281 L 206.03125 766.863281 Z M 206.03125 766.835938 "/>
<path style=" stroke:none;fill-rule:nonzero;fill:rgb(0%,0%,0%);fill-opacity:1;" d="M 405.847656 706.058594 C 405.847656 707.867188 408.078125 709.671875 409.433594 710.097656 C 411.027344 708.980469 419.347656 704.25 425.855469 704.25 C 432.367188 704.25 435.769531 707.625 435.769531 712.808594 L 435.769531 737.578125 L 420.011719 737.578125 L 420.011719 718.417969 C 420.011719 715.945312 419.347656 714.164062 417.085938 713.925781 C 414.828125 713.6875 408.980469 718.441406 407.414062 720.703125 L 407.414062 754.902344 C 407.414062 758.066406 410.578125 760.296875 413.261719 760.296875 L 413.261719 766.835938 L 385.808594 766.835938 L 385.808594 760.085938 C 388.519531 760.085938 391.441406 759.179688 391.65625 755.117188 L 391.65625 717.0625 C 391.65625 715.945312 389.847656 712.808594 385.808594 712.808594 L 385.808594 706.03125 L 405.847656 706.03125 Z M 594.261719 706.058594 L 566.808594 706.058594 L 566.808594 712.835938 C 570.847656 712.835938 572.65625 715.972656 572.65625 717.085938 L 572.65625 755.140625 C 572.441406 759.179688 569.492188 760.113281 566.808594 760.113281 L 566.808594 766.863281 L 594.261719 766.863281 L 594.261719 760.296875 C 591.550781 760.296875 588.414062 758.066406 588.414062 754.902344 L 588.414062 717.566406 C 588.414062 714.855469 591.335938 712.835938 594.261719 712.835938 Z M 345.097656 706.058594 C 345.097656 707.867188 347.328125 709.671875 348.683594 710.097656 C 350.277344 708.980469 358.597656 704.25 365.109375 704.25 C 371.644531 704.25 375.019531 707.625 375.019531 712.808594 L 375.019531 737.578125 L 359.261719 737.578125 L 359.261719 718.417969 C 359.261719 715.945312 358.597656 714.164062 356.339844 713.925781 C 354.078125 713.6875 348.234375 718.417969 346.664062 720.675781 L 346.664062 754.875 C 346.664062 758.039062 349.828125 760.269531 352.511719 760.269531 L 352.511719 766.808594 L 325.058594 766.808594 L 325.058594 760.058594 C 327.769531 760.058594 330.695312 759.15625 330.90625 755.089844 L 330.90625 717.035156 C 330.90625 715.917969 329.097656 712.78125 325.058594 712.78125 L 325.058594 706.003906 L 345.097656 706.003906 Z M 527.636719 706.058594 C 527.636719 707.867188 529.894531 709.671875 531.25 710.097656 C 532.847656 708.980469 541.164062 704.25 547.675781 704.25 C 554.183594 704.25 557.585938 707.625 557.585938 712.808594 L 557.585938 737.578125 L 541.828125 737.578125 L 541.828125 718.417969 C 541.828125 715.945312 541.164062 714.164062 538.90625 713.925781 C 536.644531 713.6875 530.800781 718.417969 529.230469 720.675781 L 529.230469 754.875 C 529.230469 758.039062 532.367188 760.269531 535.078125 760.269531 L 535.078125 766.808594 L 507.625 766.808594 L 507.625 760.058594 C 510.335938 760.058594 513.234375 759.15625 513.472656 755.089844 L 513.472656 717.035156 C 513.472656 715.917969 511.667969 712.78125 507.625 712.78125 L 507.625 706.003906 L 527.636719 706.003906 Z M 313.15625 747.96875 L 297.421875 747.96875 L 297.421875 754.050781 C 297.421875 756.523438 296.96875 761.707031 289.554688 761.707031 C 282.140625 761.707031 279.882812 756.738281 279.882812 753.148438 L 279.882812 740.339844 C 279.882812 739.199219 280.785156 737.628906 282.355469 737.628906 L 313.179688 737.628906 L 313.179688 721.207031 C 313.179688 713.765625 311.613281 711.507812 308.449219 708.371094 C 305.289062 705.234375 294.261719 704.332031 289.316406 704.332031 C 276.71875 704.332031 272.65625 706.113281 269.066406 709.0625 C 265.453125 711.984375 264.097656 718.070312 264.097656 722.5625 L 264.097656 748.019531 C 264.097656 754.769531 265.453125 759.5 269.730469 763.777344 C 274.011719 768.03125 287.058594 768.03125 289.769531 768.03125 C 292.480469 768.03125 301.460938 768.269531 308 763.539062 C 314.535156 758.757812 313.15625 747.96875 313.15625 747.96875 Z M 279.855469 720.039062 C 279.855469 716.421875 280.972656 711.027344 288.867188 711.027344 C 296.757812 711.027344 297.421875 716.902344 297.421875 720.039062 L 297.421875 728.140625 C 297.40625 729.632812 296.203125 730.839844 294.710938 730.851562 L 282.566406 730.851562 C 281.238281 730.851562 279.855469 729.738281 279.855469 728.382812 Z M 493.675781 754.902344 L 493.675781 721.152344 C 493.675781 715.972656 493.4375 710.578125 488.042969 706.722656 C 482.648438 702.898438 473.851562 703.136719 470.476562 703.136719 C 467.101562 703.136719 455.859375 703.136719 450.652344 708.980469 C 445.496094 714.855469 446.371094 720.460938 446.371094 722.722656 L 461.121094 722.722656 C 461.121094 722.722656 462.132812 715.066406 464.175781 713.046875 C 466.195312 711.027344 471.59375 708.769531 475.765625 712.382812 C 477.304688 713.710938 477.917969 715.414062 477.917969 717.351562 L 477.917969 727.027344 C 477.917969 727.929688 477.011719 729.285156 475.871094 729.285156 C 475.871094 729.285156 455.382812 729.738281 451.792969 732.421875 C 448.207031 735.132812 445.042969 736.910156 445.042969 746.824219 C 445.042969 756.738281 447.515625 760.5625 450.4375 762.582031 C 453.363281 764.601562 454.71875 766.863281 468.003906 766.863281 L 499.523438 766.863281 L 499.523438 760.296875 C 496.8125 760.296875 493.675781 758.066406 493.675781 754.902344 Z M 477.917969 758.757812 C 477.917969 759.3125 477.011719 760.113281 476.320312 760.113281 L 468.5625 760.113281 C 463.035156 760.113281 461.46875 755.382812 461.46875 752.457031 L 461.46875 743.792969 C 461.46875 735.371094 470.238281 735.558594 473.71875 735.558594 C 477.226562 735.558594 477.890625 738.480469 477.890625 740.417969 L 477.890625 758.757812 Z M 579.484375 694.261719 C 587.378906 694.261719 593.753906 691.867188 593.753906 688.917969 C 593.753906 685.96875 587.378906 683.578125 579.484375 683.578125 C 571.617188 683.578125 565.242188 685.96875 565.242188 688.917969 C 565.242188 691.867188 571.617188 694.261719 579.484375 694.261719 Z M 381.769531 458.066406 L 380.945312 460.085938 L 383.390625 472.125 L 386.6875 483.070312 L 395.695312 502.871094 L 404.4375 518.152344 L 411.375 527.585938 L 411.507812 529.871094 L 411.082031 531.78125 L 409.328125 532.472656 L 394.765625 532.207031 L 380.386719 530.027344 L 365.375 524.6875 L 358.703125 524.289062 L 356.789062 525.113281 L 348.019531 524.15625 L 344.511719 522.933594 L 321.417969 522.375 L 318.550781 523.570312 L 316.503906 524.15625 L 315.8125 525.113281 L 315.945312 527 L 321.550781 535.238281 L 323.730469 536.167969 L 331.117188 540.792969 L 335.371094 542.171875 L 346.957031 541.773438 L 355.539062 539.4375 L 357.214844 540.261719 L 357.984375 541.90625 L 359.394531 542.308594 L 367.046875 542.441406 L 369.226562 543.128906 L 371.804688 542.441406 L 385.996094 544.351562 L 402.257812 548.445312 L 415.015625 553.496094 L 417.351562 555.167969 L 423.519531 555.433594 L 426.8125 554.609375 L 430.453125 546.664062 L 429.894531 543.128906 L 424.476562 532.339844 L 422.03125 525.671875 L 419.425781 511.71875 L 420.089844 498.058594 L 420.914062 494.394531 L 419.929688 491.203125 L 410.949219 484.535156 L 409.035156 476.375 L 403.773438 468.75 L 391.070312 458.492188 L 385.863281 456.445312 L 383.683594 456.789062 Z M 386.660156 179.457031 L 386.289062 175.5 L 380.679688 168.695312 L 378.953125 168.191406 L 377.757812 169.890625 L 377.917969 171.9375 L 376.03125 173.636719 L 375.84375 176.003906 L 381.183594 179.457031 Z M 386.660156 179.457031 "/>
<path style=" stroke:none;fill-rule:nonzero;fill:rgb(0%,0%,0%);fill-opacity:1;" d="M 568.75 348.976562 L 566.835938 348.101562 L 566.835938 350.996094 L 565.320312 352.699219 L 562.582031 356.789062 L 561.042969 357.800781 L 555.0625 365.691406 L 553.015625 370.289062 L 550.785156 370.660156 L 548.738281 369.4375 L 547.542969 363.992188 L 547.859375 357.667969 L 549.242188 351.820312 L 559.5 336.113281 L 563.566406 327.769531 L 564.097656 321.925781 L 563.460938 320.089844 L 562.238281 321.285156 L 560.191406 326.386719 L 557.082031 331.515625 L 547.195312 340.367188 L 539.332031 349.613281 L 537.789062 349.457031 L 537.257812 347.886719 L 537.601562 337.125 L 539.996094 329.285156 L 544.273438 320.570312 L 549.933594 313.554688 L 556.949219 307.574219 L 557.585938 306.164062 L 556.738281 305.527344 L 550.253906 309.300781 L 539.144531 319.027344 L 534.734375 325.035156 L 530.429688 332.871094 L 528.0625 339.199219 L 527.027344 354.050781 L 531.117188 370.660156 L 535.050781 382.753906 L 539.144531 408.34375 L 538.480469 420.648438 L 535.558594 431.570312 L 528.355469 440.632812 L 521.046875 447.300781 L 511.640625 452.589844 L 502.605469 453.121094 L 501.382812 448.710938 L 498.140625 442.359375 L 486.871094 427.34375 L 478.476562 419.320312 L 466.195312 409.40625 L 454.425781 401.410156 L 437.496094 387.246094 L 428.300781 375.765625 L 418.175781 359.207031 L 415.441406 349.296875 L 416.128906 343.128906 L 417.511719 341.933594 L 426.761719 347.0625 L 431.332031 346.878906 L 442.28125 352.722656 L 448.976562 357.691406 L 452.855469 358.226562 L 453.761719 356.523438 L 452.722656 356.339844 L 451.527344 356.871094 L 449.613281 355.648438 L 445.523438 349.164062 L 440.898438 344.910156 L 433.75 342.679688 L 434.253906 341.324219 L 437.84375 341.324219 L 441.960938 342.679688 L 450.675781 347.808594 L 451.714844 346.425781 L 450.011719 344.035156 L 445.390625 339.914062 L 438.1875 336.167969 L 429.496094 332.765625 L 427.796875 331.382812 L 429.496094 330.160156 L 433.378906 332.074219 L 440.578125 333.269531 L 452.351562 338.375 L 459.554688 339.382812 L 464.683594 338.691406 L 471.511719 334.917969 L 473.210938 333.269531 L 473.398438 332.074219 L 471.832031 332.183594 L 470.289062 333.777344 L 460.75 336.140625 L 456.976562 335.609375 L 453.363281 332.738281 L 450.09375 328.941406 L 446.238281 326.070312 L 434.785156 322.960938 L 432.367188 321.417969 L 432.554688 320.089844 L 434.785156 320.410156 L 452.539062 319.585938 L 454.769531 321.417969 L 461.253906 322.296875 L 462.609375 321.285156 L 460.246094 320.59375 L 454.238281 315.8125 L 449.269531 313.207031 L 441.429688 312.199219 L 440.074219 311.375 L 442.8125 309.832031 L 447.25 309.832031 L 459.554688 314.910156 L 465.027344 315.09375 L 467.925781 313.710938 L 468.773438 311.851562 L 466.570312 310.84375 L 461.972656 310.65625 L 458.039062 309.300781 L 454.609375 306.378906 L 450.835938 304.492188 L 445.867188 303.667969 L 441.589844 302.125 L 439.730469 299.707031 L 440.046875 298.511719 L 446.214844 300.105469 L 448.257812 301.621094 L 451.183594 301.964844 L 451.5 300.425781 L 448.445312 298.007812 L 447.570312 295.828125 L 451.6875 296.464844 L 455.566406 298.511719 L 460.535156 299.070312 L 462.449219 302.65625 L 467.550781 305.714844 L 467.84375 305.660156 L 468.960938 305.183594 L 470.289062 304.359375 L 469.652344 303.347656 L 467.738281 303.480469 L 462.609375 295.828125 L 456.628906 290.511719 L 450.492188 287.75 L 445.042969 281.265625 L 441.617188 279.429688 L 441.085938 277.703125 L 442.625 276.667969 L 456.816406 280.734375 L 459.023438 283.84375 L 462.609375 285.703125 L 465.347656 285.703125 L 468.988281 286.710938 L 472.921875 286.023438 L 474.433594 284.667969 L 472.230469 282.78125 L 465.214844 281.425781 L 462.980469 279.539062 L 460.058594 275.285156 L 459.367188 272.523438 L 446.878906 263.671875 L 441.800781 258.890625 L 441.457031 257.507812 L 442.625 257.507812 L 449.296875 262.820312 L 459.738281 269.492188 L 464.335938 273.769531 L 470.820312 276.667969 L 472.015625 274.78125 L 470.316406 274.144531 L 466.753906 270.902344 L 465.71875 267.285156 L 458.863281 260.589844 L 457.320312 256.710938 L 452.03125 248.789062 L 444.832031 242.492188 L 444.511719 240.472656 L 447.0625 240.792969 L 456.472656 245.070312 L 462.449219 245.390625 L 466.886719 247.488281 L 471.671875 248.3125 L 475.738281 247.089844 L 475.417969 245.390625 L 470.769531 244.378906 L 454.027344 236.167969 L 451.714844 233.269531 L 452.539062 232.261719 L 453.761719 233.085938 L 455.59375 233.75 L 458.011719 233.960938 L 470.476562 233.269531 L 474.410156 234.8125 L 478.5 237.710938 L 480.230469 238.242188 L 480.414062 236.699219 L 479.03125 235.316406 L 474.941406 231.542969 L 468.589844 228.300781 L 455.273438 227.265625 L 448.789062 220.4375 L 441.988281 215.332031 L 443.527344 214.136719 L 454.984375 219.105469 L 461.46875 220.648438 L 467.074219 220.648438 L 471.699219 225.804688 L 475.472656 228.007812 L 476.828125 226.628906 L 471.699219 219.082031 L 463.671875 213.289062 L 457.003906 211.691406 L 451.34375 205.765625 L 446.371094 202.871094 L 439.570312 201.144531 L 443.34375 197.902344 L 454.984375 194.128906 L 456.152344 192.585938 L 455.515625 191.390625 L 450.121094 190.195312 L 430.851562 190.566406 L 427.425781 186.765625 L 418.550781 182.007812 L 412.066406 180.972656 L 406.457031 180.972656 L 399.65625 173.265625 L 393.304688 167.5 L 389.398438 173.984375 L 389.210938 176.003906 L 391.042969 178.421875 L 391.230469 180.46875 L 389.902344 181.664062 L 385.570312 182.007812 L 370.050781 178.101562 L 360.644531 179.457031 L 361.335938 181.476562 L 364.601562 181.34375 L 365.929688 181.582031 L 365.878906 183.390625 L 363.992188 183.816406 L 361.519531 183.46875 L 355.035156 185.144531 L 352.804688 185.304688 L 352.113281 186.261719 L 352.910156 187.617188 L 354.585938 187.988281 L 356.152344 187.535156 L 357.960938 186.738281 L 359.820312 186.660156 L 363.753906 186.820312 L 370.316406 188.597656 L 375.550781 190.964844 L 376.03125 192.105469 L 375.5 192.984375 L 373.027344 193.859375 L 371.539062 194.550781 L 359.953125 201.941406 L 345.839844 209.167969 L 334.121094 210.285156 L 332.367188 210.761719 L 331.359375 212.886719 L 330.5625 215.199219 L 329.683594 216.796875 L 325.300781 223.8125 L 323.863281 225.617188 L 323.730469 227.71875 L 323.863281 233.75 L 325.777344 235.449219 L 327.453125 236.328125 L 329.445312 236.167969 L 341.324219 232.207031 L 343.316406 232.289062 L 343.769531 233.5625 L 343.316406 234.757812 L 341.640625 235.636719 L 332.765625 238.640625 L 332.023438 239.886719 L 331.890625 241.242188 L 333.136719 242.359375 L 335.796875 242.707031 L 337.921875 242.707031 L 343.527344 241.90625 L 347.726562 239.675781 L 350.519531 239.117188 L 352.910156 238.640625 L 354.71875 239.222656 L 359.980469 239.4375 L 362.105469 240.6875 L 369.8125 242.332031 L 372.175781 242.679688 L 375.84375 242.039062 L 380.496094 242.359375 L 382.539062 243.15625 L 383.65625 245.042969 L 381.742188 254.027344 L 375.789062 270.527344 L 363.273438 287.933594 L 350.144531 300.53125 L 348.523438 305.847656 L 346.265625 308.53125 L 334.601562 316.6875 L 330.109375 318.972656 L 325.191406 324.898438 L 323.144531 326.175781 L 320.277344 327.609375 L 318.417969 327.1875 L 297.980469 316.6875 L 285.4375 306.671875 L 280.335938 304.835938 L 275.84375 304.011719 L 270.105469 305.234375 L 262.503906 309.964844 L 254.742188 331.492188 L 254.503906 337.445312 L 250.011719 351.953125 L 247.355469 357.082031 L 245.921875 362.183594 L 245.070312 368.535156 L 241.351562 376.90625 L 240.976562 394.101562 L 239.96875 397.820312 L 240.554688 401.0625 L 240.3125 406.378906 L 242.171875 410.65625 L 243.609375 411.667969 L 246.265625 410.84375 L 252.246094 404.359375 L 255.300781 399.414062 L 256.523438 395.347656 L 251.609375 374.011719 L 252.429688 366.222656 L 254.476562 359.925781 L 259.820312 352.722656 L 262.449219 352.484375 L 263.699219 351.714844 L 269.4375 345.761719 L 270.902344 340.445312 L 271.671875 334.28125 L 273.105469 332.472656 L 274.542969 332.050781 L 276.375 332.660156 L 279.03125 334.09375 L 288.441406 345.949219 L 295.429688 351.898438 L 298.699219 353.335938 L 299.707031 355.382812 L 298.699219 356.390625 L 277.835938 352.722656 L 266.144531 352.722656 L 259.367188 357.828125 L 256.496094 362.742188 L 254.320312 368.324219 L 254.078125 372.414062 L 255.328125 379.777344 L 258.199219 389.183594 L 264.921875 418.867188 L 266.171875 427.027344 L 267.367188 429.894531 L 273.347656 435.238281 L 276.585938 440.152344 L 278.847656 445.921875 L 282.328125 450.996094 L 287.429688 455.9375 L 291.152344 458.199219 L 293.59375 458.382812 L 295.640625 457.800781 L 298.273438 452.457031 L 299.121094 449.003906 L 299.121094 441.003906 L 298.140625 438.746094 C 297.953125 438.746094 297.953125 437.285156 297.953125 437.097656 L 297.527344 435.664062 L 292.796875 430.136719 L 287.085938 427.664062 L 285.011719 427.027344 L 284.640625 423.546875 L 284.824219 421.339844 L 280.945312 416.820312 L 278.476562 411.109375 L 274.753906 395.375 L 271.9375 389.421875 L 270.925781 382.25 L 272.546875 377.917969 L 275.417969 376.296875 L 277.652344 376.296875 L 280.945312 379.164062 L 285.675781 382.007812 L 302.445312 389.582031 L 308.183594 392.878906 L 308.183594 395.960938 L 313.472656 399.015625 L 320.25 401.300781 L 334.386719 401.300781 L 333.378906 403.960938 L 332.765625 405.394531 L 338.054688 413.976562 L 350.332031 426.839844 L 366.835938 440.207031 L 382.089844 448.367188 L 398.21875 459.605469 L 404.890625 465.265625 L 411.851562 474.675781 L 412.171875 478.609375 L 413.738281 482.671875 L 418.015625 485.730469 L 421.898438 487.269531 L 424.289062 486.953125 L 428.941406 482.167969 L 429.578125 478.234375 L 432.820312 472.628906 L 434.359375 459.792969 L 435.449219 457.425781 L 437.628906 456.363281 L 439.703125 456.363281 L 439.835938 457.933594 L 438.292969 459.605469 L 435.929688 465.453125 L 435.558594 473.957031 L 434.734375 476.878906 L 425.324219 493.089844 L 423.332031 501.117188 L 422.324219 509.515625 L 423.332031 518.894531 L 424.660156 524.367188 L 435.289062 546.769531 L 439.730469 553.761719 L 445.015625 560.269531 L 446.027344 562.476562 L 446.027344 564.019531 L 445.335938 565.929688 L 434.574219 580.761719 L 423.121094 593.25 L 415.917969 596.492188 L 413.046875 599.257812 L 411.507812 602.339844 L 399.414062 615.839844 L 396.492188 620.914062 L 393.753906 630.320312 L 393.941406 633.75 L 395.988281 635.929688 L 406.75 635.609375 L 414.589844 631.542969 L 415.308594 629.816406 L 416.847656 629.816406 L 419.214844 628.78125 L 421.445312 626.707031 L 422.640625 618.523438 L 421.949219 616.820312 L 421.632812 615.121094 L 422.828125 615.464844 L 424.15625 615.839844 L 425.566406 614.828125 L 427.769531 613.421875 L 433.058594 606.21875 L 434.574219 602.472656 L 434.917969 599.414062 L 436.804688 598.007812 L 441.773438 595.136719 L 443.609375 591.363281 L 454.929688 580.441406 L 466.195312 573.558594 L 467.550781 572.230469 L 468.082031 570.820312 L 469.28125 569.28125 L 468.457031 567.234375 L 467.527344 559.980469 L 466.648438 557.933594 L 460.058594 547.78125 L 459.738281 540.578125 L 462.289062 531.863281 L 464.203125 528.808594 L 466.222656 527.609375 L 480.414062 516.34375 L 492.90625 502.472656 L 500.902344 487.136719 L 502.632812 481.292969 L 503.453125 471.75 L 504.835938 470.394531 L 506.378906 470.023438 L 507.734375 470.902344 L 508.929688 473.746094 L 509.804688 481.449219 L 509.113281 496.332031 L 510.125 502.976562 L 511.347656 504.675781 L 512.355469 504.542969 L 512.863281 503.320312 L 512.171875 500.585938 L 512.171875 495.933594 L 513.578125 492.054688 L 514.910156 482.460938 L 515.785156 480.628906 L 516.820312 480.628906 L 517.644531 481.449219 L 519.1875 487.800781 L 517.859375 499.390625 L 511.824219 512.089844 L 510.125 517.378906 L 510.125 524.394531 L 511.347656 528.007812 L 513.578125 528.007812 L 514.722656 526.414062 L 514.085938 524.714844 L 513.578125 521.660156 L 526.363281 501.167969 L 528.914062 487.324219 L 528.914062 479.484375 L 527.371094 474.011719 L 524.316406 469.757812 L 523.945312 467.710938 L 525.324219 467.046875 L 527.027344 467.871094 L 532.023438 475.578125 L 533.882812 488.972656 L 535.582031 494.3125 L 535.769531 494.445312 L 538.132812 499.734375 L 539.675781 500.292969 L 540.367188 498.910156 L 540.179688 498.058594 L 539.011719 494.152344 L 539.011719 484.402344 L 540.046875 474.675781 L 539.675781 471.9375 L 534.574219 462.53125 L 535.398438 460.988281 L 538.640625 460.324219 L 547.859375 455.726562 L 552.140625 451.953125 L 557.613281 444.59375 L 563.273438 432.632812 L 564.285156 414.882812 L 559.179688 381.238281 L 561.226562 369.785156 L 564.097656 363.488281 L 568.21875 357.003906 L 569.757812 352.882812 L 570.078125 350.835938 Z M 336.378906 225.324219 L 335.050781 226.652344 L 333.136719 227.71875 L 330.585938 228.273438 L 329.710938 227.71875 L 329.390625 225.910156 L 330.136719 223.359375 L 331.941406 220.835938 L 333.429688 220.089844 L 334.785156 220.222656 L 336.40625 221.578125 L 337.152344 222.773438 Z M 343.078125 223.625 L 342.597656 223.863281 L 341.695312 223.917969 L 340.925781 223.546875 L 340.339844 222.855469 L 340.417969 222.003906 L 341.109375 220.886719 L 341.667969 220.515625 L 342.414062 220.515625 L 343.078125 220.675781 L 343.316406 221.367188 L 343.394531 222.5625 Z M 351.316406 231.226562 L 350.625 231.570312 L 349.746094 231.570312 L 349.242188 231.277344 L 348.976562 230.535156 L 349.054688 229.628906 L 349.589844 229.074219 L 350.226562 229.046875 L 350.917969 229.230469 L 351.234375 229.738281 L 351.449219 230.5625 Z M 367.128906 207.308594 L 366.0625 207.601562 L 364.761719 207.917969 L 363.328125 209.113281 L 360.113281 211.054688 L 350.332031 213.15625 L 349.003906 212.996094 L 351.128906 211.1875 L 362.769531 205.738281 L 364.46875 204.917969 L 365.773438 204.730469 L 366.835938 204.96875 L 367.683594 206.324219 Z M 247.726562 399.496094 L 246.347656 399.175781 L 245.65625 397.820312 L 247.035156 397.128906 L 248.234375 397.261719 L 248.550781 398.484375 Z M 265.691406 327.824219 L 263.460938 335.53125 L 261.226562 338.957031 L 260.03125 339.277344 L 259.605469 338.375 L 259.605469 336.566406 L 260.722656 329.445312 L 262.6875 326.070312 L 263.699219 324.875 L 265.1875 324.421875 L 265.746094 325.273438 Z M 275.550781 314.21875 L 273.320312 315.066406 L 271.191406 315.28125 L 269.890625 314.777344 L 269.570312 313.84375 L 269.945312 312.597656 L 271.058594 311.824219 L 273.371094 311.535156 L 274.566406 311.425781 L 275.390625 311.667969 L 276.136719 312.355469 L 276.1875 313.128906 Z M 293.675781 338.664062 L 293.195312 338.71875 L 292.105469 338.027344 L 290.511719 337.152344 L 289.15625 336.035156 L 287.910156 334.785156 L 287.351562 334.09375 L 287.21875 333.085938 L 287.484375 332.554688 L 287.960938 332.605469 L 288.757812 332.738281 L 289.636719 333.535156 L 290.671875 334.441406 L 292.292969 335.425781 L 293.277344 336.59375 L 293.859375 337.46875 L 293.914062 338.242188 Z M 263.222656 363.007812 L 262.398438 364.175781 L 261.574219 364.496094 L 261.015625 364.019531 L 261.042969 362.371094 L 262.449219 359.953125 L 262.875 359.261719 L 263.566406 358.941406 L 264.230469 359.367188 L 264.230469 360.75 L 263.804688 361.734375 Z M 269.015625 406.085938 L 268.722656 406.511719 L 268.402344 406.511719 L 267.816406 405.980469 L 267.339844 405.101562 L 266.597656 403.480469 L 265.53125 401.328125 L 263.910156 394.84375 L 264.335938 387.589844 L 264.628906 387.164062 L 265.132812 387.164062 L 265.664062 387.644531 L 266.171875 389.820312 L 266.222656 392.054688 L 269.28125 404.835938 Z M 289.714844 445.546875 L 290.273438 445.414062 L 291.601562 445.707031 L 292.214844 446.347656 L 292.347656 447.117188 L 292.214844 448.046875 L 291.417969 448.632812 L 290.433594 448.445312 L 289.742188 447.808594 L 289.476562 446.347656 Z M 303.082031 383.097656 L 301.699219 383.179688 L 299.894531 382.886719 L 298.644531 382.328125 L 289.609375 376.429688 L 288.492188 375.605469 L 289.980469 375.550781 L 291.601562 376.136719 L 299.894531 379.378906 L 302.019531 380.363281 L 303.136719 381.371094 L 303.320312 382.300781 Z M 318.550781 343.105469 L 314.882812 353.8125 L 311.851562 357.585938 L 310.335938 358.757812 L 308.714844 359.339844 L 307.785156 358.703125 L 307.707031 357.480469 L 308.980469 356.097656 L 312.039062 350.09375 L 313.976562 342.996094 L 315.785156 339.621094 L 317.007812 337.894531 L 318.015625 337.628906 L 318.949219 338 L 319.214844 339.117188 Z M 392.90625 234.652344 L 394.445312 232.714844 L 396.199219 231.066406 L 397.769531 230.003906 L 398.9375 229.871094 L 399.734375 230.402344 L 399.734375 231.835938 L 399.308594 233.429688 L 395.457031 236.40625 L 393.328125 236.964844 L 392.292969 236.621094 L 392.1875 235.769531 Z M 386.6875 198.699219 L 388.175781 198.191406 L 389.210938 197.714844 L 390.484375 198.167969 L 390.910156 199.097656 L 389.953125 200.210938 L 388.625 200.742188 L 386.976562 200.824219 L 386.367188 199.707031 Z M 373.796875 210.710938 L 373.210938 209.0625 L 374.089844 207.28125 L 376.03125 205.632812 L 379.140625 205.5 L 381.398438 205.925781 L 383.179688 207.121094 L 384.054688 209.222656 L 384.800781 211.453125 L 384.667969 213.367188 L 382.726562 214.136719 L 380.628906 214.136719 L 375.898438 211.90625 Z M 378.765625 235.105469 L 376.402344 235.105469 L 375.976562 234.308594 L 376.5625 233.484375 L 377.277344 233.058594 L 384.746094 228.007812 L 386.445312 226.945312 L 387.058594 226.945312 L 387.136719 228.195312 L 385.996094 229.097656 L 385.464844 230.984375 L 384.003906 233.21875 Z M 350.542969 319.238281 L 350.226562 318.734375 L 350.304688 317.484375 L 351.128906 316.554688 L 360.113281 313.445312 L 369.890625 312.703125 L 372.945312 313.339844 L 375.816406 314.800781 L 378.074219 317.035156 L 378.207031 318.285156 L 377.96875 319.160156 L 376.988281 319.347656 L 375.523438 319.160156 L 373.265625 318.523438 L 371.140625 317.882812 L 357.242188 318.257812 L 355.035156 318.816406 L 352.910156 319.292969 L 351.527344 319.398438 Z M 389 445.097656 L 365.773438 429.207031 L 353.652344 418.042969 L 352.296875 415.945312 L 351.792969 413.445312 L 351.875 411.132812 L 352.75 410.257812 L 354.292969 410.335938 L 359.289062 414.269531 L 370.078125 426.46875 L 389.15625 443.503906 L 389.742188 444.460938 L 390.167969 445.148438 Z M 391.125 339.089844 L 390.140625 339.648438 L 387.777344 339.675781 L 386.207031 339.304688 L 385.332031 338.132812 L 384.558594 337.230469 L 384.558594 335.714844 L 385.703125 334.226562 L 387.457031 332.847656 L 389.132812 332.605469 L 390.671875 333.03125 L 391.125 333.855469 L 391.308594 335.691406 L 391.550781 337.628906 Z M 395.800781 262.6875 L 392.640625 271.964844 L 386.472656 282.804688 L 381.292969 290.085938 L 377.359375 294.207031 L 374.621094 295.269531 L 373.746094 295.214844 L 373.585938 294.527344 L 374.433594 292.585938 L 387.324219 268.484375 L 391.441406 261.867188 L 393.570312 259.847656 L 395.191406 259.554688 L 395.882812 260.695312 Z M 405.289062 237.921875 L 404.785156 239.171875 L 402.976562 241.296875 L 397.953125 243.527344 L 395.375 243.582031 L 393.753906 243.582031 L 393.195312 242.839844 L 393.808594 241.773438 L 395.242188 241.136719 L 400.609375 238.160156 L 401.964844 237.203125 L 404.011719 236.222656 L 405.289062 236.511719 Z M 418.867188 316.128906 L 417.9375 316.398438 L 416.742188 316.316406 L 415.945312 315.519531 L 416.128906 314.855469 L 416.929688 314.296875 L 418.125 314.21875 L 419.160156 315.042969 L 419.1875 315.730469 Z M 420.277344 311.613281 L 418.867188 311.613281 L 418.152344 311.1875 L 418.152344 310.152344 L 418.46875 309.460938 L 419.214844 309.222656 L 420.195312 309.222656 L 421.125 309.832031 L 421.207031 310.550781 Z M 422.828125 304.597656 L 421.898438 305.074219 L 420.914062 305.207031 L 419.90625 304.96875 L 419.585938 304.277344 L 419.585938 303.453125 L 420.410156 302.871094 L 421.445312 302.683594 L 422.429688 302.683594 L 423.011719 303.1875 L 423.144531 303.984375 Z M 424.128906 298.699219 L 422.878906 299.070312 L 421.472656 299.015625 L 420.726562 298.511719 L 420.675781 297.953125 L 420.914062 297.128906 L 422.03125 296.625 L 423.226562 296.414062 L 424.261719 296.945312 L 424.632812 297.902344 Z M 427.132812 290.460938 L 426.441406 291.390625 L 425.804688 292.214844 L 424.5 292.480469 L 423.199219 292.480469 L 422.082031 291.921875 L 421.976562 291.042969 L 422.773438 290.21875 L 423.386719 289.53125 L 424.261719 289.210938 L 425.699219 288.785156 L 426.8125 288.785156 L 427.320312 289.398438 Z M 428.992188 283.550781 L 428.382812 284.507812 L 427.320312 284.691406 L 426.203125 284.984375 L 424.820312 284.933594 L 424.210938 284.242188 L 424.289062 283.230469 L 424.765625 282.539062 L 425.699219 281.902344 L 427.132812 281.691406 L 428.433594 281.984375 L 428.992188 282.753906 Z M 430.960938 278.449219 L 429.496094 279.03125 L 428.382812 279.429688 L 427 279.429688 L 426.441406 279.324219 L 425.75 279.085938 L 425.378906 278.394531 L 425.566406 277.519531 L 426.496094 276.695312 L 427.292969 276.269531 L 428.167969 275.898438 L 429.417969 275.84375 L 430.613281 276.269531 L 431.117188 277.253906 Z M 431.117188 270.527344 L 430.613281 271.351562 L 429.738281 272.070312 L 428.433594 272.546875 L 426.894531 272.707031 L 425.644531 272.496094 L 425.324219 271.777344 L 425.511719 271.191406 L 426.015625 270.792969 L 428.25 269.652344 L 429.3125 269.414062 L 430.613281 269.546875 L 431.117188 270.023438 Z M 427.609375 251.742188 L 428.035156 251.449219 L 428.222656 250.625 L 428.382812 249.960938 L 428.753906 249.480469 L 429.445312 249.457031 L 430.269531 249.695312 L 431.011719 250.121094 L 431.09375 250.996094 L 431.011719 252.429688 L 429.894531 253.386719 L 428.488281 254.105469 L 427.875 254.027344 L 427.265625 253.785156 L 426.652344 253.015625 L 426.574219 252.191406 L 426.8125 251.714844 L 427.609375 251.714844 Z M 426.8125 245.789062 L 426.8125 245.125 L 427.425781 244.484375 L 428.382812 244.140625 L 429.550781 244.085938 L 430.242188 244.300781 L 430.429688 244.882812 L 430.054688 245.523438 L 429.445312 246.1875 L 428.488281 246.398438 L 427.453125 246.398438 Z M 426.867188 264.574219 L 427.691406 264.042969 L 428.675781 263.804688 L 429.65625 263.726562 L 430.347656 263.777344 L 430.613281 264.203125 L 430.613281 264.867188 L 430.296875 265.640625 L 429.65625 266.382812 L 428.007812 267.074219 L 427.210938 266.996094 L 426.46875 266.753906 L 426.28125 265.984375 L 426.414062 265.109375 Z M 431.011719 258.863281 L 430.800781 259.472656 L 429.789062 260.164062 L 428.382812 260.695312 L 427.609375 260.511719 L 426.867188 260.058594 L 426.707031 259.339844 L 426.789062 258.410156 L 427.34375 257.851562 L 428.140625 257.292969 L 429.285156 257.054688 L 430.269531 257.027344 L 430.933594 257.214844 L 431.144531 257.851562 Z M 431.410156 239.25 L 431.277344 240.046875 L 430.746094 240.765625 L 429.894531 241.058594 L 429.125 241.242188 L 428.433594 241.351562 L 427.503906 241.242188 L 427.265625 240.710938 L 427.503906 239.96875 L 428.0625 239.464844 L 428.648438 239.117188 L 429.65625 238.425781 L 430.746094 238.480469 Z M 429.949219 232.449219 L 430.507812 232.765625 L 430.585938 233.5625 L 430.5625 234.28125 L 429.65625 235.078125 L 428.832031 235.398438 L 428.300781 235.316406 L 427.875 235.105469 L 427.875 234.335938 L 427.929688 233.5625 L 428.542969 232.925781 L 429.097656 232.582031 Z M 428.886719 228.59375 L 428.675781 229.445312 L 428.0625 229.871094 L 427.503906 230.214844 L 426.761719 230.320312 L 426.148438 229.921875 L 426.015625 229.285156 L 426.308594 228.726562 L 426.867188 227.984375 L 427.425781 227.71875 L 428.167969 227.664062 L 428.753906 228.035156 Z M 421.285156 213.632812 L 422.640625 213.554688 L 424.527344 212.808594 L 426.253906 212.410156 L 427.691406 212.304688 L 428.433594 212.996094 L 427.425781 214.535156 L 426.386719 214.828125 L 424.660156 215.414062 L 422.457031 216.664062 L 420.328125 217.777344 L 417.859375 218.816406 L 417.035156 218.894531 L 416.34375 218.683594 L 416.421875 217.644531 L 416.050781 216.664062 L 416.050781 214.910156 L 416.847656 212.914062 L 417.964844 211.71875 L 418.65625 210.789062 L 419.398438 209.886719 L 420.515625 209.886719 L 421.3125 210.65625 L 421.101562 212.597656 Z M 420.488281 195.164062 L 420.992188 195.507812 L 420.835938 195.988281 L 420.089844 196.863281 L 419.054688 196.96875 L 417.859375 196.785156 L 417.167969 196.464844 L 416.636719 195.855469 L 417.246094 195.347656 L 418.125 194.976562 L 419.453125 194.925781 Z M 414.109375 187.960938 L 416.421875 187.722656 L 417.671875 188.148438 L 418.65625 188.679688 L 418.707031 189.503906 L 417.859375 189.902344 L 416.582031 189.953125 L 415.308594 189.902344 L 414.351562 189.6875 L 413.5 189.078125 Z M 432.050781 428.78125 L 430.933594 429.789062 L 429.894531 430.960938 L 428.886719 433.085938 L 428.566406 434.574219 L 427.875 435.132812 L 426.546875 434.945312 L 425.910156 434.175781 L 426.894531 427.824219 L 427.265625 425.882812 L 428.140625 423.414062 L 428.78125 422.695312 L 429.761719 422.480469 L 431.066406 422.480469 L 431.625 423.011719 L 432.605469 424.476562 L 432.792969 427.210938 Z M 428.433594 392.1875 L 420.277344 384.160156 L 415.625 378.316406 L 411.535156 371.671875 L 408.292969 363.460938 L 406.9375 357.800781 L 407.574219 354.558594 L 409.40625 354.027344 L 411.320312 354.902344 L 415.414062 368.402344 L 426.734375 385.492188 L 434.226562 395.214844 Z M 433.378906 498.589844 L 432.738281 500.34375 L 430.585938 506.296875 L 430.320312 507.226562 L 430.003906 507.8125 L 429.125 507.8125 L 428.433594 505.714844 L 428.382812 503.347656 L 430.054688 495.667969 L 433.671875 490.777344 L 435.210938 490.59375 L 435.636719 491.972656 Z M 441.457031 543.476562 L 441.136719 543.527344 L 440.554688 543.238281 L 439.4375 541.589844 L 437.761719 538.851562 L 436.964844 537.070312 L 436.488281 534.574219 L 436.488281 532.234375 L 436.566406 530.851562 L 436.910156 530.429688 L 437.65625 530.429688 L 438.425781 530.746094 L 439.464844 531.96875 L 440.207031 534.042969 L 440.710938 536.804688 L 440.765625 539.039062 L 440.792969 539.808594 L 441.21875 540.898438 L 441.640625 543.023438 Z M 407.175781 623.652344 L 406.484375 625.007812 L 405.660156 626.253906 L 404.304688 627.132812 L 403.003906 627.425781 L 402.472656 627.425781 L 401.886719 626.945312 L 401.699219 625.964844 L 401.941406 624.765625 L 402.632812 623.359375 L 404.519531 621.472656 L 405.953125 620.59375 L 406.988281 620.542969 L 407.492188 620.96875 L 407.625 621.949219 Z M 419.90625 603.136719 L 419.214844 604.117188 L 418.335938 604.625 L 417.273438 605.023438 L 416.476562 604.785156 L 415.996094 603.960938 L 416.105469 603.109375 L 416.875 602.152344 L 418.46875 601.195312 L 419.613281 600.984375 L 420.171875 601.328125 L 420.304688 602.152344 Z M 448.285156 574.859375 L 443.503906 581.078125 L 431.625 592.480469 L 430.269531 593.355469 L 429.390625 593.304688 L 428.964844 592.640625 L 429.152344 591.46875 L 444.617188 575.152344 L 445.816406 573.851562 L 447.621094 572.679688 L 448.257812 572.839844 L 448.816406 573.53125 Z M 460.113281 565.71875 L 460.910156 565.453125 L 461.917969 565.480469 L 462.398438 565.71875 L 462.449219 566.25 L 462.023438 566.886719 L 461.09375 567.710938 L 460.269531 568.640625 L 459.714844 568.640625 L 459.074219 568.269531 L 458.941406 567.472656 L 459.207031 566.703125 Z M 494.3125 472.390625 L 494.128906 473.929688 L 493.648438 475.367188 L 493.355469 476.667969 L 492.425781 477.226562 L 491.550781 476.988281 L 491.070312 476.136719 L 490.777344 473.238281 L 488.839844 470.527344 L 488.652344 468.324219 L 489.769531 466.914062 L 490.910156 466.542969 L 492.027344 466.621094 L 492.957031 467.445312 L 494.019531 468.800781 L 494.3125 470.34375 Z M 552.03125 419.398438 L 551.953125 421.578125 L 548.472656 433.988281 L 544.007812 441.21875 L 536.355469 449.296875 L 534.253906 449.828125 L 533.136719 449.296875 L 532.953125 447.808594 L 533.828125 445.816406 L 543.980469 430.507812 L 546.636719 423.464844 L 547.835938 410.734375 L 546.769531 399.148438 L 546.53125 396.96875 L 547.726562 395.75 L 548.5 396.171875 L 549.109375 398.058594 L 551.953125 410.65625 L 551.953125 419.398438 Z M 552.03125 419.398438 "/>
</g>
</svg>
