<?xml version="1.0" encoding="UTF-8"?>
<svg xmlns="http://www.w3.org/2000/svg" xmlns:xlink="http://www.w3.org/1999/xlink" width="800px" height="800px" viewBox="0 0 800 800" version="1.1">
<g id="surface1">
<path style=" stroke:none;fill-rule:nonzero;fill:rgb(69.411765%,9.411765%,16.078431%);fill-opacity:1;" d="M 509.46875 114.699219 L 357.742188 114.699219 L 357.742188 684.574219 L 426.949219 684.574219 L 426.949219 427.585938 L 503.480469 427.585938 C 510.132812 474.773438 510.796875 670.054688 510.796875 685.300781 L 580.671875 685.300781 C 582.667969 540.109375 581.335938 270.78125 509.46875 114.699219 M 425.621094 360.796875 L 425.621094 179.308594 L 462.21875 179.308594 C 475.53125 211.253906 484.847656 257.714844 490.167969 291.832031 C 496.160156 328.855469 498.820312 360.796875 498.820312 360.796875 Z M 425.621094 360.796875 "/>
<path style=" stroke:none;fill-rule:nonzero;fill:rgb(69.411765%,9.411765%,16.078431%);fill-opacity:1;" d="M 226.648438 114.699219 L 302.511719 114.699219 L 302.511719 685.300781 L 226.648438 685.300781 Z M 226.648438 114.699219 "/>
<path style=" stroke:none;fill-rule:nonzero;fill:rgb(69.411765%,9.411765%,16.078431%);fill-opacity:1;" d="M 34.332031 114.699219 L 34.332031 685.300781 L 110.195312 685.300781 L 110.195312 426.859375 L 166.09375 426.859375 L 166.09375 360.796875 L 110.195312 360.796875 L 110.195312 180.761719 L 181.398438 180.761719 L 181.398438 114.699219 Z M 34.332031 114.699219 "/>
<path style=" stroke:none;fill-rule:nonzero;fill:rgb(69.411765%,9.411765%,16.078431%);fill-opacity:1;" d="M 581.335938 114.699219 L 581.335938 180.761719 L 635.238281 180.761719 L 635.90625 684.574219 L 710.4375 684.574219 L 710.4375 180.761719 L 765.667969 180.761719 L 765.667969 114.699219 Z M 581.335938 114.699219 "/>
</g>
</svg>
