<?xml version="1.0" encoding="UTF-8"?>
<svg xmlns="http://www.w3.org/2000/svg" xmlns:xlink="http://www.w3.org/1999/xlink" width="800px" height="800px" viewBox="0 0 800 800" version="1.1">
<g id="surface1">
<path style=" stroke:none;fill-rule:nonzero;fill:rgb(0%,22.745098%,43.921569%);fill-opacity:1;" d="M 404.679688 509.375 C 559.441406 509.375 684.878906 406.59375 684.878906 279.808594 C 684.878906 153.023438 559.441406 50.238281 404.679688 50.238281 C 249.921875 50.238281 124.480469 153.023438 124.480469 279.808594 C 124.480469 406.59375 249.921875 509.375 404.679688 509.375 Z M 457.398438 396.734375 C 452.761719 414.078125 444.71875 451.136719 426.199219 465.855469 C 420.601562 470.273438 413.679688 472.449219 407.480469 472.703125 C 406.121094 472.769531 405.121094 472.703125 404.679688 472.703125 C 352.921875 472.703125 304.800781 461.246094 264.519531 441.601562 C 264.199219 441.40625 263.28125 440.832031 262.960938 440.703125 C 259.238281 438.71875 257.320312 435.96875 257.320312 432.574219 C 257.320312 429.566406 258.28125 427.328125 259.601562 425.28125 C 260.160156 424.320312 261.039062 423.230469 262.160156 421.632812 C 271.441406 409.214844 299.480469 376.703125 352.28125 344.449219 C 370.800781 333.121094 393.921875 319.039062 418.199219 310.785156 C 432.519531 306.046875 485.28125 293.183594 457.398438 396.734375 Z M 599 165.3125 C 600 162.496094 601.320312 160.257812 603.71875 159.9375 C 605.039062 159.808594 606.839844 160.320312 609.601562 163.007812 C 642.480469 195.390625 662 235.839844 662 279.679688 C 662 358.910156 598.359375 426.878906 507.398438 456.703125 C 501.558594 458.496094 497.679688 458.496094 496.320312 456.128906 C 495.441406 454.65625 495.199219 452.160156 496.320312 449.023438 C 496.921875 447.359375 497.558594 445.953125 498.761719 443.648438 C 548.320312 350.207031 586.039062 212.414062 596.761719 172.609375 C 597.558594 169.855469 598.398438 167.105469 599 165.3125 Z M 352.800781 162.433594 C 357.441406 145.089844 365.519531 108.03125 384 93.375 C 389.601562 88.894531 396.519531 86.785156 402.71875 86.527344 C 404.121094 86.464844 405.078125 86.527344 405.480469 86.527344 C 457.199219 86.527344 505.359375 97.984375 545.679688 117.695312 C 546 117.824219 546.921875 118.398438 547.199219 118.59375 C 550.921875 120.574219 552.839844 123.328125 552.839844 126.71875 C 552.839844 129.664062 551.878906 131.902344 550.519531 134.015625 C 549.960938 134.910156 549.121094 136.0625 547.960938 137.601562 C 538.679688 150.078125 510.640625 182.527344 457.878906 214.785156 C 439.359375 226.113281 416.199219 240.191406 391.960938 248.382812 C 377.640625 253.183594 324.878906 265.984375 352.800781 162.433594 Z M 301.960938 102.847656 C 307.800781 101.054688 311.640625 101.054688 313 103.425781 C 313.839844 104.894531 314.121094 107.390625 313 110.464844 C 312.359375 112.128906 311.761719 113.601562 310.558594 115.839844 C 261 209.28125 223.28125 347.136719 212.558594 386.878906 C 211.761719 389.632812 210.921875 392.320312 210.28125 394.175781 C 209.320312 396.992188 207.960938 399.296875 205.601562 399.550781 C 204.28125 399.679688 202.480469 399.167969 199.71875 396.542969 C 166.839844 364.097656 147.28125 323.648438 147.28125 279.808594 C 147.320312 200.574219 210.960938 132.542969 301.960938 102.847656 Z M 301.960938 102.847656 "/>
<path style=" stroke:none;fill-rule:nonzero;fill:rgb(0%,22.745098%,43.921569%);fill-opacity:1;" d="M 81.441406 601.152344 L 81.441406 671.167969 L 31.839844 671.167969 L 31.839844 601.152344 L 4.558594 601.152344 L 4.558594 784.832031 L 31.839844 784.832031 L 31.839844 711.039062 L 81.441406 711.039062 L 81.441406 784.832031 L 108.761719 784.832031 L 108.761719 601.152344 Z M 81.441406 601.152344 "/>
<path style=" stroke:none;fill-rule:nonzero;fill:rgb(0%,22.745098%,43.921569%);fill-opacity:1;" d="M 208.921875 601.152344 L 180.359375 673.921875 L 151.800781 601.152344 L 119.558594 601.152344 L 166.71875 721.28125 L 166.71875 784.832031 L 194.039062 784.832031 L 194.039062 721.28125 L 241.199219 601.152344 Z M 208.921875 601.152344 "/>
<path style=" stroke:none;fill-rule:nonzero;fill:rgb(0%,22.745098%,43.921569%);fill-opacity:1;" d="M 329.078125 601.152344 L 329.078125 735.808594 C 329.078125 740.929688 326.679688 745.023438 323.28125 745.023438 L 279.480469 745.023438 L 279.480469 601.152344 L 252.199219 601.152344 L 252.199219 784.832031 L 332.921875 784.832031 C 340.121094 784.832031 345.878906 781.441406 350.078125 774.71875 C 354.28125 768 356.398438 758.785156 356.398438 747.265625 L 356.398438 601.152344 Z M 329.078125 601.152344 "/>
<path style=" stroke:none;fill-rule:nonzero;fill:rgb(0%,22.745098%,43.921569%);fill-opacity:1;" d="M 462.441406 601.152344 L 381.679688 601.152344 L 381.679688 784.832031 L 409 784.832031 L 409 640.960938 L 452.839844 640.960938 C 456.359375 640.960938 458.640625 645.375 458.640625 650.175781 L 458.640625 784.832031 L 485.921875 784.832031 L 485.921875 638.785156 C 485.921875 627.265625 483.800781 618.046875 479.601562 611.390625 C 475.398438 604.609375 469.640625 601.152344 462.441406 601.152344 Z M 462.441406 601.152344 "/>
<path style=" stroke:none;fill-rule:nonzero;fill:rgb(0%,22.745098%,43.921569%);fill-opacity:1;" d="M 592 601.152344 L 511.238281 601.152344 L 511.238281 784.832031 L 592 784.832031 C 599.160156 784.832031 604.921875 781.441406 609.121094 774.71875 C 613.320312 768 615.441406 758.785156 615.441406 747.265625 L 615.441406 638.785156 C 615.441406 627.265625 613.320312 618.046875 609.121094 611.328125 C 604.921875 604.609375 599.160156 601.152344 592 601.152344 Z M 588.160156 650.496094 L 588.160156 735.550781 C 588.160156 740.542969 585.878906 745.089844 582.320312 745.089844 L 538.558594 745.089844 L 538.558594 640.960938 L 582.160156 640.960938 C 585.71875 640.960938 588.160156 644.992188 588.160156 650.496094 Z M 588.160156 650.496094 "/>
<path style=" stroke:none;fill-rule:nonzero;fill:rgb(0%,22.745098%,43.921569%);fill-opacity:1;" d="M 663.039062 601.152344 C 655.878906 601.152344 650.078125 604.542969 645.878906 611.328125 C 641.679688 618.046875 639.558594 627.265625 639.558594 638.71875 L 639.558594 784.769531 L 666.800781 784.769531 L 666.800781 728 L 716.441406 728 L 716.441406 784.769531 L 743.71875 784.769531 L 743.71875 601.089844 L 663.039062 601.089844 Z M 716.480469 640.960938 L 716.480469 688.320312 L 666.839844 688.320312 L 666.839844 650.304688 C 666.839844 645.761719 669.039062 640.960938 672.679688 640.960938 Z M 716.480469 640.960938 "/>
<path style=" stroke:none;fill-rule:nonzero;fill:rgb(0%,22.745098%,43.921569%);fill-opacity:1;" d="M 770.359375 601.152344 L 797.679688 601.152344 L 797.679688 784.832031 L 770.359375 784.832031 Z M 770.359375 601.152344 "/>
</g>
</svg>
