<?xml version="1.0" encoding="UTF-8"?>
<svg xmlns="http://www.w3.org/2000/svg" xmlns:xlink="http://www.w3.org/1999/xlink" width="800px" height="800px" viewBox="0 0 800 800" version="1.1">
<g id="surface1">
<path style=" stroke:none;fill-rule:nonzero;fill:rgb(0%,33.333333%,60.784314%);fill-opacity:1;" d="M 205.472656 412.929688 C 205.472656 579.84375 172.421875 643.527344 106.320312 643.527344 C 39.277344 643.527344 10 557.859375 10 426.128906 L 10 342.667969 L 82.710938 342.667969 L 82.710938 410.773438 C 82.710938 456.882812 82.710938 500.800781 104.433594 500.800781 C 125.207031 500.800781 124.265625 441.515625 124.265625 415.152344 L 124.265625 26.4375 L 205.472656 26.4375 Z M 205.472656 412.929688 "/>
<path style=" stroke:none;fill-rule:nonzero;fill:rgb(0%,33.333333%,60.784314%);fill-opacity:1;" d="M 278.179688 360.242188 C 281.011719 314.128906 292.34375 287.765625 311.230469 287.765625 C 328.230469 287.765625 340.503906 320.714844 340.503906 360.242188 Z M 403.773438 448.066406 C 403.773438 276.773438 373.558594 180.148438 305.566406 180.148438 C 250.800781 180.148438 214.914062 283.375 214.914062 410.773438 C 214.914062 557.859375 256.464844 641.347656 311.234375 641.347656 C 350.894531 641.347656 386.78125 597.40625 399.996094 502.996094 L 338.625 502.996094 C 332.960938 522.746094 321.625 533.75 311.238281 533.75 C 290.46875 533.75 279.136719 498.613281 277.242188 448.101562 L 403.777344 448.101562 L 403.777344 448.066406 Z M 403.773438 448.066406 "/>
<path style=" stroke:none;fill-rule:nonzero;fill:rgb(0%,33.333333%,60.784314%);fill-opacity:1;" d="M 471.757812 360.242188 C 474.59375 314.128906 485.921875 287.765625 504.820312 287.765625 C 521.8125 287.765625 534.085938 320.714844 534.085938 360.242188 Z M 597.359375 448.066406 C 597.359375 276.773438 567.140625 180.148438 499.148438 180.148438 C 444.382812 180.148438 408.492188 283.375 408.492188 410.773438 C 408.492188 557.859375 450.046875 641.347656 504.820312 641.347656 C 543.53125 641.347656 580.359375 597.40625 593.570312 502.996094 L 532.1875 502.996094 C 526.53125 522.746094 515.195312 533.75 504.804688 533.75 C 484.039062 533.75 472.703125 498.613281 470.820312 448.101562 L 597.359375 448.101562 Z M 597.359375 448.066406 "/>
<path style=" stroke:none;fill-rule:nonzero;fill:rgb(0%,33.333333%,60.784314%);fill-opacity:1;" d="M 667.234375 410.773438 C 667.234375 358.054688 671.964844 303.144531 695.5625 303.144531 C 719.171875 303.144531 724.828125 358.054688 724.828125 410.773438 C 724.828125 461.265625 719.171875 518.363281 695.5625 518.363281 C 671.960938 518.324219 667.234375 461.253906 667.234375 410.773438 Z M 603.96875 770.910156 L 669.132812 770.910156 L 669.132812 582.027344 L 670.066406 582.027344 C 679.503906 619.386719 697.460938 641.332031 717.289062 641.332031 C 774.878906 641.332031 790 516.148438 790 412.929688 C 790 303.125 767.335938 180.148438 718.234375 180.148438 C 686.136719 180.148438 675.734375 210.894531 667.253906 239.449219 L 667.253906 191.136719 L 603.988281 191.136719 L 603.988281 770.910156 Z M 603.96875 770.910156 "/>
</g>
</svg>
