<?xml version="1.0" encoding="UTF-8"?>
<svg xmlns="http://www.w3.org/2000/svg" xmlns:xlink="http://www.w3.org/1999/xlink" width="800px" height="800px" viewBox="0 0 800 800" version="1.1">
<g id="surface1">
<path style=" stroke:none;fill-rule:nonzero;fill:rgb(0%,0%,0%);fill-opacity:1;" d="M 619 403.132812 L 578.132812 403.132812 L 577.332031 405.601562 L 579.035156 407.167969 C 580.699219 408.832031 580.699219 411.066406 579.167969 415.5 L 550.5 498.433594 L 576.566406 498.433594 L 587.765625 465.632812 L 596.765625 465.632812 L 606.5 498.433594 L 632.832031 498.433594 L 620.433594 464.699219 C 627.601562 463.398438 631.234375 461.464844 634.898438 458.066406 C 639.832031 453.632812 643.234375 447.132812 646.101562 438.035156 C 650.101562 424.367188 647.667969 416.667969 645.066406 412.632812 C 641.398438 407.167969 633.734375 403.132812 619 403.132812 Z M 621.332031 437.632812 C 619.800781 441.667969 618 442.300781 615.632812 443.234375 C 614.066406 443.898438 610.667969 443.765625 607.566406 443.765625 L 595.066406 443.765625 L 601.699219 423.433594 L 616.933594 423.433594 C 621.367188 423.433594 623.300781 426.566406 623.300781 429.167969 C 623.09375 432.070312 622.441406 434.925781 621.367188 437.632812 Z M 371.601562 486.066406 C 382.035156 475 391.535156 444.800781 391.398438 429.066406 C 391.265625 413.035156 380.734375 401.566406 358.867188 401.566406 L 356 401.566406 C 338 401.566406 327.867188 406.5 319.398438 415.5 C 308.867188 426.566406 299.066406 456.765625 299.332031 472.5 C 299.464844 488.535156 310 500 331.898438 500 L 335.167969 500 C 353 500 363.167969 495.066406 371.601562 486.066406 Z M 360.433594 452.332031 C 357.167969 461.734375 354.699219 467.699219 350.898438 471.734375 C 347.898438 474.867188 344 477.066406 335.035156 477.066406 C 328 477.066406 324.101562 474.066406 324.101562 468.632812 C 324.101562 464.964844 325 459.632812 328.765625 449.234375 C 332.035156 439.832031 334.5 433.867188 338.433594 429.832031 C 341.433594 426.699219 345.300781 424.5 354.433594 424.5 C 361.433594 424.5 365.5 427.5 365.5 432.933594 C 365.101562 436.601562 364.167969 441.933594 360.398438 452.332031 Z M 234.101562 382.300781 L 169.265625 382.566406 L 197.667969 299.734375 C 199.234375 295.300781 199.234375 293.101562 197.535156 291.398438 L 195.964844 289.199219 L 196.734375 285.933594 L 229.167969 285.933594 L 204.433594 359.367188 L 242.066406 359.367188 Z M 429.035156 287.234375 L 453.898438 286.832031 L 421.601562 381.265625 L 397.667969 381.265625 L 385.433594 319.667969 L 364.699219 381.265625 L 340.765625 381.265625 L 369 299.101562 C 370.566406 294.667969 370.566406 293.101562 368.867188 291.433594 L 367.332031 289.199219 L 368.101562 285.933594 L 401.699219 285.933594 L 411.601562 338.398438 Z M 490.898438 403.132812 L 438.566406 498.464844 L 406.234375 498.464844 L 402.332031 415.464844 C 402.101562 410.800781 401.433594 408.867188 398.964844 407.132812 L 396.367188 405.464844 L 397.535156 403 L 426.535156 403 L 428.265625 471.734375 L 429.035156 471.734375 L 463.800781 403 L 490.898438 403 Z M 184.332031 460.933594 L 121.234375 460.933594 L 129.933594 438.035156 L 201.699219 415.101562 L 198.566406 422.765625 L 148.964844 439.066406 L 192.667969 439.066406 Z M 515.734375 369.800781 C 526.265625 358.734375 535.765625 329.167969 535.398438 313.398438 C 535.132812 297.398438 524.734375 285.933594 502.832031 285.933594 L 464.832031 285.933594 L 464.035156 289.199219 L 465.601562 291.265625 C 467.265625 292.964844 467.265625 295.300781 465.734375 299.734375 L 437.332031 382.800781 L 479.132812 382.800781 C 497.132812 382.800781 507.265625 378.800781 515.734375 369.800781 Z M 488.765625 309.367188 L 498.933594 309.367188 C 505.933594 309.367188 509.867188 312.234375 510 317.699219 C 510 321.234375 509.066406 326.300781 505.433594 336.601562 C 502.167969 345.933594 499.699219 351.035156 495.933594 354.933594 C 492.933594 358.066406 489.035156 359.367188 479.933594 359.367188 L 471.601562 359.367188 Z M 511.167969 457.800781 L 505.699219 476.566406 L 542.933594 476.566406 L 535.265625 498.433594 L 471.601562 498.433594 L 499.964844 415.765625 C 501.535156 411.433594 501.535156 409.101562 499.832031 407.300781 L 498.167969 405.199219 L 499.066406 401.699219 L 567.300781 401.699219 L 559.332031 423.566406 L 523.132812 423.566406 L 517.933594 439.199219 L 551.398438 439.199219 L 544.234375 457.933594 L 511.167969 457.933594 Z M 615.601562 345.066406 L 543.832031 368.867188 L 546.964844 360.800781 L 596.699219 343.734375 L 553 343.734375 L 561.199219 320.300781 L 624.464844 320.300781 Z M 267.832031 403.132812 L 226.699219 403.132812 L 225.898438 405.601562 L 227.601562 407.167969 C 229.433594 408.832031 229.433594 411.066406 227.867188 415.5 L 199.199219 498.433594 L 225.535156 498.433594 L 236.734375 465.5 L 245.566406 465.632812 L 255.464844 498.566406 L 281.800781 498.566406 L 269.398438 464.832031 C 276.566406 463.535156 280.199219 461.601562 283.734375 458.332031 C 288.800781 453.765625 292.199219 447.398438 295.066406 438.167969 C 299.234375 424.5 296.601562 416.933594 294 412.765625 C 290.101562 407.167969 282.566406 403.101562 267.832031 403.101562 Z M 270.167969 437.632812 C 268.632812 441.667969 266.667969 442.300781 264.332031 443.234375 C 262.765625 443.898438 259.367188 443.734375 256.265625 443.734375 L 243.765625 443.734375 L 250.667969 423.433594 L 265.765625 423.433594 C 270.300781 423.433594 272.132812 426.566406 272.132812 429.167969 C 271.789062 432.050781 271.128906 434.890625 270.167969 437.632812 Z M 291.667969 285.964844 L 290.898438 289.199219 L 292.199219 290.765625 C 294.265625 292.699219 293.199219 295.066406 286.066406 306.765625 L 241.132812 381.265625 L 268.765625 381.265625 L 280.601562 360.933594 L 309.265625 360.933594 L 309.5 381.265625 L 334.5 381.265625 L 329.035156 285.933594 Z M 291.398438 342.199219 L 307.667969 312.5 L 308.601562 312.5 L 309.101562 342.167969 Z M 764.199219 392.433594 C 763.898438 388.199219 763.152344 384.007812 761.964844 379.933594 C 761.832031 379.433594 761.734375 378.632812 761.464844 377.867188 C 761.082031 376.414062 760.636719 374.980469 760.132812 373.566406 L 758.734375 369.667969 C 743.234375 329.433594 699.867188 298.566406 664.199219 280.199219 C 585.667969 239.566406 487.632812 223.433594 400 223.433594 L 399.734375 223.433594 C 311.832031 223.433594 214.066406 239.566406 135.398438 280.199219 C 91.265625 303 35.167969 343.734375 35.167969 399.332031 C 35.167969 445.066406 73.167969 481.234375 111.167969 504.667969 C 112.5 506.265625 113.832031 506.898438 114.964844 507.667969 C 116.300781 508.464844 117.433594 509.5 118.765625 510.167969 C 120.066406 510.933594 121.367188 511.832031 122.667969 512.5 C 124.101562 513.265625 125.535156 514.167969 126.832031 514.964844 C 129.699219 516.535156 132.566406 518.101562 135.300781 519.535156 C 213.933594 560.167969 311.832031 575.765625 399.734375 575.765625 C 487.5 575.765625 585.398438 560.167969 664.066406 519.535156 C 708.332031 496.734375 764.332031 455.464844 764.332031 400 C 764.332031 398.332031 764.332031 396.601562 764.199219 394.800781 C 764.328125 394.027344 764.328125 393.238281 764.199219 392.464844 Z M 400 567.066406 C 203.398438 567.066406 43.101562 486.964844 43.101562 400.132812 C 43.101562 312.765625 203.398438 233.332031 400 233.332031 C 596.601562 233.332031 756.898438 312.765625 756.898438 400.132812 C 756.898438 487.234375 596.601562 567.066406 400 567.066406 Z M 680.601562 249.234375 C 596.867188 206 493.601562 189.066406 400 189.066406 C 306.367188 189.066406 203.132812 206 119.398438 249.234375 C 61.964844 278.765625 0 329.433594 0 400 C 0 470.566406 62 521.234375 119.398438 550.765625 C 203.132812 594 306.398438 610.933594 400 610.933594 C 493.632812 610.933594 596.867188 594 680.601562 550.765625 C 738.035156 521.101562 800 470.566406 800 400 C 800 329.433594 738 278.765625 680.601562 249.234375 Z M 778 404.566406 C 778 405.332031 777.867188 406.132812 777.867188 406.765625 C 777.546875 410.570312 777.023438 414.351562 776.300781 418.101562 C 767.964844 460.300781 731.265625 499.867188 670.566406 531.265625 C 598.566406 568.5 502.464844 589.066406 400 589.066406 C 303.898438 589.066406 213.535156 571.066406 143.234375 538.167969 C 138.566406 535.933594 134.101562 533.601562 129.566406 531.367188 C 60.300781 495.566406 22.132812 449 22.132812 400.132812 C 22.132812 351.300781 60.300781 304.699219 129.566406 268.867188 C 201.566406 231.765625 297.667969 211.199219 400.132812 211.199219 C 502.601562 211.199219 598.566406 231.765625 670.566406 268.867188 C 739.832031 304.699219 778.132812 351.300781 778.132812 400.132812 C 778 401.566406 778 403 778 404.566406 Z M 778 404.566406 "/>
</g>
</svg>
