<?xml version="1.0" encoding="UTF-8"?>
<svg xmlns="http://www.w3.org/2000/svg" xmlns:xlink="http://www.w3.org/1999/xlink" width="800px" height="800px" viewBox="0 0 800 800" version="1.1">
<defs>
<clipPath id="clip1">
  <path d="M 23 3.765625 L 778 3.765625 L 778 284 L 23 284 Z M 23 3.765625 "/>
</clipPath>
<clipPath id="clip2">
  <path d="M 22 516 L 778 516 L 778 796.632812 L 22 796.632812 Z M 22 516 "/>
</clipPath>
</defs>
<g id="surface1">
<path style=" stroke:none;fill-rule:nonzero;fill:rgb(76.862745%,5.490196%,16.078431%);fill-opacity:1;" d="M 465.964844 431.988281 C 465.625 431.988281 462.925781 431.988281 461.914062 431.988281 C 379.925781 431.988281 379.925781 431.988281 379.925781 431.988281 C 379.925781 454.777344 379.925781 454.777344 379.925781 454.777344 C 463.265625 454.777344 463.265625 454.777344 463.265625 454.777344 C 463.9375 454.777344 468.664062 454.378906 470.011719 454.378906 C 487.21875 452.777344 494.980469 435.984375 494.980469 420.792969 C 494.980469 405.996094 486.882812 390.003906 471.363281 388.003906 C 468.324219 387.605469 465.964844 387.605469 464.613281 387.605469 C 410.292969 387.605469 410.292969 387.605469 410.292969 387.605469 C 407.929688 387.605469 405.230469 387.605469 403.878906 387.207031 C 399.832031 385.605469 398.144531 381.609375 398.144531 377.609375 C 398.144531 374.011719 399.832031 369.613281 404.554688 368.011719 C 405.90625 367.613281 406.917969 367.613281 409.953125 367.613281 C 488.570312 367.613281 488.570312 367.613281 488.570312 367.613281 C 488.570312 345.222656 488.570312 345.222656 488.570312 345.222656 C 408.605469 345.222656 408.605469 345.222656 408.605469 345.222656 C 405.230469 345.222656 402.867188 345.621094 400.507812 345.621094 C 387.007812 348.023438 377.226562 361.214844 377.226562 377.609375 C 377.226562 391.203125 384.308594 407.195312 399.832031 409.597656 C 402.867188 409.996094 406.917969 409.996094 408.605469 409.996094 C 461.578125 409.996094 461.578125 409.996094 461.578125 409.996094 C 462.253906 409.996094 464.953125 409.996094 465.289062 410.394531 C 471.023438 411.195312 473.386719 416.394531 473.386719 421.191406 C 473.722656 425.988281 471.699219 430.785156 465.964844 431.988281 "/>
<path style=" stroke:none;fill-rule:nonzero;fill:rgb(76.862745%,5.490196%,16.078431%);fill-opacity:1;" d="M 310.753906 431.988281 C 310.417969 431.988281 307.71875 431.988281 306.707031 431.988281 C 224.714844 431.988281 224.714844 431.988281 224.714844 431.988281 C 224.714844 454.777344 224.714844 454.777344 224.714844 454.777344 C 308.054688 454.777344 308.054688 454.777344 308.054688 454.777344 C 308.730469 454.777344 313.453125 454.378906 314.804688 454.378906 C 331.675781 452.777344 339.773438 435.984375 339.773438 420.792969 C 339.773438 405.996094 331.675781 390.003906 316.152344 388.003906 C 313.117188 387.605469 310.753906 387.605469 309.40625 387.605469 C 255.082031 387.605469 255.082031 387.605469 255.082031 387.605469 C 252.71875 387.605469 250.019531 387.605469 248.671875 387.207031 C 244.621094 385.605469 242.933594 381.609375 242.933594 377.609375 C 242.933594 374.011719 244.621094 369.613281 248.671875 368.011719 C 250.359375 367.613281 251.707031 367.613281 254.40625 367.613281 C 333.023438 367.613281 333.023438 367.613281 333.023438 367.613281 C 333.023438 345.222656 333.023438 345.222656 333.023438 345.222656 C 253.058594 345.222656 253.058594 345.222656 253.058594 345.222656 C 249.683594 345.222656 247.320312 345.621094 244.960938 345.621094 C 231.125 348.023438 221.679688 361.214844 221.679688 377.609375 C 221.679688 391.203125 228.765625 407.195312 244.285156 409.597656 C 247.320312 409.996094 251.371094 409.996094 253.058594 409.996094 C 306.03125 409.996094 306.03125 409.996094 306.03125 409.996094 C 306.707031 409.996094 309.40625 409.996094 309.742188 410.394531 C 315.480469 411.195312 317.839844 416.394531 317.839844 421.191406 C 318.515625 425.988281 316.492188 430.785156 310.753906 431.988281 "/>
<path style=" stroke:none;fill-rule:nonzero;fill:rgb(76.862745%,5.490196%,16.078431%);fill-opacity:1;" d="M 160.945312 344.824219 L 181.527344 344.824219 L 181.527344 455.578125 L 160.945312 455.578125 Z M 160.945312 344.824219 "/>
<path style=" stroke:none;fill-rule:nonzero;fill:rgb(76.862745%,5.490196%,16.078431%);fill-opacity:1;" d="M 115.730469 455.175781 L 115.730469 344.824219 L 95.148438 344.824219 L 95.148438 426.789062 L 25.980469 344.824219 L -0.335938 344.824219 L -0.335938 455.175781 L 20.246094 455.175781 L 20.246094 372.410156 L 89.75 455.175781 Z M 115.730469 455.175781 "/>
<path style=" stroke:none;fill-rule:nonzero;fill:rgb(76.862745%,5.490196%,16.078431%);fill-opacity:1;" d="M 779.753906 344.824219 L 779.753906 426.789062 L 711.261719 344.824219 L 684.269531 344.824219 L 684.269531 455.175781 L 705.1875 455.175781 L 705.1875 372.410156 L 774.355469 455.175781 L 800.675781 455.175781 L 800.675781 344.824219 Z M 779.753906 344.824219 "/>
<path style=" stroke:none;fill-rule:nonzero;fill:rgb(76.862745%,5.490196%,16.078431%);fill-opacity:1;" d="M 611.726562 414.394531 L 565.164062 414.394531 L 588.445312 370.011719 Z M 577.308594 344.824219 L 518.9375 455.578125 L 544.242188 455.578125 L 554.703125 435.585938 L 622.523438 435.585938 L 632.980469 455.578125 L 657.949219 455.578125 L 599.914062 344.824219 Z M 577.308594 344.824219 "/>
<g clip-path="url(#clip1)" clip-rule="nonzero">
<path style=" stroke:none;fill-rule:nonzero;fill:rgb(76.862745%,5.490196%,16.078431%);fill-opacity:1;" d="M 114.382812 281.648438 C 155.882812 137.710938 270.941406 40.953125 400.167969 40.953125 C 529.734375 40.953125 644.453125 137.710938 686.292969 281.648438 C 686.292969 283.25 686.292969 283.25 686.292969 283.25 C 777.730469 283.25 777.730469 283.25 777.730469 283.25 C 777.730469 270.453125 777.730469 270.453125 777.730469 270.453125 C 739.941406 264.855469 739.941406 264.855469 739.941406 264.855469 C 716.320312 262.058594 711.261719 249.261719 705.1875 234.070312 C 703.839844 230.472656 703.839844 230.472656 703.839844 230.472656 C 648.503906 92.53125 529.734375 2.96875 400.167969 2.96875 C 270.941406 2.96875 151.835938 92.53125 97.175781 230.472656 C 95.488281 234.070312 95.488281 234.070312 95.488281 234.070312 C 89.078125 249.664062 84.015625 262.058594 61.070312 264.855469 C 23.28125 270.453125 23.28125 270.453125 23.28125 270.453125 C 23.28125 283.25 23.28125 283.25 23.28125 283.25 C 114.042969 283.25 114.042969 283.25 114.042969 283.25 Z M 114.382812 281.648438 "/>
</g>
<g clip-path="url(#clip2)" clip-rule="nonzero">
<path style=" stroke:none;fill-rule:nonzero;fill:rgb(76.862745%,5.490196%,16.078431%);fill-opacity:1;" d="M 685.957031 516.75 C 685.957031 518.351562 685.957031 518.351562 685.957031 518.351562 C 644.453125 662.289062 529.398438 759.046875 399.832031 759.046875 C 270.601562 759.046875 155.882812 662.289062 114.042969 518.351562 C 113.707031 516.75 113.707031 516.75 113.707031 516.75 C 22.945312 516.75 22.945312 516.75 22.945312 516.75 C 22.945312 529.546875 22.945312 529.546875 22.945312 529.546875 C 60.734375 535.144531 60.734375 535.144531 60.734375 535.144531 C 84.015625 537.941406 89.078125 550.738281 95.148438 565.929688 C 96.835938 569.527344 96.835938 569.527344 96.835938 569.527344 C 151.496094 707.46875 270.265625 797.03125 399.832031 797.03125 C 529.398438 797.03125 648.503906 707.871094 703.164062 569.527344 C 704.511719 565.929688 704.511719 565.929688 704.511719 565.929688 C 710.921875 550.335938 715.984375 537.941406 739.265625 535.144531 C 777.054688 529.546875 777.054688 529.546875 777.054688 529.546875 C 777.054688 516.75 777.054688 516.75 777.054688 516.75 Z M 685.957031 516.75 "/>
</g>
</g>
</svg>
