<?xml version="1.0" encoding="UTF-8"?>
<svg xmlns="http://www.w3.org/2000/svg" xmlns:xlink="http://www.w3.org/1999/xlink" width="800px" height="800px" viewBox="0 0 800 800" version="1.1">
<g id="surface1">
<rect x="0" y="0" width="800" height="800" style="fill:rgb(100%,100%,100%);fill-opacity:1;stroke:none;"/>
<path style="fill-rule:evenodd;fill:rgb(92.941176%,78.823529%,36.862745%);fill-opacity:1;stroke-width:0.989;stroke-linecap:butt;stroke-linejoin:miter;stroke:rgb(0%,0%,0%);stroke-opacity:1;stroke-miterlimit:2.613;" d="M 137.486417 161.10938 C 126.588362 171.038949 117.204683 176.389623 97.440605 186.758728 C 79.042195 178.391537 67.033534 170.143876 56.620193 162.016689 C 42.229376 150.813687 31.89133 132.621399 30.995315 121.463575 L 23.814966 15.265183 C 72.453856 2.622159 124.189265 2.910164 168.941034 16.115079 L 161.656212 121.236747 C 160.729139 130.755957 152.213239 149.268251 137.486417 161.10938 Z M 137.486417 161.10938 " transform="matrix(4.150325,0,0,4.150325,0,0.000000000000056843)"/>
<path style="fill-rule:evenodd;fill:rgb(92.941176%,78.823529%,36.862745%);fill-opacity:1;stroke-width:0.989;stroke-linecap:butt;stroke-linejoin:miter;stroke:rgb(0%,0%,0%);stroke-opacity:1;stroke-miterlimit:2.613;" d="M 153.321962 117.756222 L 159.896184 23.881791 C 121.381691 11.616184 75.248253 11.434534 32.742167 22.5933 L 39.45192 117.695044 C 40.150284 127.577554 47.270397 142.693088 60.917673 154.275389 C 69.13145 161.249618 85.222058 172.955215 97.107423 177.440933 C 110.799876 170.512823 123.249956 161.899981 133.117407 153.398199 C 145.353836 142.253552 152.580304 128.39639 153.321962 117.756222 Z M 153.321962 117.756222 " transform="matrix(4.150325,0,0,4.150325,0,0.000000000000056843)"/>
<path style="fill-rule:evenodd;fill:rgb(92.941176%,78.823529%,36.862745%);fill-opacity:1;stroke-width:0.989;stroke-linecap:butt;stroke-linejoin:miter;stroke:rgb(0%,0%,0%);stroke-opacity:1;stroke-miterlimit:2.613;" d="M 131.539029 150.920042 C 122.080055 159.076407 109.343853 168.217258 97.107423 174.055468 C 86.178309 170.673767 70.024641 158.211452 62.253223 151.510169 C 48.697243 139.807395 43.185626 127.556848 42.351731 115.974546 L 35.76245 25.194753 C 76.23368 14.566819 120.40944 14.566819 157.115905 26.257358 L 150.603802 115.824897 C 149.663551 127.737556 144.122758 139.125031 131.539029 150.920042 Z M 131.539029 150.920042 " transform="matrix(4.150325,0,0,4.150325,0,0.000000000000056843)"/>
<path style="fill:none;stroke-width:0.989;stroke-linecap:butt;stroke-linejoin:miter;stroke:rgb(0%,0%,0%);stroke-opacity:1;stroke-miterlimit:2.613;" d="M 38.78838 26.957604 L 40.092872 42.60397 M 40.092872 42.60397 C 78.727838 32.948288 119.199068 33.916774 152.794895 44.075994 M 152.794895 44.075994 L 154.235859 28.156682 M 154.235859 28.156682 C 119.426836 17.485454 77.16546 16.907562 38.78838 26.958545 " transform="matrix(4.150325,0,0,4.150325,0,0.000000000000056843)"/>
<path style=" stroke:none;fill-rule:evenodd;fill:rgb(0%,0%,0%);fill-opacity:1;" d="M 559.726562 135.984375 L 523.5625 130.011719 L 522.167969 146.996094 L 510.394531 145.242188 L 513.167969 100.183594 L 525.203125 101.945312 L 523.9375 119.25 L 560.609375 125.164062 L 561.800781 107.859375 L 574.089844 110.191406 L 570.371094 155.367188 L 558.40625 153.164062 Z M 385.1875 120.703125 C 380.78125 120.703125 377.253906 119.507812 374.917969 115.605469 C 372.90625 112.398438 372.90625 101.953125 374.917969 98.492188 C 377.125 94.464844 381.089844 93.332031 384.371094 93.332031 L 435.652344 93.398438 L 435.785156 104.46875 L 387.269531 104.40625 C 384.875 104.40625 384.8125 109.753906 387.457031 109.753906 L 425.699219 109.753906 C 430.171875 109.753906 434.144531 112.464844 435.402344 115.980469 C 436.789062 119.761719 436.535156 128.320312 435.402344 131.839844 C 434.332031 135.367188 430.296875 137.308594 425.253906 137.308594 L 374.667969 137.308594 L 374.601562 125.988281 L 419.648438 125.988281 C 421.027344 125.878906 422.089844 124.726562 422.089844 123.34375 C 422.089844 121.960938 421.027344 120.808594 419.648438 120.699219 L 385.1875 120.699219 Z M 355.519531 125.203125 C 355.496094 124.0625 355.015625 122.984375 354.1875 122.203125 C 353.359375 121.421875 352.25 121.003906 351.113281 121.046875 L 317.089844 123.503906 L 317.78125 140.363281 L 306.757812 141.496094 L 304.425781 97.015625 L 355.085938 93.238281 C 361.636719 92.738281 365.480469 97.640625 365.792969 101.734375 C 366.171875 106.578125 366.363281 112.804688 362.582031 115.386719 C 365.730469 117.714844 366.550781 121.175781 366.613281 126.019531 L 366.742188 137.40625 L 355.714844 137.847656 Z M 355.519531 125.203125 "/>
<path style=" stroke:none;fill-rule:evenodd;fill:rgb(92.941176%,78.823529%,36.862745%);fill-opacity:1;" d="M 348.292969 110.765625 C 352.636719 110.511719 352.257812 103.777344 348.292969 104.15625 L 315.90625 106.609375 L 316.285156 112.773438 Z M 348.292969 110.765625 "/>
<path style=" stroke:none;fill-rule:evenodd;fill:rgb(0%,0%,0%);fill-opacity:1;" d="M 242.195312 104.855469 C 252.59375 102.402344 273.886719 99.007812 285.039062 98.183594 C 290.140625 97.8125 294.113281 100.449219 294.804688 104.417969 C 296.445312 113.539062 297.453125 122.972656 296.316406 135.628906 C 296 139.277344 292.851562 142.167969 288.691406 143.054688 C 274.390625 146.199219 258.324219 147.898438 246.414062 149.03125 C 243.386719 149.34375 238.601562 146.953125 237.785156 143.179688 C 235.707031 133.988281 234.945312 121.152344 235.582031 112.339844 C 235.832031 109.074219 238.859375 105.613281 242.195312 104.855469 Z M 242.195312 104.855469 "/>
<path style=" stroke:none;fill-rule:evenodd;fill:rgb(92.941176%,78.823529%,36.862745%);fill-opacity:1;" d="M 282.660156 131.957031 C 284.109375 131.636719 284.742188 130.066406 284.871094 128.933594 C 285.371094 125.472656 284.933594 116.410156 284.109375 113.390625 C 283.863281 112.195312 282.851562 111.4375 280.585938 111.628906 C 274.410156 112.007812 258.09375 114.332031 250.027344 116.09375 C 247.886719 116.597656 247.066406 117.855469 246.941406 118.988281 C 246.558594 121.945312 247.441406 130.0625 248.199219 134.589844 C 248.386719 135.664062 249.773438 136.417969 250.839844 136.355469 C 261.746094 135.480469 274.601562 133.71875 282.660156 131.957031 Z M 282.660156 131.957031 "/>
<path style=" stroke:none;fill-rule:evenodd;fill:rgb(0%,0%,0%);fill-opacity:1;" d="M 461.324219 106.730469 C 458.933594 106.667969 457.296875 108.117188 457.109375 109.375 C 456.539062 113.089844 456.34375 117.863281 456.34375 124.09375 C 456.34375 124.914062 457.730469 127.179688 458.929688 127.363281 C 469.765625 128.878906 490.8125 130.769531 502.28125 131.519531 L 501.582031 143.15625 C 486.53125 142.46875 470.78125 140.074219 454.460938 138.945312 C 449.101562 138.5625 445.195312 135.675781 445.003906 130.515625 C 444.6875 122.019531 445.195312 109.183594 446.710938 101.695312 C 447.714844 97.105469 452.128906 94.710938 457.105469 94.839844 C 472.15625 95.40625 484.132812 96.730469 503.855469 99.371094 L 503.097656 110.949219 C 493.53125 110.132812 475.382812 107.296875 461.324219 106.730469 Z M 214.785156 110.109375 C 230.03125 106.523438 232.359375 133.578125 219.632812 136.722656 L 184.097656 145.597656 L 185.796875 163.085938 L 174.644531 166.042969 L 170.671875 120.488281 Z M 214.785156 110.109375 "/>
<path style=" stroke:none;fill-rule:evenodd;fill:rgb(92.941176%,78.823529%,36.862745%);fill-opacity:1;" d="M 214.597656 127.828125 C 218.25 127.007812 217.746094 120.46875 213.835938 121.285156 L 181.769531 129.023438 L 182.523438 135.757812 Z M 214.597656 127.828125 "/>
<path style=" stroke:none;fill-rule:evenodd;fill:rgb(0%,0%,0%);fill-opacity:1;" d="M 591.648438 142.738281 L 590.894531 150.039062 L 626.113281 158.910156 L 625.167969 169.101562 L 577.917969 157.96875 L 582.007812 112.097656 L 629.574219 123.609375 L 628.507812 134.304688 L 593.097656 125.75 L 592.402344 133.492188 L 627.558594 142.050781 L 626.675781 151.109375 Z M 591.648438 142.738281 "/>
<path style="fill:none;stroke-width:0.989;stroke-linecap:butt;stroke-linejoin:miter;stroke:rgb(0%,0%,0%);stroke-opacity:1;stroke-miterlimit:2.613;" d="M 73.641639 82.552839 L 73.641639 73.350811 L 73.651992 69.47122 L 73.656698 67.59072 L 95.470691 67.574719 L 95.456574 37.770011 M 95.456574 37.770011 C 78.484069 37.770011 59.88895 39.375684 40.168167 44.880712 M 40.168167 44.880712 L 44.235996 100.866542 L 73.640698 100.866542 L 73.640698 82.552839 " transform="matrix(4.150325,0,0,4.150325,0,0.000000000000056843)"/>
<path style=" stroke:none;fill-rule:evenodd;fill:rgb(0%,0%,0%);fill-opacity:1;" d="M 305.507812 300.714844 C 305.507812 299.898438 295.492188 299.140625 290.511719 299.765625 C 277.277344 301.339844 244.199219 311.722656 230.214844 321.351562 C 229.902344 322.167969 229.960938 326.757812 229.019531 328.902344 C 228.203125 330.847656 226.121094 332.863281 224.105469 333.746094 C 220.511719 335.3125 216.351562 330.535156 214.527344 331.230469 C 212.632812 331.917969 208.605469 333.558594 204.253906 330.472656 C 202.304688 329.089844 201.300781 325.191406 201.988281 322.292969 C 202.617188 320.214844 204.382812 318.578125 205.773438 317.257812 C 207.035156 316 206.148438 311.15625 210.683594 308.261719 C 213.832031 306.253906 218.183594 307.890625 221.523438 309.648438 C 222.277344 309.394531 222.785156 309.082031 223.351562 308.582031 C 223.785156 307.253906 224.484375 303.226562 225.113281 300.082031 C 225.875 296.683594 226.125 294.476562 227.128906 291.335938 C 229.648438 283.722656 235.695312 272.777344 242 267.046875 C 246.976562 262.644531 254.726562 259.121094 260.457031 259.5 C 259.890625 260.375 252.769531 266.734375 250.6875 269.566406 C 245.773438 276.105469 241.242188 286.171875 239.101562 294.730469 C 238.339844 297.625 238.339844 298.699219 238.847656 300.582031 C 243.507812 298.503906 249.554688 296.496094 253.085938 295.359375 C 254.472656 292.277344 255.226562 288.75 256.429688 285.925781 C 258.316406 281.515625 259.519531 279.628906 261.464844 276.546875 C 267.074219 267.867188 278.917969 259.308594 287.675781 259.5 C 284.773438 262.015625 278.726562 268.304688 276.335938 272.078125 C 274.386719 275.226562 272.554688 278.625 271.167969 282.148438 C 269.972656 285.292969 269.597656 287.621094 269.28125 290.199219 C 273.816406 288.882812 278.292969 287.9375 281.1875 287.746094 C 283.144531 286.675781 283.769531 284.601562 284.84375 282.648438 C 288.183594 276.421875 294.730469 269.433594 298.894531 267.171875 C 302.230469 265.347656 307.144531 263.582031 310.671875 264.71875 C 306.890625 267.550781 302.925781 272.074219 301.160156 274.785156 C 299.332031 277.675781 296.371094 283.28125 296.496094 285.925781 C 299.585938 286.171875 303.609375 286.011719 305.375 285.570312 L 305.507812 300.714844 L 305.550781 284.609375 Z M 305.507812 300.714844 "/>
<path style=" stroke:none;fill-rule:evenodd;fill:rgb(0%,0%,0%);fill-opacity:1;" d="M 265.386719 198.804688 C 270.179688 192.140625 282.773438 182.074219 292.480469 182.640625 C 287.191406 187.230469 282.523438 192.324219 279.25 197.738281 C 274.964844 204.71875 271.496094 213.472656 270.746094 220.199219 C 273.953125 219.003906 281.515625 216.867188 285.867188 215.921875 C 289.710938 207.554688 294.75 198.300781 300.988281 193.332031 C 305.460938 189.746094 311.882812 186.660156 317.875 187.355469 C 316.488281 189.304688 314.21875 190.816406 312.515625 192.390625 C 309.421875 195.09375 307.285156 198.746094 305.585938 202.457031 C 304.324219 205.226562 302.179688 213.53125 302.117188 213.910156 C 306.464844 213.851562 314.15625 214.347656 315.789062 214.855469 C 320.894531 208.183594 332.046875 198.496094 345.40625 200.695312 C 339.609375 203.84375 329.023438 213.027344 329.65625 218.0625 C 338.347656 223.664062 351.324219 235.425781 351.894531 246.308594 C 345.972656 240.144531 336.207031 234.039062 331.292969 232.34375 C 319.507812 228.1875 305.460938 227.625 293.738281 229.761719 C 269.292969 234.355469 247.683594 244.925781 226.957031 257.324219 C 226.453125 260.660156 224.625 265.691406 223.113281 267.390625 C 221.601562 269.085938 219.332031 270.726562 216.878906 271.109375 C 213.792969 271.605469 210.640625 270.351562 207.992188 268.964844 C 206.292969 268.019531 201.816406 269.21875 198.988281 267.699219 C 197.03125 266.695312 194.007812 263.863281 194.828125 259.398438 C 195.523438 255.4375 199.488281 253.046875 200.054688 249.269531 C 200.875 243.734375 204.902344 241.335938 206.984375 240.96875 C 209.25 240.523438 211.582031 241.285156 213.664062 242.222656 C 214.542969 242.660156 215.484375 243.421875 216.3125 243.675781 C 217.128906 243.421875 218.324219 242.414062 219.019531 242.101562 C 219.207031 241.464844 221.285156 229.957031 222.421875 224.921875 C 223.554688 219.886719 225.507812 215.605469 227.148438 210.894531 C 232.0625 196.929688 247.246094 182.832031 259.40625 183.585938 C 258.777344 184.46875 254.867188 187.300781 249.449219 193.585938 C 240.695312 203.847656 238.484375 214.734375 235.210938 233.417969 C 241.953125 230.273438 247.8125 228.011719 253.921875 225.800781 C 255.375 220.015625 257.324219 214.351562 259.71875 208.878906 C 261.296875 205.355469 263.183594 201.886719 265.386719 198.804688 Z M 265.386719 198.804688 "/>
<path style=" stroke:none;fill-rule:evenodd;fill:rgb(79.215686%,19.215686%,19.607843%);fill-opacity:1;" d="M 632.585938 214.277344 L 407.402344 214.472656 L 407.589844 280.660156 L 627.542969 280.535156 Z M 632.585938 214.277344 "/>
<path style=" stroke:none;fill-rule:evenodd;fill:rgb(0%,0%,0%);fill-opacity:1;" d="M 459.15625 510.359375 C 457.582031 516.707031 456.820312 527.40625 456.949219 527.667969 C 460.792969 526.085938 464.382812 524.699219 467.539062 523.761719 C 467.78125 523.378906 472.265625 513.632812 474.28125 510.988281 C 479 503.691406 485.363281 497.457031 493.113281 493.308594 C 497.96875 490.851562 503.886719 488.589844 509.121094 490.542969 C 502.246094 493.808594 496.898438 499.726562 493.675781 503.125 C 490.71875 506.269531 487.25 510.921875 485.675781 515.703125 C 485.421875 516.519531 485.171875 518.222656 485.171875 518.222656 C 488.382812 517.21875 498.652344 515.703125 502.941406 515.132812 C 503.441406 515.066406 504.761719 512.242188 505.769531 510.855469 C 507.035156 509.160156 507.789062 508.089844 509.808594 505.828125 C 514.980469 500.226562 523.734375 494.246094 532.238281 495.566406 C 527.578125 498.523438 522.46875 503.242188 518.375 510.667969 C 517.808594 511.800781 517.054688 513.375 517.371094 514.0625 C 518.628906 514.320312 524.871094 514.191406 528.648438 514.640625 C 532.992188 511.933594 537.597656 509.535156 542.570312 508.472656 C 548.175781 507.207031 555.484375 508.21875 558.390625 510.855469 C 554.984375 510.667969 551.765625 511.300781 548.683594 512.496094 C 546.917969 513.191406 543.394531 514.828125 542.0625 517.089844 C 545.410156 518.03125 550.890625 521.621094 554.351562 524.515625 C 556.742188 526.523438 559.640625 529.417969 561.46875 532.066406 C 566.070312 538.292969 567.011719 549.488281 564.554688 552.828125 C 563.867188 550.871094 563.105469 548.929688 562.046875 547.097656 C 559.832031 543.390625 556.363281 539.363281 553.40625 537.15625 C 539.105469 526.277344 518.5 525.710938 501.6875 529.101562 C 487.25 532.066406 461.230469 537.476562 444.222656 549.554688 C 444.65625 551.703125 443.328125 555.277344 441.382812 556.671875 C 438.796875 558.550781 435.140625 555.972656 433.253906 556.984375 C 430.675781 558.304688 427.457031 557.480469 426.132812 556.917969 C 423.863281 555.96875 422.359375 553.644531 422.164062 550.9375 C 421.976562 548.796875 424.050781 546.21875 424.496094 543.894531 C 424.691406 542.945312 423.675781 538.292969 427.648438 535.902344 C 428.40625 535.464844 430.675781 534.644531 432.242188 534.898438 C 433.816406 535.214844 435.082031 536.21875 436.652344 536.472656 C 438.792969 535.710938 440.839844 534.71875 442.765625 533.511719 C 444.03125 528.664062 444.96875 523.0625 445.605469 518.09375 Z M 459.15625 510.359375 "/>
<path style="fill:none;stroke-width:0.989;stroke-linecap:butt;stroke-linejoin:miter;stroke:rgb(0%,0%,0%);stroke-opacity:1;stroke-miterlimit:2.613;" d="M 107.367351 124.832099 C 104.648249 126.181767 101.096193 127.091899 98.075909 127.213313 M 98.075909 127.213313 L 98.09191 170.828123 M 98.09191 170.828123 C 110.767875 164.401668 124.672096 153.88103 130.594072 148.104938 C 140.171636 138.778673 146.625386 129.333817 147.609872 115.720425 M 147.608931 115.721366 L 148.504945 103.321169 L 119.708253 103.29011 M 119.709194 103.289168 C 119.709194 110.323633 117.371274 117.609396 110.619167 122.933716 M 110.619167 122.933716 L 107.367351 124.832099 " transform="matrix(4.150325,0,0,4.150325,0,0.000000000000056843)"/>
<path style=" stroke:none;fill-rule:evenodd;fill:rgb(0%,0%,0%);fill-opacity:1;" d="M 461.324219 577.332031 C 463.222656 574.4375 465.492188 570.214844 466.617188 568.390625 C 470.589844 562.035156 476.320312 557.316406 480.234375 555.496094 C 485.582031 552.917969 494.214844 551.402344 498.058594 553.292969 C 493.835938 554.304688 490.625 556.25 487.660156 558.328125 C 484.632812 560.402344 478.710938 565.816406 477.199219 568.078125 C 475.507812 570.597656 474.363281 572.859375 473.925781 574.050781 C 478.707031 572.988281 484.445312 572.105469 487.40625 572.105469 C 489.554688 569.398438 495.222656 562.921875 499.441406 559.898438 C 502.84375 557.507812 510.089844 555.117188 514.625 557.070312 C 510.277344 558.457031 502.597656 564.492188 499.757812 568.832031 C 499.125 569.84375 498.558594 570.914062 498.4375 571.476562 C 500.765625 571.667969 505.171875 572.105469 507.574219 572.425781 C 507.816406 572.425781 514.375 568.394531 517.332031 567.578125 C 521.183594 566.507812 527.480469 565.128906 531.445312 569.34375 C 528.550781 569.402344 525.832031 569.652344 523.695312 570.601562 C 520.617188 571.988281 519.289062 572.992188 517.902344 574.941406 C 523.949219 578.148438 530.257812 581.488281 533.976562 587.40625 C 535.289062 589.484375 537.308594 594.390625 536.171875 597.597656 C 534.285156 595.207031 531.699219 592.878906 529.621094 591.679688 C 526.664062 589.976562 524.519531 588.347656 520.925781 586.960938 C 509.648438 582.742188 494.902344 581.609375 483.117188 583.183594 C 467.878906 585.136719 449.160156 592.691406 439.589844 599.230469 C 440.222656 602.183594 438.773438 605.644531 437.070312 606.460938 C 433.480469 608.285156 430.019531 605.203125 429.382812 605.390625 C 428.433594 605.707031 425.53125 606.710938 423.457031 605.835938 C 421.382812 605.019531 420.0625 601.359375 420.878906 599.03125 C 421.503906 597.273438 424.027344 594.753906 424.027344 594.753906 C 423.644531 590.917969 426.167969 588.59375 429.636719 588.148438 C 431.59375 587.960938 432.976562 589.476562 434.550781 589.785156 C 436.003906 589.097656 437.007812 588.59375 437.769531 588.214844 C 438.652344 585.066406 439.972656 581.859375 440.847656 579.214844 C 442.300781 574.75 444.445312 570.785156 447.15625 566.636719 C 451.054688 560.65625 457.992188 554.992188 466.246094 554.863281 C 463.726562 556.820312 462.277344 557.890625 460.703125 559.839844 C 457.996094 563.238281 455.914062 566.320312 454.023438 569.964844 C 452.324219 573.171875 450.75 577.957031 450.488281 582.171875 C 453.519531 580.730469 458.179688 578.589844 461.324219 577.332031 Z M 460.109375 611.363281 C 462.25 610.488281 464.515625 609.855469 466.785156 610.105469 C 461.496094 613.5 456.640625 618.472656 455.316406 624.378906 C 455.195312 625.019531 455.195312 626.265625 455.757812 626.648438 C 457.265625 626.265625 461.109375 625.449219 462.121094 624.957031 C 462.753906 623.636719 464.324219 621.5625 465.398438 620.175781 C 469.171875 615.140625 474.597656 610.105469 482.085938 611.996094 C 477.179688 614.191406 474.34375 617.277344 472.195312 621.179688 C 471.820312 621.875 471.5625 623.1875 472.066406 623.1875 C 473.332031 623.1875 478.121094 623 478.808594 623 C 481.015625 621.046875 487.441406 617.335938 491.855469 618.722656 C 489.65625 619.757812 487.636719 621.140625 485.875 622.8125 C 485.4375 623.316406 484.863281 623.949219 484.742188 624.703125 C 488.648438 626.648438 492.109375 628.851562 495.328125 631.625 C 497.03125 633.070312 499.488281 635.777344 500.992188 640.429688 C 497.21875 637.160156 484.863281 631.308594 478.125 630.996094 C 473.71875 630.808594 468.234375 631.625 465.464844 632.253906 C 454.8125 634.644531 443.84375 639.429688 434.464844 644.777344 C 434.523438 646.601562 434.210938 648.808594 432.132812 650.5 C 430.746094 651.632812 427.722656 652.203125 426.585938 650.566406 C 425.964844 649.683594 421.859375 650.625 420.976562 649.496094 C 420.976562 649.496094 419.90625 647.855469 419.777344 645.90625 C 419.65625 643.832031 421.042969 642.574219 422.175781 641.503906 C 422.492188 641.128906 422.429688 637.605469 425.066406 636.402344 C 426.707031 635.648438 428.351562 635.910156 429.738281 636.785156 C 430.304688 636.46875 430.742188 636.152344 431.113281 635.910156 C 431.429688 631.816406 432.195312 628.039062 433.699219 623.953125 C 435.785156 618.15625 442.585938 611.109375 448.445312 611.363281 C 444.484375 615.640625 441.265625 621.5625 440.195312 626.464844 C 439.878906 628.039062 439.761719 631.117188 439.761719 632.570312 C 441.160156 631.710938 442.636719 630.976562 444.164062 630.367188 C 444.792969 628.863281 446.621094 625.085938 447.566406 623.378906 C 449.96875 618.976562 455.320312 613.3125 460.109375 611.363281 Z M 460.109375 611.363281 "/>
<path style=" stroke:none;fill-rule:evenodd;fill:rgb(79.215686%,19.215686%,19.607843%);fill-opacity:1;" d="M 189.621094 486.941406 C 190.375 508.832031 199.324219 535.261719 211.609375 553.574219 L 394.890625 553.574219 L 394.511719 528.023438 C 370.949219 528.023438 334.972656 512.484375 320.734375 487.074219 Z M 189.621094 486.941406 "/>
<path style="fill:none;stroke-width:0.989;stroke-linecap:butt;stroke-linejoin:miter;stroke:rgb(0%,0%,0%);stroke-opacity:1;stroke-miterlimit:2.613;" d="M 76.046383 103.565879 C 76.046383 131.613383 117.124682 131.613383 117.124682 103.854825 M 117.124682 103.854825 L 117.140682 70.108407 L 76.047324 70.093348 L 76.047324 103.564938 " transform="matrix(4.150325,0,0,4.150325,0,0.000000000000056843)"/>
<path style=" stroke:none;fill-rule:evenodd;fill:rgb(0%,0%,0%);fill-opacity:1;" d="M 370.539062 374.050781 C 372.558594 371.847656 374.324219 368.953125 374.699219 366.5 C 375.011719 364.484375 369.34375 364.613281 367.261719 365.871094 C 366.128906 366.566406 365.054688 367.945312 364.175781 369.207031 C 363.542969 370.152344 361.277344 370.90625 360.144531 369.835938 C 358.945312 368.703125 361.089844 366.75 361.027344 365.554688 C 361.027344 363.546875 357.179688 366.566406 355.417969 365.746094 C 354.222656 365.179688 354.15625 363.359375 354.976562 362.289062 C 355.417969 361.71875 356.679688 361.976562 357.246094 361.34375 C 357.816406 360.714844 357.816406 359.773438 358.007812 358.953125 C 358.261719 358.007812 359.265625 357.570312 359.894531 356.878906 C 362.289062 354.550781 366.828125 350.585938 367.707031 350.648438 C 369.78125 350.839844 372.746094 351.90625 374.570312 350.960938 C 374.949219 350.777344 375.640625 350.152344 375.011719 349.769531 L 370.097656 346.558594 C 370.050781 345.535156 370.464844 344.542969 371.226562 343.855469 C 373.496094 341.839844 377.023438 343.222656 379.988281 342.785156 C 382.0625 342.46875 384.019531 341.652344 385.527344 340.203125 C 385.90625 341.710938 384.960938 343.222656 384.960938 344.796875 C 386.851562 346.558594 388.804688 348.066406 390.632812 349.769531 C 396.050781 355.179688 398.382812 363.042969 398.757812 369.964844 C 399.074219 373.171875 399.074219 376.445312 399.074219 381.796875 C 399.957031 379.535156 400.523438 376.195312 400.714844 373.300781 C 401.53125 364.742188 400.207031 357.132812 395.359375 350.648438 C 393.386719 347.917969 391.148438 345.390625 388.679688 343.101562 C 388.929688 340.589844 391.078125 336.304688 393.089844 337.878906 C 394.414062 338.886719 392.464844 340.394531 393.847656 341.277344 C 395.363281 342.222656 397.566406 342.09375 398.511719 341.902344 C 400.71875 341.339844 402.859375 340.773438 404.867188 340.589844 C 405.820312 340.523438 407.386719 340.082031 407.707031 341.027344 C 407.964844 341.65625 407.269531 342.09375 406.574219 342.347656 C 405.757812 342.601562 404.5 342.414062 403.800781 343.105469 C 403.234375 343.671875 402.667969 344.296875 402.859375 345.117188 C 403.105469 346.0625 404.117188 346.566406 405.121094 346.25 C 408.921875 345.199219 412.835938 344.609375 416.78125 344.484375 C 418.863281 344.484375 418.417969 345.996094 417.410156 346.566406 C 416.722656 346.9375 415.640625 347.257812 414.953125 347.320312 C 411.234375 347.761719 408.460938 348.011719 408.90625 350.15625 C 409.222656 351.597656 411.550781 350.210938 412.050781 351.28125 C 412.621094 352.414062 411.046875 353.042969 411.175781 353.796875 C 411.550781 356.183594 416.152344 355.6875 418.292969 355.179688 C 419.867188 354.804688 422.386719 353.546875 423.152344 354.554688 C 423.839844 355.429688 423.269531 356.816406 422.386719 357.070312 C 420.117188 357.699219 416.210938 358.828125 415.140625 360.089844 C 414.136719 361.285156 415.335938 363.738281 416.527344 363.863281 C 419.234375 364.179688 422.199219 364.179688 424.339844 364.808594 C 425.160156 365.058594 425.855469 365.628906 425.855469 366.507812 C 425.855469 367.453125 424.90625 367.769531 424.15625 368.019531 C 422.703125 368.457031 420.25 368.457031 418.917969 369.023438 C 418.480469 369.214844 417.597656 369.527344 417.726562 370.03125 C 418.097656 370.976562 419.996094 370.722656 421.570312 370.910156 C 422.453125 370.976562 424.15625 371.664062 424.15625 372.609375 C 424.15625 373.617188 423.269531 373.925781 421.691406 373.808594 C 419.234375 373.617188 416.96875 373.925781 415.898438 374.371094 C 415.574219 374.496094 413.695312 374.746094 413.75 375.632812 C 413.878906 376.695312 415.898438 376.007812 416.394531 377.078125 C 416.835938 378.082031 415.453125 378.652344 415.332031 379.910156 C 415.332031 380.414062 415.574219 380.664062 416.085938 380.855469 C 417.726562 381.546875 419.613281 381.480469 421.25 381.171875 C 422.953125 380.855469 423.582031 383.121094 423.144531 383.375 C 420.933594 384.570312 416.019531 383.3125 414.886719 384 C 413.3125 385.007812 417.53125 387.273438 417.40625 387.78125 C 417.277344 388.347656 416.777344 388.910156 416.394531 389.039062 C 414.261719 389.855469 411.488281 388.285156 409.910156 389.164062 C 408.589844 389.980469 409.15625 392.054688 408.339844 393.132812 C 407.324219 394.449219 405.054688 393.886719 404.050781 394.640625 C 402.730469 395.585938 402.664062 397.847656 404.117188 399.230469 C 405.25 400.304688 406.320312 401.054688 407.773438 401.742188 C 414.332031 405.019531 421.132812 408.292969 427.496094 407.847656 C 430.769531 407.660156 436.121094 407.476562 439.085938 408.230469 C 442.929688 409.171875 446.828125 412.128906 448.859375 413.386719 C 450.488281 414.390625 453.136719 414.652344 455.21875 413.894531 C 456.726562 413.386719 457.730469 411.625 457.425781 410.117188 C 456.472656 405.085938 448.160156 403.511719 448.027344 398.476562 C 447.90625 392.691406 447.40625 389.546875 445.507812 385.890625 C 444.820312 384.507812 444.691406 381.296875 446.335938 380.859375 C 447.652344 380.542969 448.09375 382.375 449.164062 381.929688 C 454.019531 380.035156 454.207031 372.363281 459.25 370.914062 C 462.210938 370.097656 472.160156 369.96875 471.34375 368.710938 C 469.269531 365.753906 470.210938 362.355469 471.34375 360.785156 C 472.097656 359.777344 474.183594 358.765625 475 359.777344 C 476.132812 361.09375 473.300781 362.667969 473.492188 364.621094 C 473.679688 366.445312 476.324219 369.96875 474.3125 371.855469 C 473.113281 372.984375 464.097656 373.367188 461.453125 377.394531 C 459.816406 379.847656 459.632812 381.800781 461.582031 381.609375 C 463.15625 381.421875 464.476562 379.535156 465.917969 378.464844 C 468.503906 376.578125 470.589844 375.820312 472.042969 377.203125 C 472.796875 377.894531 471.789062 379.21875 470.402344 379.59375 C 469.269531 379.96875 466.496094 382.933594 467.246094 383.679688 C 468.378906 384.875 474.679688 379.40625 476.261719 380.539062 C 477.078125 381.164062 473.167969 385.195312 473.863281 386.265625 C 474.679688 387.585938 477.332031 385.511719 478.152344 386.519531 C 479.339844 388.03125 476.066406 390.984375 474.179688 392.304688 C 472.734375 393.25 473.292969 396.769531 471.21875 397.84375 C 468.886719 398.976562 467.816406 400.984375 468.066406 401.300781 C 468.320312 401.800781 468.882812 402.175781 469.765625 401.613281 C 472.34375 399.976562 475.5625 398.027344 476.886719 398.535156 C 477.640625 398.851562 476.578125 402.433594 475.628906 404.128906 C 474.675781 405.832031 479.46875 404.894531 478.773438 406.332031 C 478.179688 407.65625 478.003906 409.125 478.269531 410.550781 C 478.652344 412.503906 473.109375 412.941406 472.605469 414.265625 C 472.039062 415.78125 473.167969 416.152344 473.738281 416.21875 C 477.078125 416.722656 476.632812 419.800781 475.3125 421.125 C 473.550781 422.894531 470.523438 423.582031 467.878906 423.140625 C 465.609375 422.761719 460.503906 421.8125 457.484375 419.550781 C 456.535156 418.863281 455.152344 419.367188 454.957031 420.308594 C 454.773438 421.378906 455.910156 423.332031 456.410156 424.96875 C 457.109375 427.417969 456.726562 430.503906 455.910156 432.894531 C 454.148438 437.863281 449.417969 442.015625 448.09375 447.988281 C 447.777344 449.570312 448.222656 451.519531 448.859375 453.03125 C 450.234375 456.300781 452.253906 459.386719 454.523438 462.152344 C 454.839844 463.035156 455.277344 464.039062 454.90625 464.855469 C 454.402344 466.113281 450.488281 468.820312 449.359375 469.890625 C 445.769531 473.222656 442.683594 477.570312 441.984375 482.285156 C 441.730469 483.976562 438.085938 485.679688 435.621094 486.375 C 433.800781 486.871094 431.90625 487.382812 430.394531 488.570312 C 430.207031 489.957031 431.023438 491.15625 431.210938 492.535156 C 431.527344 494.925781 428.503906 496.125 426.167969 496.882812 C 425.0625 497.308594 423.890625 497.539062 422.707031 497.570312 C 422.269531 497.570312 422.136719 496.816406 422.203125 496.445312 C 422.894531 493.171875 423.523438 490.527344 424.78125 487.828125 C 425.292969 486.816406 426.109375 486 426.929688 485.308594 L 435.9375 477.757812 L 442.996094 467.625 C 443.621094 466.683594 443.875 465.867188 443.875 465.175781 C 443.875 463.222656 443.054688 461.398438 441.667969 460.140625 C 439.910156 458.570312 437.324219 458.320312 435.367188 457.304688 C 432.851562 456.054688 429.195312 452.523438 428.691406 452.269531 C 427.304688 451.582031 426.488281 454.089844 426.300781 455.542969 C 425.984375 457.746094 426.675781 459.824219 426.617188 462.023438 C 426.617188 463.035156 426.488281 463.605469 425.984375 464.226562 C 420.066406 467.621094 412.691406 468.878906 408.347656 474.296875 C 407.582031 475.238281 406.902344 476.25 405.890625 476.9375 C 403.425781 478.640625 399.335938 476.6875 397.503906 479.328125 C 396.6875 480.527344 397.632812 482.101562 397.320312 483.421875 C 397.128906 484.175781 395.679688 485.179688 394.550781 485.75 C 393.035156 486.425781 391.414062 486.828125 389.761719 486.941406 C 387.933594 486.066406 389.066406 483.488281 389.695312 481.65625 C 390.324219 479.769531 391.210938 477.890625 392.65625 476.625 C 394.804688 474.742188 397.503906 472.351562 399.214844 471.523438 C 400.660156 470.832031 402.867188 470.832031 404.628906 470.144531 C 406.488281 469.574219 408.25 468.726562 409.855469 467.625 C 412.441406 465.996094 414.832031 463.976562 416.285156 461.203125 C 417.925781 458.066406 417.738281 453.855469 415.65625 451.144531 C 413.765625 448.6875 411.5625 446.296875 410.304688 443.523438 C 409.609375 442.019531 410.109375 439.941406 411.1875 438.554688 C 411.121094 438.5 410.371094 437.988281 409.921875 438.121094 C 400.917969 438.503906 391.78125 437.5 383.402344 434.15625 C 381.195312 433.273438 378.929688 430.441406 377.351562 430.261719 C 375.902344 430.066406 375.019531 431.890625 373.570312 432.269531 C 371.238281 432.898438 368.210938 432.523438 365.507812 432.269531 C 362.355469 431.953125 355.804688 430.566406 351.074219 429.0625 C 350.320312 429.1875 349.503906 429.3125 348.808594 429.757812 C 347.800781 430.445312 347.613281 431.953125 347.546875 433.21875 C 347.421875 434.914062 347.925781 436.484375 347.734375 438.246094 C 347.675781 439.128906 347.175781 440.074219 347.421875 440.898438 C 347.675781 441.902344 348.679688 442.339844 349.375 442.972656 C 350.507812 444.042969 350.699219 446.238281 350.699219 448 C 350.699219 449.953125 350.003906 452.53125 351.644531 453.859375 C 352.652344 454.675781 354.039062 453.601562 355.300781 453.859375 C 356.6875 454.105469 357.121094 455.804688 357.1875 457.125 C 357.253906 458.632812 355.992188 461.84375 355.171875 462.660156 C 354.605469 463.230469 353.65625 462.789062 352.96875 462.476562 C 351.148438 461.65625 349.441406 460.332031 348.4375 458.578125 C 347.996094 457.8125 347.996094 456.875 347.550781 456.066406 C 346.859375 454.679688 345.597656 453.863281 344.339844 452.914062 C 342.828125 451.78125 342.515625 449.710938 342.261719 447.878906 C 342.074219 446.183594 342.390625 444.539062 342.515625 442.84375 C 342.839844 439.476562 342.625 436.078125 341.882812 432.773438 C 341.3125 430.265625 339.933594 427.742188 340.558594 425.230469 C 340.875 424.03125 341.691406 422.902344 342.828125 422.398438 C 348.9375 422.082031 354.988281 421.070312 360.785156 419.246094 L 357.007812 415.53125 C 356.054688 415.53125 355.304688 416.480469 354.359375 416.480469 C 353.351562 416.480469 351.964844 415.035156 351.589844 414.527344 C 349.636719 411.632812 348.378906 408.300781 347.496094 404.90625 C 346.671875 403.585938 345.667969 402.253906 344.152344 401.632812 C 343.101562 401.171875 341.960938 400.957031 340.816406 401 C 337.664062 402.386719 334.765625 405.09375 334.511719 408.554688 C 334.449219 409.4375 334.953125 410.191406 334.828125 411.066406 C 334.640625 412.578125 333.503906 413.585938 332.433594 414.65625 C 331.363281 415.726562 330.351562 416.796875 329.914062 418.304688 C 329.535156 419.558594 329.980469 420.878906 330.539062 422.078125 C 330.921875 422.898438 331.363281 423.710938 331.046875 424.589844 C 330.285156 426.664062 325.316406 428.808594 323.867188 428.808594 C 323.363281 428.808594 322.921875 428.117188 322.734375 427.550781 C 322.164062 425.660156 322.292969 423.652344 322.671875 421.757812 C 323.996094 420.3125 325.003906 418.617188 325.566406 416.730469 C 326.324219 414.21875 325.945312 411.507812 327.144531 409.175781 C 330.292969 403.835938 338.355469 393.140625 339.9375 391.5625 C 340.628906 390.871094 342.328125 390.492188 343.023438 390.929688 C 346.425781 393.136719 348.445312 395.839844 351.714844 397.539062 C 353.484375 398.417969 355.6875 399.742188 357.265625 398.480469 C 358.835938 397.222656 359.089844 388.792969 360.097656 386.652344 C 361.914062 382.925781 367.015625 378.015625 370.539062 374.050781 Z M 433.257812 321.640625 L 431.871094 326.925781 L 426.828125 326.925781 L 433.386719 302.132812 L 439.117188 302.132812 L 445.414062 326.738281 L 440.378906 326.738281 L 439.117188 321.640625 Z M 420.015625 309.257812 C 420.082031 307.621094 419.582031 305.484375 418.257812 304.976562 C 416.863281 304.476562 415.417969 304.910156 414.796875 305.859375 C 413.71875 307.621094 413.71875 310.011719 413.785156 313.65625 C 413.785156 315.859375 413.851562 318.949219 414.285156 320.394531 C 415.355469 323.730469 418.191406 323.921875 419.578125 321.839844 C 420.273438 320.835938 420.273438 318.886719 420.207031 317.125 L 417.308594 317.125 L 417.308594 313.472656 L 424.804688 313.472656 L 424.804688 326.8125 L 421.214844 326.8125 L 421.214844 324.988281 C 421.148438 325.117188 419.578125 326.308594 418.816406 326.6875 C 417.558594 327.253906 415.167969 327.253906 413.214844 326.429688 C 411.574219 325.742188 410.007812 323.542969 409.308594 320.710938 C 408.621094 317.75 408.925781 313.910156 408.925781 310.640625 C 408.992188 307.183594 410.816406 303.339844 413.335938 301.894531 C 415.101562 300.886719 418.378906 300.886719 420.460938 301.640625 C 422.980469 302.527344 424.925781 306.171875 424.554688 309.253906 L 420.015625 309.253906 Z M 335.617188 302.507812 C 337.632812 303.765625 338.703125 306.09375 338.332031 308.804688 L 334.355469 308.804688 C 334.355469 306.289062 333.285156 305.085938 331.144531 305.027344 C 329.820312 304.960938 328.183594 306.476562 328.183594 307.609375 C 328.117188 310.9375 331.082031 311.636719 333.097656 312.261719 C 334.609375 312.707031 336.433594 313.648438 337.316406 314.96875 C 338.957031 317.355469 339.144531 319.878906 337.824219 323.148438 C 337.199219 324.71875 334.796875 326.605469 332.785156 327.046875 C 330.515625 327.550781 327.742188 327.296875 325.476562 325.597656 C 323.652344 324.210938 322.828125 321.503906 323.207031 319.050781 L 327.679688 319.050781 C 327.679688 320.25 327.867188 321.128906 328.375 321.886719 C 328.75 322.394531 329.445312 323.207031 330.644531 323.273438 C 331.605469 323.34375 332.546875 322.988281 333.21875 322.292969 C 333.886719 321.601562 334.210938 320.644531 334.105469 319.6875 C 333.851562 315.847656 327.425781 315.59375 325.21875 313.136719 C 322.570312 310.121094 323.398438 305.273438 325.539062 303.324219 C 328.5 300.5625 332.53125 300.5625 335.617188 302.507812 Z M 462.835938 318.914062 C 462.894531 319.863281 462.964844 323.195312 463.089844 325.335938 C 463.15625 325.960938 463.777344 326.78125 463.777344 326.84375 L 459.050781 326.84375 C 458.429688 326.84375 458.363281 325.710938 458.296875 324.765625 C 458.175781 322.253906 458.425781 316.269531 455.96875 316.269531 L 452.9375 316.269531 L 452.9375 326.78125 L 448.210938 326.78125 L 448.210938 302.238281 L 456.722656 302.238281 C 461 302.238281 463.152344 304.695312 463.152344 308.027344 C 463.152344 310.234375 463.085938 312.808594 460.566406 313.878906 C 461.886719 315.140625 462.640625 317.03125 462.835938 318.914062 Z M 462.835938 318.914062 "/>
<path style=" stroke:none;fill-rule:evenodd;fill:rgb(92.941176%,78.823529%,36.862745%);fill-opacity:1;" d="M 456.355469 305.789062 L 452.820312 305.789062 L 452.820312 312.398438 L 455.40625 312.398438 C 459.699219 312.398438 459.632812 305.789062 456.355469 305.789062 Z M 456.355469 305.789062 "/>
<path style=" stroke:none;fill-rule:evenodd;fill:rgb(0%,0%,0%);fill-opacity:1;" d="M 349.984375 326.886719 L 345.257812 326.886719 L 345.257812 306.1875 L 339.835938 306.1875 L 339.835938 302.035156 L 355.460938 302.035156 L 355.460938 306.1875 L 349.984375 306.1875 Z M 380.402344 326.886719 L 380.402344 306.1875 L 374.980469 306.1875 L 374.980469 302.035156 L 390.671875 302.035156 L 390.671875 306.1875 L 385.128906 306.1875 L 385.128906 326.886719 Z M 392.796875 302.039062 L 408.484375 302.039062 L 408.484375 306.261719 L 402.9375 306.261719 L 402.9375 326.894531 L 398.210938 326.894531 L 398.210938 306.261719 L 392.796875 306.261719 Z M 474.761719 306.261719 L 474.761719 326.960938 L 470.03125 326.960938 L 470.03125 306.261719 L 464.609375 306.261719 L 464.609375 302.046875 L 480.238281 302.046875 L 480.238281 306.261719 Z M 367.824219 319.761719 L 367.824219 302.082031 L 372.417969 302.082031 L 372.417969 319.320312 C 372.417969 329.640625 357.421875 329.640625 357.421875 319.636719 L 357.421875 302.082031 L 362.015625 302.082031 L 362.015625 319.824219 C 362.019531 323.667969 367.824219 323.667969 367.824219 319.761719 Z M 367.824219 319.761719 "/>
<path style="fill:none;stroke-width:0.989;stroke-linecap:butt;stroke-linejoin:miter;stroke:rgb(0%,0%,0%);stroke-opacity:1;stroke-miterlimit:2.613;" d="M 91.180741 81.51847 C 91.514864 81.231407 91.98546 80.835165 92.532292 80.487865 C 93.017947 80.168802 92.471114 80.897284 92.440996 81.200347 C 92.34876 82.018243 91.726632 82.108597 91.044268 81.958006 C 90.922855 81.927888 90.968973 81.70012 91.180741 81.51847 " transform="matrix(4.150325,0,0,4.150325,0,0.000000000000056843)"/>
<path style=" stroke:none;fill-rule:evenodd;fill:rgb(79.215686%,19.215686%,19.607843%);fill-opacity:1;" d="M 496.914062 417.652344 L 617.257812 417.585938 L 622.605469 351.148438 L 496.914062 351.207031 Z M 395.421875 624.582031 L 271.300781 624.328125 C 296.882812 647.292969 356.105469 690.273438 395.042969 707.699219 Z M 395.421875 624.582031 "/>
<path style=" stroke:none;fill-rule:evenodd;fill:rgb(0%,0%,0%);fill-opacity:1;" d="M 305.636719 362.5625 L 305.636719 373.203125 C 300.722656 369.554688 277.914062 366.910156 263.863281 372.382812 C 260.464844 373.699219 249.375 378.484375 244.332031 382.449219 L 230.160156 393.648438 C 228.769531 394.773438 228.648438 397.234375 228.648438 399.125 C 228.648438 403.273438 223.796875 406.421875 221.085938 405.535156 C 218.882812 404.78125 215.859375 404.34375 213.085938 404.96875 C 210.121094 405.597656 207.480469 401.886719 207.226562 399.746094 C 206.847656 397.105469 208.929688 393.648438 209.050781 392.511719 C 209.175781 391.441406 208.484375 387.230469 212.390625 384.648438 C 214.152344 383.515625 216.613281 383.578125 218.375 384.523438 C 218.886719 384.824219 219.496094 384.914062 220.074219 384.773438 C 220.707031 384.523438 222.40625 383.011719 222.847656 382.636719 C 223.039062 380.125 222.660156 376.15625 222.914062 373.957031 C 223.476562 369.671875 223.730469 367.226562 225.054688 363.066406 C 226.1875 359.480469 228.648438 354.257812 230.472656 351.304688 C 233.75 345.953125 240.242188 340.796875 245.089844 341.234375 C 243.195312 343.75 242.570312 345.074219 241.183594 347.65625 C 238.601562 352.375 236.207031 360.175781 235.074219 365.457031 C 234.316406 368.855469 233.9375 371.5 234.125 375.085938 C 237.84375 372.316406 241.75 370.054688 244.328125 368.601562 C 245.578125 362.359375 247.699219 356.324219 250.628906 350.671875 C 253.78125 344.695312 262.285156 338.214844 267.828125 338.714844 C 262.597656 344.382812 258.886719 352.246094 257.5 357.28125 C 256.929688 359.289062 256.238281 361.617188 256.550781 362.878906 C 258.628906 361.75 262.917969 360.617188 264.992188 360.425781 C 266.378906 356.964844 268.269531 352.8125 269.847656 350.363281 C 274.761719 342.808594 282.507812 338.214844 286.925781 338.40625 C 283.457031 343.058594 280.492188 347.277344 278.355469 353.503906 C 277.71875 355.324219 277.40625 357.28125 277.40625 358.222656 C 280.113281 357.777344 284.335938 357.777344 286.039062 357.777344 C 290.628906 353.65625 290.179688 352.527344 295.242188 348.660156 C 298.390625 346.203125 304.246094 342.867188 305.632812 342.613281 L 305.632812 350.050781 C 303.234375 352.195312 298.386719 356.804688 297.4375 359.199219 C 299.523438 359.960938 303.683594 361.246094 305.636719 362.5625 Z M 305.636719 362.5625 "/>
<path style=" stroke:none;fill-rule:evenodd;fill:rgb(92.941176%,78.823529%,36.862745%);fill-opacity:1;" d="M 438.417969 317.132812 L 436.15625 307.191406 L 434.015625 317.132812 Z M 438.417969 317.132812 "/>
<path style=" stroke:none;fill-rule:evenodd;fill:rgb(0%,0%,0%);fill-opacity:1;" d="M 626.878906 287.132812 L 497.367188 287.1875 L 497.367188 344.527344 L 622.90625 344.679688 L 626.722656 289.398438 Z M 632.835938 207.960938 L 633.988281 189.265625 C 552.714844 164.1875 477.570312 156.671875 407.136719 156.671875 L 407.105469 207.648438 Z M 317.632812 480.214844 C 308.828125 463.960938 305.355469 446.109375 305.355469 428.632812 L 185.835938 428.761719 L 189.554688 480.226562 Z M 394.972656 615.90625 L 394.996094 562.269531 L 216.132812 562.074219 C 227.746094 580.605469 242.65625 597.625 260.050781 614.558594 C 260.527344 615.027344 261.023438 615.507812 261.527344 615.996094 Z M 394.972656 615.90625 "/>
</g>
</svg>
