<?xml version="1.0" encoding="UTF-8"?>
<svg xmlns="http://www.w3.org/2000/svg" xmlns:xlink="http://www.w3.org/1999/xlink" width="800px" height="800px" viewBox="0 0 800 800" version="1.1">
<g id="surface1">
<path style=" stroke:none;fill-rule:nonzero;fill:rgb(0%,0%,0%);fill-opacity:1;" d="M 530.265625 438.3125 L 495.867188 438.3125 L 488.488281 474.265625 L 434.355469 474.265625 L 473.976562 325.6875 L 554.179688 325.6875 L 592.464844 474.265625 L 538.332031 474.265625 Z M 525.332031 404.890625 L 513.957031 354.488281 L 513.421875 354.488281 L 500.621094 404.890625 Z M 525.332031 404.890625 "/>
<path style=" stroke:none;fill-rule:nonzero;fill:rgb(0%,0%,0%);fill-opacity:1;" d="M 740.710938 388.710938 L 738.378906 388.710938 L 715.265625 474.3125 L 682.265625 474.3125 L 659.222656 389.15625 L 657.023438 389.199219 L 656.84375 474.3125 L 607.332031 474.3125 L 607.332031 325.734375 L 685.222656 325.734375 L 699.089844 372.445312 L 699.753906 372.445312 L 714.933594 325.734375 L 790.199219 325.734375 L 790.199219 474.3125 L 740.6875 474.3125 Z M 740.710938 388.710938 "/>
<path style=" stroke:none;fill-rule:nonzero;fill:rgb(0%,0%,0%);fill-opacity:1;" d="M 346.890625 424.222656 L 335.867188 424.222656 L 335.867188 474.3125 L 284.378906 474.3125 L 284.378906 325.734375 L 358.644531 325.734375 C 397.601562 325.734375 413.488281 338.535156 415.378906 371.601562 C 416.3125 388.042969 411.820312 417.734375 393.753906 420.667969 L 420.6875 474.3125 L 366.222656 474.3125 Z M 335.554688 393.109375 L 345.867188 393.109375 C 356.957031 393.109375 360.179688 386 360.246094 378.890625 C 360.398438 365.109375 359.089844 354.398438 346.421875 354.398438 L 335.554688 354.398438 Z M 335.554688 393.109375 "/>
<path style=" stroke:none;fill-rule:nonzero;fill:rgb(0%,0%,0%);fill-opacity:1;" d="M 123.378906 160.933594 C 157.753906 161.023438 197.132812 164.578125 210.890625 167.289062 C 228.355469 170.710938 232.601562 172.355469 232.601562 206.398438 C 232.601562 233.199219 233.222656 353.199219 230 438.265625 C 228.199219 485.464844 226.644531 526.179688 195.289062 563.601562 C 164.535156 600.265625 137.820312 624.976562 133.753906 628.578125 C 129.6875 632.179688 124.332031 638.222656 123.246094 638.667969 C 122.15625 639.109375 120.378906 639.15625 119.15625 638.667969 C 117.957031 638.179688 111.421875 631.734375 108.890625 629.289062 C 106.378906 626.800781 68.820312 589.421875 47.15625 563.601562 C 15.800781 526.179688 14.246094 485.464844 12.445312 438.265625 C 9.222656 353.199219 9.84375 233.199219 9.84375 206.355469 C 9.84375 172.355469 14.089844 170.710938 31.554688 167.246094 C 45.3125 164.535156 84.710938 160.976562 119.089844 160.890625 L 123.378906 160.890625 Z M 119.066406 171.6875 C 84.554688 171.777344 45.15625 175.734375 32.066406 177.957031 C 17.777344 180.398438 15.222656 182.222656 15.199219 206.355469 L 15.109375 228.265625 C 15 245.464844 14.84375 269.734375 14.84375 297.066406 C 14.84375 341.601562 16.15625 394.179688 17.800781 437.464844 C 19.554688 483.464844 20.933594 519.820312 49.910156 554.398438 C 72.179688 580.933594 110.890625 619.289062 111.265625 619.644531 L 112.578125 620.933594 C 114.398438 622.710938 119.222656 627.332031 120.421875 628.179688 C 120.867188 628.3125 121.621094 628.3125 122.066406 628.179688 C 123.222656 627.378906 126.421875 624.042969 129.066406 621.6875 L 132.355469 618.621094 C 132.621094 618.398438 159.488281 593.820312 192.554688 554.398438 C 221.535156 519.820312 222.910156 483.464844 224.667969 437.464844 C 226.3125 394.222656 227.621094 341.601562 227.621094 297.066406 C 227.621094 269.777344 227.464844 245.511719 227.378906 228.3125 L 227.265625 206.398438 C 227.222656 185.15625 225.199219 180.445312 210.398438 178 C 197.3125 175.820312 157.910156 171.777344 123.398438 171.734375 L 119.066406 171.734375 Z M 119.066406 171.6875 "/>
<path style=" stroke:none;fill-rule:nonzero;fill:rgb(0%,0%,0%);fill-opacity:1;" d="M 72.511719 221.378906 C 97.976562 221.378906 111.109375 264.84375 118.644531 296.488281 L 116.265625 322.398438 C 103.066406 267.554688 87.332031 232.621094 68.265625 232.621094 C 47.667969 232.621094 36.066406 285.199219 33.089844 294.042969 C 38.421875 267.023438 53.890625 221.378906 72.511719 221.378906 Z M 72.511719 221.378906 "/>
<path style=" stroke:none;fill-rule:nonzero;fill:rgb(0%,0%,0%);fill-opacity:1;" d="M 207.621094 294.042969 C 204.644531 285.199219 193.042969 232.621094 172.445312 232.621094 C 153.398438 232.621094 137.644531 267.511719 124.445312 322.398438 L 122.066406 296.488281 C 129.601562 264.84375 142.734375 221.378906 168.199219 221.378906 C 186.84375 221.378906 202.3125 267.023438 207.621094 294.042969 Z M 207.621094 294.042969 "/>
<path style=" stroke:none;fill-rule:nonzero;fill:rgb(0%,0%,0%);fill-opacity:1;" d="M 188.667969 286.488281 C 172 285.867188 157.554688 311.601562 147.820312 374.042969 L 153.289062 380.933594 L 151.023438 407.023438 L 138.578125 415.867188 L 136.132812 449.601562 L 142.15625 434.265625 L 150.644531 430.800781 L 146.867188 451.109375 L 135.179688 464.132812 L 131.023438 518.578125 L 132.601562 539.023438 L 120.578125 548.3125 L 120.578125 548.355469 L 109.554688 539.023438 L 111.132812 518.578125 L 106.976562 464.132812 L 95.289062 451.109375 L 91.511719 430.800781 L 100 434.265625 L 106.023438 449.601562 L 103.578125 415.867188 L 91.132812 407.023438 L 88.890625 380.976562 L 94.355469 374.089844 C 84.621094 311.644531 70.179688 285.867188 53.511719 286.535156 C 40.199219 287.066406 30.289062 318.089844 31.398438 350.976562 L 42.957031 353.6875 C 47.089844 400 50.957031 458.84375 59.667969 458.84375 C 62.3125 458.84375 62.421875 450.535156 62.421875 443.777344 C 62.421875 427.378906 57.488281 407.734375 57.488281 376.488281 C 57.488281 362.042969 59.84375 349.644531 65.15625 349.644531 C 68.777344 349.644531 70.398438 351.601562 72.109375 357.867188 C 70.667969 379.246094 70.621094 397.601562 78.957031 408.890625 C 80.800781 411.378906 84.777344 418.890625 84.777344 418.890625 C 84.777344 418.890625 91.644531 472.890625 92.066406 476.488281 C 92.445312 479.777344 93.421875 484.265625 94.179688 487.023438 C 95.265625 490.800781 102.890625 517.421875 102.890625 517.421875 C 102.890625 517.421875 105.488281 550.042969 106.042969 555.6875 C 107.421875 569.644531 114.511719 570.84375 120.3125 570.890625 L 120.734375 570.890625 C 120.867188 570.890625 120.976562 570.890625 121.109375 570.890625 C 121.246094 570.890625 121.355469 570.890625 121.488281 570.890625 L 121.910156 570.890625 C 127.710938 570.800781 134.800781 569.601562 136.179688 555.6875 C 136.734375 550.089844 139.332031 517.421875 139.332031 517.421875 C 139.332031 517.421875 146.957031 490.800781 148.042969 487.023438 C 148.777344 484.3125 149.753906 479.777344 150.15625 476.488281 C 150.578125 472.890625 157.445312 418.890625 157.445312 418.890625 C 157.445312 418.890625 161.421875 411.378906 163.265625 408.890625 C 171.601562 397.601562 171.554688 379.246094 170.109375 357.867188 C 171.820312 351.554688 173.445312 349.644531 177.066406 349.644531 C 182.378906 349.644531 184.734375 362.042969 184.734375 376.488281 C 184.734375 407.734375 179.800781 427.378906 179.800781 443.777344 C 179.800781 450.535156 179.910156 458.84375 182.554688 458.84375 C 191.265625 458.84375 195.132812 400 199.265625 353.6875 L 210.820312 350.976562 C 211.890625 318.089844 201.976562 287.023438 188.667969 286.488281 Z M 79.355469 401.6875 C 73.066406 396.222656 72.910156 384.890625 75.023438 364.753906 L 81.84375 382.621094 L 83.132812 404.710938 C 83.132812 404.753906 81.488281 403.554688 79.355469 401.6875 Z M 162.621094 401.6875 C 160.488281 403.554688 158.867188 404.753906 158.867188 404.753906 L 160.15625 382.667969 L 166.976562 364.800781 C 169.066406 384.890625 168.910156 396.222656 162.621094 401.6875 Z M 162.621094 401.6875 "/>
<path style=" stroke:none;fill-rule:nonzero;fill:rgb(0%,0%,0%);fill-opacity:1;" d="M 216.976562 358.089844 L 215.066406 365.332031 C 215.066406 365.332031 207.464844 366.933594 207.199219 366.933594 C 203.535156 425.421875 191.667969 487.910156 178.6875 487.910156 C 174.421875 487.910156 174.3125 474.667969 174.3125 458.890625 C 174.3125 452.179688 174.777344 446.179688 175.3125 440.933594 C 173.910156 446.089844 171.535156 464.933594 171.535156 481.023438 C 171.535156 499.820312 176.820312 510.179688 185.867188 510.179688 C 195.042969 510.179688 202.710938 501.199219 207.710938 484.535156 C 204.464844 502.445312 198.15625 518 184.621094 534.222656 C 154.132812 570.578125 128.710938 593.332031 128.488281 593.554688 L 126.578125 595.246094 C 124.957031 596.710938 122.3125 599.066406 120.644531 600.488281 C 119.089844 599.066406 116.777344 596.753906 115.734375 595.734375 L 114.511719 594.535156 C 114.199219 594.222656 78.332031 558.710938 57.820312 534.222656 C 45.15625 519.023438 38.820312 504.445312 35.398438 487.957031 C 40.378906 502.355469 47.355469 510.179688 55.84375 510.179688 C 64.890625 510.179688 70.179688 499.820312 70.179688 481.023438 C 70.179688 464.933594 67.800781 446.089844 66.398438 440.933594 C 66.933594 446.179688 67.398438 452.179688 67.398438 458.890625 C 67.398438 474.667969 67.289062 487.910156 63 487.910156 C 50.023438 487.910156 38.109375 425.15625 34.445312 366.667969 C 33.910156 366.578125 27.066406 365.15625 27.066406 365.15625 L 24.710938 356.355469 C 24.710938 356.355469 24.289062 384.445312 24.753906 402.84375 C 25.222656 421.289062 26.199219 437.109375 29.15625 459.554688 C 29.710938 463.820312 30.378906 467.867188 31.109375 471.644531 C 33.6875 496.355469 39.710938 516.800781 56.910156 537.199219 C 77.554688 561.820312 113.378906 597.289062 113.734375 597.644531 L 114.957031 598.84375 C 116.089844 599.957031 118.6875 602.535156 120.265625 603.957031 L 120.601562 604.265625 L 120.957031 603.957031 C 122.601562 602.578125 125.535156 599.957031 127.289062 598.398438 L 129.199219 596.710938 C 129.488281 596.445312 154.957031 573.644531 185.535156 537.199219 C 204.578125 514.621094 209.890625 491.957031 212.042969 463.511719 C 212.222656 462.222656 212.398438 460.890625 212.554688 459.554688 C 215.089844 436.890625 216.132812 425.023438 216.601562 406.578125 C 217 390.710938 217 364.933594 216.976562 358.089844 Z M 29.023438 350.710938 C 28.890625 334.933594 28.84375 319.332031 28.84375 304.667969 C 28.84375 279.289062 28.976562 256.710938 29.089844 240.710938 C 29.089844 240.667969 29.109375 224.976562 29.199219 220.222656 C 29.246094 215.601562 29.734375 211.109375 30.667969 208.933594 C 31.644531 206.445312 33.753906 205.820312 38.777344 205.246094 C 42.132812 204.84375 82.535156 199.332031 112.777344 199.332031 L 112.800781 199.332031 C 115 199.332031 117.132812 199.378906 119.222656 199.421875 C 119.222656 199.421875 119.246094 199.421875 119.265625 199.421875 C 119.667969 199.421875 119.933594 199.421875 120.089844 199.464844 C 120.179688 199.464844 120.246094 199.464844 120.265625 199.464844 C 120.289062 199.464844 120.3125 199.464844 120.3125 199.464844 L 120.332031 199.464844 C 120.332031 199.464844 120.332031 199.464844 120.355469 199.464844 C 120.355469 199.464844 120.378906 199.464844 120.398438 199.464844 C 120.421875 199.464844 120.421875 199.464844 120.464844 199.421875 L 123.179688 199.421875 L 123.179688 197.6875 L 123.179688 199.421875 C 123.421875 199.421875 123.667969 199.421875 123.910156 199.421875 C 149.109375 199.421875 200.3125 204.578125 203.601562 205.246094 C 207.84375 206 210.667969 207.199219 211.621094 209.246094 C 212.578125 211.15625 212.867188 213.378906 213.023438 218.222656 C 213.179688 222.753906 213.332031 240.621094 213.332031 240.667969 C 213.421875 256.667969 213.578125 279.199219 213.578125 304.578125 C 213.578125 319.464844 213.535156 335.289062 213.398438 351.378906 L 215.132812 353.601562 C 215.289062 336.753906 215.332031 320.132812 215.332031 304.578125 C 215.332031 279.199219 215.199219 256.621094 215.089844 240.621094 C 215.089844 240.578125 214.933594 222.753906 214.777344 218 C 214.621094 213.066406 214.265625 209.554688 212.867188 206.753906 C 211.089844 203.378906 208.089844 202.667969 203.777344 201.734375 C 200.3125 201.066406 149.246094 195.910156 123.933594 195.910156 C 123.6875 195.910156 123.421875 195.910156 123.179688 195.910156 L 119.199219 195.910156 C 117.109375 195.867188 114.957031 195.820312 112.753906 195.820312 C 82.398438 195.820312 41.976562 201.332031 38.621094 201.734375 C 33.6875 202.355469 31.042969 202.578125 29.265625 206.667969 C 27.890625 210.042969 27.488281 215.109375 27.398438 220.042969 C 27.332031 224.890625 27.289062 240.578125 27.289062 240.578125 C 27.199219 256.578125 27.042969 279.15625 27.042969 304.535156 C 27.042969 319.867188 27.089844 336.265625 27.246094 352.800781 Z M 29.023438 350.710938 "/>
</g>
</svg>
