<?xml version="1.0" encoding="UTF-8"?>
<svg xmlns="http://www.w3.org/2000/svg" xmlns:xlink="http://www.w3.org/1999/xlink" width="800px" height="800px" viewBox="0 0 800 800" version="1.1">
<g id="surface1">
<path style=" stroke:none;fill-rule:nonzero;fill:rgb(0%,0%,0%);fill-opacity:1;" d="M 400 141.199219 C 179.101562 141.199219 0 257.066406 0 399.933594 C 0 542.898438 179.101562 658.800781 400 658.800781 C 620.898438 658.800781 800 542.933594 800 399.933594 C 800 256.933594 620.898438 141.199219 400 141.199219 Z M 400 547.734375 C 367.132812 547.734375 340.332031 483 338.667969 401.566406 C 379.476562 405.140625 420.523438 405.140625 461.332031 401.566406 C 459.667969 482.964844 432.867188 547.734375 400 547.734375 Z M 342.699219 336.933594 C 351.632812 279.367188 373.933594 238.5 400 238.5 C 426.066406 238.5 448.332031 279.367188 457.300781 336.933594 C 419.175781 340.320312 380.824219 340.320312 342.699219 336.933594 Z M 400 178.601562 C 357.101562 178.601562 320.5 242.867188 307 332.566406 C 225.667969 319.898438 168.898438 290.964844 168.898438 257.367188 C 168.898438 212.035156 272.367188 175.332031 400 175.332031 C 527.667969 175.332031 631.101562 212.066406 631.101562 257.367188 C 631.101562 290.964844 574.332031 319.898438 493 332.566406 C 479.5 242.898438 442.898438 178.632812 400 178.632812 Z M 57.332031 390.265625 C 57.332031 346.433594 74.234375 305.265625 103.601562 269.933594 C 103.300781 272.398438 103.101562 274.933594 103.101562 277.464844 C 103.101562 332.699219 185.933594 379.800781 301.535156 397.132812 C 301.433594 401.132812 301.433594 405.199219 301.433594 409.265625 C 301.433594 512.265625 330.300781 599.433594 370.199219 629.035156 C 194.867188 618.464844 57.367188 515.601562 57.367188 390.265625 Z M 429.800781 629.035156 C 469.699219 599.433594 498.566406 512.234375 498.566406 409.265625 C 498.566406 405.167969 498.5 401.167969 498.464844 397.167969 C 614 379.832031 696.898438 332.765625 696.898438 277.464844 C 696.898438 274.933594 696.699219 272.398438 696.398438 269.933594 C 725.765625 305.367188 742.632812 346.433594 742.632812 390.265625 C 742.632812 515.601562 605.132812 618.464844 429.800781 629.035156 Z M 429.800781 629.035156 Z M 429.800781 629.035156 "/>
</g>
</svg>
