<?xml version="1.0" encoding="UTF-8"?>
<svg xmlns="http://www.w3.org/2000/svg" xmlns:xlink="http://www.w3.org/1999/xlink" width="800px" height="800px" viewBox="0 0 800 800" version="1.1">
<defs>
<linearGradient id="linear0" gradientUnits="userSpaceOnUse" x1="2.00431" y1="2.0043" x2="29.9955" y2="29.9955" gradientTransform="matrix(25,0,0,25,0,0)">
<stop offset="0" style="stop-color:rgb(12.54902%,53.333333%,98.039216%);stop-opacity:1;"/>
<stop offset="1" style="stop-color:rgb(1.176471%,16.862745%,36.078431%);stop-opacity:1;"/>
</linearGradient>
</defs>
<g id="surface1">
<path style=" stroke:none;fill-rule:evenodd;fill:url(#linear0);" d="M 400.152344 749.996094 C 593.417969 749.996094 750 593.414062 750 400.152344 C 750 206.582031 593.417969 50 400.152344 50 C 206.890625 50 50 206.582031 50 400.152344 C 50 593.414062 206.890625 749.996094 400.152344 749.996094 Z M 400.152344 749.996094 "/>
<path style=" stroke:none;fill-rule:evenodd;fill:rgb(100%,100%,100%);fill-opacity:1;" d="M 213.058594 584.78125 C 235.113281 606.824219 260.753906 624.960938 288.886719 638.40625 L 213.058594 464.570312 L 149.871094 319.699219 C 141.550781 344.976562 137.234375 372.101562 137.234375 400.148438 C 137.234375 471.96875 166.210938 537.3125 213.058594 584.78125 Z M 587.25 651.976562 C 664 594.949219 713.933594 503.402344 713.933594 400.148438 C 713.933594 296.890625 664 205.34375 587.25 148.015625 C 534.851562 109.175781 470.125 86.058594 400.15625 86.058594 C 330.1875 86.058594 265.460938 109.175781 213.058594 148.015625 C 136.308594 205.34375 86.378906 296.890625 86.378906 400.148438 C 86.378906 503.402344 136.308594 594.949219 213.058594 651.976562 C 265.460938 690.808594 330.1875 713.929688 400.15625 713.929688 C 470.125 713.929688 534.851562 690.8125 587.25 651.976562 Z M 587.25 215.515625 C 596.59375 224.867188 605.148438 234.972656 612.835938 245.722656 L 587.25 304.90625 L 490.777344 526.523438 L 440.84375 412.785156 L 359.46875 412.785156 L 309.539062 526.523438 L 213.058594 304.90625 L 187.476562 245.722656 C 195.160156 234.96875 203.71875 224.867188 213.058594 215.515625 C 229.066406 199.175781 247.210938 185.074219 267 173.597656 L 358.238281 385.96875 L 442.074219 385.96875 L 533.308594 173.597656 C 553.097656 185.074219 571.242188 199.175781 587.25 215.515625 Z M 587.25 464.570312 L 650.4375 319.699219 C 658.765625 344.976562 663.078125 372.101562 663.078125 400.148438 C 663.078125 471.960938 634.105469 537.3125 587.25 584.78125 C 565.199219 606.824219 539.558594 624.960938 511.429688 638.40625 Z M 400.15625 484.914062 L 473.519531 652.28125 C 449.691406 659.253906 424.988281 662.78125 400.15625 662.761719 C 375.328125 662.78125 350.628906 659.253906 326.796875 652.28125 Z M 400.15625 320.316406 L 475.675781 148.324219 C 451.941406 140.925781 426.359375 137.226562 400.15625 137.226562 C 373.957031 137.226562 348.683594 140.925781 324.640625 148.324219 Z M 400.15625 320.316406 "/>
</g>
</svg>
